<svg xmlns="http://www.w3.org/2000/svg" xmlns:xlink="http://www.w3.org/1999/xlink" viewBox="0 0 1418.35 1627.71"><defs><style>.cls-1{fill:url(#linear-gradient);}</style><linearGradient id="linear-gradient" x1="293.03" y1="1520.8" x2="1393.29" y2="60.44" gradientUnits="userSpaceOnUse"><stop offset="0.06" stop-color="#fff"/><stop offset="0.24" stop-color="#fbf8f6"/><stop offset="0.57" stop-color="#f6f1ec"/><stop offset="1" stop-color="#f5efe9"/></linearGradient></defs><title>Asset 50</title><g id="Layer_2" data-name="Layer 2"><g id="Layer_4" data-name="Layer 4"><path class="cls-1" d="M1304.47,104.15c53.2,51.21,50.2,131.21,32.2,198.21-34,126-103,246-80.23,378a264.87,264.87,0,0,0,27.24,74c18,27,39.74,51.25,59.87,76.5s38.62,51.5,50.12,82.5c37,96,30,202-5,298-62,171-215,286-376.47,356A631.19,631.19,0,0,1,927.34,1597c-114.43,31.26-234.61,31.69-352.48,30.33a663.81,663.81,0,0,1-78.51-3.68c-103-11.14-199.09-48-280.07-112.58a517,517,0,0,1-111-122.42,574.29,574.29,0,0,1-40-72.56C-62.33,1052.36,9.67,736.36,173.19,505.24q15.94-24.74,33.32-49c83.16-116.86,181.16-221.86,309.16-294.86,22-12.63,44.3-25.05,66.86-37S627.94,100.78,651,89.9C833.67,5.36,1067.67-47.64,1251.79,61.51A328.16,328.16,0,0,1,1304.47,104.15Z"/></g></g></svg>