<svg xmlns="http://www.w3.org/2000/svg" viewBox="0 0 183.67 65.35"><defs><style>.cls-1,.cls-8{fill:#007b71;}.cls-2{fill:#1c1c1c;}.cls-3{fill:#fff;}.cls-4{opacity:0.26;}.cls-5{opacity:0.58;}.cls-6{opacity:0.24;}.cls-7{opacity:0.54;}.cls-8{fill-rule:evenodd;}</style></defs><title>Asset 33</title><g id="Layer_2" data-name="Layer 2"><g id="Layer_4" data-name="Layer 4"><path class="cls-1" d="M69.09,36.36a6,6,0,0,1,0-.76l.37,0c1.53-.16,2.33-2.82,2.33-6.49,0-5-.36-5.95-2.33-7l-.37-.2a1.86,1.86,0,0,1,0-.41l7.29-3h1.13v5.88c.76-1.85,2.37-5.27,4.79-5.72s3.34.89,3.71,3c.24,1.69-1.13,3.06-2,2.73s-1.93-1.16-3.06-1.16c-1,0-2.05.6-3.42,2.61v3.55c0,3.58.89,6,2.33,6.2l.41,0a6,6,0,0,1,0,.76v.45H69.09Z"/><path class="cls-1" d="M86.12,27.62c0-5.71,3.95-9.38,10.19-9.38s10.11,3.67,10.11,9.38S102.47,37,96.31,37,86.12,33.34,86.12,27.62Zm10.19,8.06c2.42,0,4-3.14,4-8.06s-1.57-8-4-8-4,3.14-4,8.05S93.9,35.68,96.31,35.68Z"/><path class="cls-1" d="M104.44,18.44H115.8v.45a6,6,0,0,1,0,.76l-.36,0c-1.17.12-.89,2.26.64,5.4l3,5.56,3.71-8.18c-1.29-1.81-2.18-2.7-3.27-2.82V18.44h11.4v.45a6,6,0,0,1,0,.76l-.4,0c-1.37.12-1.05,2.62.92,6.2.85,1.53,1.73,3.14,2.54,4.71l2.17-4.71c1.66-3.58,1.62-6.08,0-6.2l-.52,0v-.76a2,2,0,0,0,0-.45h7.93v1.21l-.44,0c-1.53.12-3.66,2.66-5.48,6.2l-5.71,11.32h-.93l-6.12-11.32a25.47,25.47,0,0,0-1.33-2.33L117,37.21h-.93L110,25.89c-1.89-3.54-4-6.08-5.19-6.2l-.37,0Z"/><path class="cls-1" d="M140.2,20.74V20.1c1.93-.41,4.79-3.11,7.21-6.89h.92v5.23h5.36v2.3h-5.36s0,7.93,0,11.44c0,1.77.44,2.21,2,2.21a4.57,4.57,0,0,0,3.47-2.25l.4.52A7.78,7.78,0,0,1,147.53,37c-3.87,0-5-1.21-5-5.84V20.74Z"/><path class="cls-1" d="M161.42,9.83h1.12V21a8.75,8.75,0,0,1,6.69-2.78c3.18,0,4.35,2.42,4.35,6.2v4.92c0,3.58.88,6,2.33,6.2l.41,0a6,6,0,0,1,0,.76v.45H154.21V35.6l.36,0c1.45-.16,2.34-2.62,2.34-6.2v-8.9c0-5-.41-6-2.38-7l-.36-.2a1.81,1.81,0,0,1,0-.4Zm3.82,11c-.76,0-1.69.52-2.7,1.89v6.69c0,3.58.93,6,2.34,6.2l.36,0h.12l.2,0c1.45-.28,2.34-2.62,2.34-6.2V25.05C167.9,23.07,166.89,20.78,165.24,20.78Z"/><path class="cls-2" d="M69.74,52.06c0-8,6.2-13.09,15.94-13.09C90,39,93.9,40.1,95.79,41.83l.28,6h-.52c-.24-.48-.57-1-.81-1.53a10.3,10.3,0,0,0-9.06-5.72c-5.51,0-9,4.47-9,11.48s3.51,11.44,9,11.44a27.2,27.2,0,0,0,4.55-.41V60.28c0-3.59-.88-6-2.33-6.21l-.41,0a6,6,0,0,1,0-.76v-.44H98.73v.44a6,6,0,0,1,0,.76l-.4,0c-1.45.17-2.34,2.62-2.34,6.21v2.61c-2.29,1.37-6.32,2.26-10.27,2.26C75.94,65.15,69.74,60,69.74,52.06Z"/><path class="cls-2" d="M98.85,46.58h8.45v11.6c0,1.89,1.29,3.1,3.87,3.1a1.88,1.88,0,0,0,1.45-.76v-6.2c0-3.63-.85-6.33-2.34-6.49l-.36,0a6,6,0,0,1,0-.76v-.45h8.42v7.74c0,5,.36,6,2.33,7l.4.2a1.86,1.86,0,0,1,0,.41l-7.28,3h-1.17V61.64c-1.65,2.18-3.59,3.51-5.92,3.51-3.38,0-5.08-2.5-5.08-6.36V54c0-3.58-.88-6-2.33-6.2l-.4,0a6,6,0,0,1,0-.76Z"/><path class="cls-2" d="M121.27,64.5a6,6,0,0,1,0-.76l.37,0c1.53-.16,2.33-2.82,2.33-6.49,0-5-.36-6-2.33-7l-.37-.2a1.86,1.86,0,0,1,0-.41l7.29-3h1.13v5.88c.76-1.85,2.37-5.27,4.79-5.72s3.34.89,3.71,3c.24,1.69-1.13,3.06-2,2.73s-1.93-1.16-3.06-1.16c-1,0-2.05.6-3.42,2.61V57.5c0,3.58.88,6,2.33,6.2l.41,0a6,6,0,0,1,0,.76V65h-11.2Z"/><path class="cls-2" d="M138.3,46.58h8.46v11.6c0,1.89,1.29,3.1,3.87,3.1a1.89,1.89,0,0,0,1.45-.76v-6.2c0-3.63-.85-6.33-2.34-6.49l-.36,0a6,6,0,0,1,0-.76v-.45h8.41v7.74c0,5,.37,6,2.34,7l.4.2a1.86,1.86,0,0,1,0,.41l-7.29,3h-1.16V61.64c-1.66,2.18-3.59,3.51-5.92,3.51-3.39,0-5.08-2.5-5.08-6.36V54c0-3.58-.88-6-2.33-6.2l-.41,0a6,6,0,0,1,0-.76Z"/><path class="cls-2" d="M160.89,58.7c.12,0,.24,0,.48,0,.81,2.22,2.94,5.28,5.88,5.28,1.94,0,3.19-1.09,3.19-2.78,0-1.13-1.33-2.37-3.39-3.18-3.62-1.41-6-3.91-6-6,0-3.46,3.22-6.08,8.46-6.08,1.65,0,4.39.6,5.64,2L175,52.42h-.61c-1-2.05-2.33-5-4.71-5.11s-3.87,1.33-3.91,2.74,2.18,2.29,5.6,3.66a6.11,6.11,0,0,1,4.11,5.4c0,3.82-3.34,6.24-8.62,6.24a9.6,9.6,0,0,1-5.76-1.81Z"/><path class="cls-3" d="M30.75,10.59c0,.05-.07.12-.1.1s-.07,0-.07-.09a.08.08,0,0,1,.07-.09S30.75,10.54,30.75,10.59Z"/><path class="cls-3" d="M29.48,11.83c0,.05-.06.12-.09.1s-.07,0-.07-.09a.08.08,0,0,1,.07-.09A.09.09,0,0,1,29.48,11.83Z"/><path class="cls-3" d="M33.57,12.94c0,.05-.06.12-.09.1s-.07,0-.07-.09a.08.08,0,0,1,.07-.09A.09.09,0,0,1,33.57,12.94Z"/><path class="cls-3" d="M33.4,16.75c0,.05-.06.13-.09.1s-.07,0-.07-.08a.08.08,0,0,1,.07-.09S33.4,16.71,33.4,16.75Z"/><path class="cls-3" d="M34.56,8.25c0,.05-.06.12-.09.1s-.08,0-.08-.09a.09.09,0,0,1,.08-.09S34.56,8.2,34.56,8.25Z"/><path class="cls-3" d="M32.71,9.83c0,.05-.06.12-.09.1s-.08,0-.08-.09a.09.09,0,1,1,.17,0Z"/><path class="cls-3" d="M36.61,9.42c0,.05-.06.13-.1.1s-.07,0-.07-.09a.08.08,0,0,1,.07-.08S36.61,9.37,36.61,9.42Z"/><path class="cls-3" d="M35.26,12.31s0,.06,0,0,0,0,0,0a0,0,0,0,1,0-.05S35.26,12.28,35.26,12.31Z"/><path class="cls-3" d="M32.36,11.43v0s0,0,0,0v0Z"/><path class="cls-3" d="M34,10.28s0,.06,0,.05,0,0,0-.05a0,0,0,0,1,0,0S34,10.25,34,10.28Z"/><path class="cls-3" d="M31.74,12.94s0,.06,0,.05,0,0,0-.05a0,0,0,0,1,0,0S31.74,12.91,31.74,12.94Z"/><path class="cls-3" d="M34.81,14.8s0,.07,0,0,0,0,0,0,0-.05,0-.05A0,0,0,0,1,34.81,14.8Z"/><path class="cls-3" d="M37.5,13.34s0,.06,0,.05,0,0,0-.05a0,0,0,0,1,0,0S37.5,13.31,37.5,13.34Z"/><path class="cls-3" d="M29.26,16s0,.06-.05.05,0,0,0,0,0-.05,0-.05S29.26,16,29.26,16Z"/><path class="cls-3" d="M32,15.47s-.06.12-.09.1-.07,0-.07-.09a.08.08,0,0,1,.07-.09A.09.09,0,0,1,32,15.47Z"/><path class="cls-3" d="M58.08,7.41s-.13,0-.11-.06,0-.07.06-.08a.08.08,0,0,1,.09,0A.09.09,0,0,1,58.08,7.41Z"/><path class="cls-3" d="M56.72,6.59s-.12,0-.1-.06,0-.07.06-.08a.07.07,0,0,1,.09,0A.07.07,0,0,1,56.72,6.59Z"/><path class="cls-3" d="M56.62,10.34s-.12,0-.1-.06,0-.07.06-.08a.07.07,0,1,1,0,.14Z"/><path class="cls-3" d="M53.25,11s-.12,0-.11,0,0-.07.06-.08.09,0,.09,0A.07.07,0,0,1,53.25,11Z"/><path class="cls-3" d="M60.94,10.16s-.13,0-.11-.06,0-.07.06-.08a.07.07,0,0,1,.09.05A.07.07,0,0,1,60.94,10.16Z"/><path class="cls-3" d="M59.16,8.92s-.12,0-.11-.06,0-.07.06-.08a.08.08,0,0,1,.1.05S59.2,8.91,59.16,8.92Z"/><path class="cls-3" d="M60.35,12.17c-.05,0-.13,0-.11-.05s0-.07.06-.09a.07.07,0,0,1,.09.05A.07.07,0,0,1,60.35,12.17Z"/><path class="cls-3" d="M57.53,11.65s-.06,0-.05,0,0,0,0,0a0,0,0,0,1,.05,0S57.56,11.64,57.53,11.65Z"/><path class="cls-3" d="M57.68,9h0Z"/><path class="cls-3" d="M59.05,10.14s-.07,0-.06,0,0,0,0,0l0,0S59.07,10.13,59.05,10.14Z"/><path class="cls-3" d="M56.23,8.76s-.06,0,0,0,0,0,0,0a0,0,0,0,1,0,0S56.25,8.76,56.23,8.76Z"/><path class="cls-3" d="M55.26,11.81s-.07,0-.06,0,0,0,0,0,.05,0,.05,0S55.28,11.8,55.26,11.81Z"/><path class="cls-3" d="M57.11,13.79s-.06,0,0,0,0,0,0,0a0,0,0,0,1,0,0S57.13,13.79,57.11,13.79Z"/><path class="cls-3" d="M53,7.31s-.07,0-.06,0,0,0,0,0a.05.05,0,0,1,0,0S53.05,7.3,53,7.31Z"/><path class="cls-3" d="M54.08,9.56S54,9.53,54,9.5s0-.07.06-.08a.08.08,0,0,1,.1,0S54.12,9.55,54.08,9.56Z"/><path class="cls-3" d="M40.3,18.07s.1,0,.09.07,0,.06-.07.06-.07,0-.07-.05A.07.07,0,0,1,40.3,18.07Z"/><path class="cls-3" d="M41.38,19s.1,0,.09.06,0,.06-.07.07-.07,0-.07-.05S41.34,19,41.38,19Z"/><path class="cls-3" d="M41.9,15.66s.1,0,.08.06,0,.06-.06.07-.07,0-.07,0A.07.07,0,0,1,41.9,15.66Z"/><path class="cls-3" d="M44.9,15.47s.1,0,.09.06,0,.06-.07.07-.07,0-.07,0S44.86,15.47,44.9,15.47Z"/><path class="cls-3" d="M38.14,15.29s.1,0,.09.06,0,.06-.07.06-.07,0-.07,0S38.1,15.29,38.14,15.29Z"/><path class="cls-3" d="M39.54,16.6s.1,0,.08.06,0,.06-.06.07-.07,0-.07-.05A.07.07,0,0,1,39.54,16.6Z"/><path class="cls-3" d="M38.88,13.58s.11,0,.09.07,0,.06-.06.06a.08.08,0,0,1-.08-.05A.07.07,0,0,1,38.88,13.58Z"/><path class="cls-3" d="M41.26,14.39s.05,0,.05,0,0,0,0,0,0,0,0,0S41.24,14.39,41.26,14.39Z"/><path class="cls-3" d="M40.82,16.74h0s0,0,0,0h0A0,0,0,0,1,40.82,16.74Z"/><path class="cls-3" d="M39.77,15.54s.06,0,0,0,0,0,0,0,0,0,0,0S39.76,15.54,39.77,15.54Z"/><path class="cls-3" d="M42.05,17.1s.06,0,.05,0,0,0,0,0,0,0,0,0S42,17.1,42.05,17.1Z"/><path class="cls-3" d="M43.25,14.53s.06,0,0,0,0,0,0,0,0,0,0,0S43.23,14.53,43.25,14.53Z"/><path class="cls-3" d="M41.87,12.55s.06,0,.05,0l0,0s0,0,0,0S41.85,12.55,41.87,12.55Z"/><path class="cls-3" d="M44.66,18.78s.06,0,.05,0,0,0,0,0,0,0,0,0S44.65,18.78,44.66,18.78Z"/><path class="cls-3" d="M44,16.66s.1,0,.09.06,0,.06-.06.07-.08,0-.08-.05S44,16.66,44,16.66Z"/><g class="cls-4"><path class="cls-3" d="M50.75,30.18s.08,0,.06.05,0,0,0,.05a0,0,0,0,1-.05,0S50.73,30.18,50.75,30.18Z"/><path class="cls-3" d="M51.51,30.86s.08,0,.07,0,0,.05,0,.05-.05,0-.05,0S51.49,30.86,51.51,30.86Z"/><path class="cls-3" d="M51.86,28.37s.07,0,.06.05,0,0,0,0a0,0,0,0,1-.05,0A0,0,0,0,1,51.86,28.37Z"/><path class="cls-3" d="M54,28.24s.07,0,.06.05,0,.05,0,.05a.05.05,0,0,1-.06,0A.06.06,0,0,1,54,28.24Z"/><path class="cls-3" d="M49.22,28.07s.07,0,.06.05,0,0,0,0a0,0,0,0,1-.06,0S49.19,28.07,49.22,28.07Z"/><path class="cls-3" d="M50.21,29.07s.07,0,.06.05,0,0-.05,0a0,0,0,0,1,0,0S50.18,29.07,50.21,29.07Z"/><path class="cls-3" d="M49.73,26.79s.07,0,.06.05,0,0,0,0a0,0,0,0,1,0,0S49.7,26.79,49.73,26.79Z"/><path class="cls-3" d="M51.41,27.41a0,0,0,0,1,0,0s0,0,0,0l0,0S51.39,27.41,51.41,27.41Z"/><path class="cls-3" d="M51.11,29.18h0s0,0,0,0Z"/><path class="cls-3" d="M50.37,28.27s0,0,0,0l0,0s0,0,0,0S50.35,28.27,50.37,28.27Z"/><path class="cls-3" d="M52,29.46s0,0,0,0,0,0,0,0,0,0,0,0S52,29.46,52,29.46Z"/><path class="cls-3" d="M52.81,27.53s0,0,0,0,0,0,0,0a0,0,0,0,1,0,0S52.79,27.53,52.81,27.53Z"/><path class="cls-3" d="M51.83,26a0,0,0,0,1,0,0s0,0,0,0a0,0,0,0,1,0,0S51.81,26,51.83,26Z"/><path class="cls-3" d="M53.82,30.74s0,0,0,0,0,0,0,0l0,0S53.81,30.74,53.82,30.74Z"/><path class="cls-3" d="M53.35,29.14s.07,0,.06.05,0,0,0,0a0,0,0,0,1,0,0S53.32,29.14,53.35,29.14Z"/></g><path class="cls-3" d="M43,40.59s.11,0,.1,0,0,.06,0,.08a.06.06,0,0,1-.08,0A.06.06,0,0,1,43,40.59Z"/><path class="cls-3" d="M44.33,41.09s.11,0,.1,0,0,.06,0,.08a.06.06,0,0,1-.08,0A.07.07,0,0,1,44.33,41.09Z"/><path class="cls-3" d="M43.8,37.8s.11,0,.1,0,0,.06,0,.08a.06.06,0,0,1-.09,0S43.76,37.81,43.8,37.8Z"/><path class="cls-3" d="M46.59,36.68s.11,0,.1,0,0,.07,0,.08a.05.05,0,0,1-.08,0A.06.06,0,0,1,46.59,36.68Z"/><path class="cls-3" d="M40.11,38.61s.11,0,.1,0,0,.06,0,.08a.06.06,0,0,1-.08,0A.07.07,0,0,1,40.11,38.61Z"/><path class="cls-3" d="M41.85,39.43s.11,0,.1,0,0,.06,0,.08a.09.09,0,0,1-.09,0S41.81,39.44,41.85,39.43Z"/><path class="cls-3" d="M40.29,36.76s.11,0,.1,0,0,.07,0,.08-.08,0-.09,0A.07.07,0,0,1,40.29,36.76Z"/><path class="cls-3" d="M42.8,36.79s.05,0,.05,0,0,0,0,0a0,0,0,0,1,0,0S42.78,36.8,42.8,36.79Z"/><path class="cls-3" d="M43.11,39.15h0v0h0S43.11,39.16,43.11,39.15Z"/><path class="cls-3" d="M41.74,38.35s.06,0,.06,0,0,0,0,0,0,0-.05,0S41.73,38.35,41.74,38.35Z"/><path class="cls-3" d="M44.39,39.11s.06,0,.06,0,0,0,0,0,0,0,0,0S44.38,39.12,44.39,39.11Z"/><path class="cls-3" d="M44.73,36.3s.06,0,.05,0a0,0,0,0,1,0,0s0,0,0,0S44.71,36.31,44.73,36.3Z"/><path class="cls-3" d="M42.8,34.85s.06,0,.06,0,0,0,0,0a0,0,0,0,1-.05,0S42.79,34.85,42.8,34.85Z"/><path class="cls-3" d="M47.4,39.9s.06,0,.05,0a0,0,0,0,1,0,0s0,0,0,0S47.38,39.91,47.4,39.9Z"/><path class="cls-3" d="M46.12,38.09s.11,0,.1,0,0,.07,0,.08a.06.06,0,0,1-.09,0S46.08,38.1,46.12,38.09Z"/><g class="cls-5"><path class="cls-3" d="M36.07,21.19s0,.08-.06.07-.06,0-.06-.06a.06.06,0,0,1,0-.06A.08.08,0,0,1,36.07,21.19Z"/><path class="cls-3" d="M35.23,22.05s0,.08-.06.07-.05,0-.05-.05a0,0,0,0,1,0-.06S35.23,22,35.23,22.05Z"/><path class="cls-3" d="M38.19,22.52s0,.09-.06.07-.05,0-.05-.05a0,0,0,0,1,0-.06S38.19,22.49,38.19,22.52Z"/><path class="cls-3" d="M38.27,25s0,.09-.06.07-.06,0-.06-.05a.06.06,0,0,1,.05-.06S38.26,24.93,38.27,25Z"/><path class="cls-3" d="M38.65,19.48s0,.08-.06.07-.05,0-.05-.06a.06.06,0,0,1,.05-.06S38.65,19.45,38.65,19.48Z"/><path class="cls-3" d="M37.42,20.59s0,.08-.06.07,0,0,0-.05a0,0,0,0,1,0-.06S37.42,20.56,37.42,20.59Z"/><path class="cls-3" d="M40.17,20.11s0,.08-.06.07,0,0-.06-.05,0-.06.05-.06S40.17,20.08,40.17,20.11Z"/><path class="cls-3" d="M39.36,22s0,.05,0,0,0,0,0,0,0,0,0,0S39.36,22,39.36,22Z"/><path class="cls-3" d="M37.26,21.63a0,0,0,0,1,0,0h0a0,0,0,0,1,0,0Z"/><path class="cls-3" d="M38.37,20.8a0,0,0,0,1,0,0s0,0,0,0,0,0,0,0S38.37,20.78,38.37,20.8Z"/><path class="cls-3" d="M36.89,22.63s0,0,0,0l0,0s0,0,0,0S36.89,22.61,36.89,22.63Z"/><path class="cls-3" d="M39.17,23.64a0,0,0,0,1,0,0s0,0,0,0,0,0,0,0S39.17,23.62,39.17,23.64Z"/><path class="cls-3" d="M41,22.55s0,0,0,0,0,0,0,0a0,0,0,0,1,0,0S41,22.54,41,22.55Z"/><path class="cls-3" d="M35.28,24.72a0,0,0,0,1,0,0l0,0a0,0,0,0,1,0,0S35.28,24.7,35.28,24.72Z"/><path class="cls-3" d="M37.22,24.22s0,.09-.06.07,0,0-.06-.05a.06.06,0,0,1,0-.06S37.22,24.19,37.22,24.22Z"/></g><g class="cls-6"><path class="cls-3" d="M43.31,9.38s0,.08-.06.06,0,0,0,0,0-.05,0-.06S43.31,9.34,43.31,9.38Z"/><path class="cls-3" d="M42.48,10.24s0,.08-.06.07-.06,0-.06-.06a.06.06,0,0,1,0-.06A.09.09,0,0,1,42.48,10.24Z"/><path class="cls-3" d="M45.44,10.71s0,.08-.06.07-.06,0-.06,0a.06.06,0,0,1,0-.06A.07.07,0,0,1,45.44,10.71Z"/><path class="cls-3" d="M45.51,13.15s0,.08-.06.07-.05,0-.05-.05a0,0,0,0,1,0-.06S45.51,13.12,45.51,13.15Z"/><path class="cls-3" d="M45.9,7.67s0,.08-.06.06-.05,0-.06-.05a.06.06,0,0,1,0-.06S45.9,7.63,45.9,7.67Z"/><path class="cls-3" d="M44.67,8.78s0,.08-.06.07-.06,0-.06,0a.06.06,0,0,1,.05-.06A.06.06,0,0,1,44.67,8.78Z"/><path class="cls-3" d="M47.41,8.3s0,.08-.06.07-.05,0-.05-.06a.06.06,0,0,1,.05-.06S47.41,8.26,47.41,8.3Z"/><path class="cls-3" d="M46.61,10.21s0,0,0,0,0,0,0,0a0,0,0,0,1,0,0S46.61,10.2,46.61,10.21Z"/><path class="cls-3" d="M44.5,9.82s0,0,0,0v0h0Z"/><path class="cls-3" d="M45.61,9s0,0,0,0l0,0a0,0,0,0,1,0,0S45.61,9,45.61,9Z"/><path class="cls-3" d="M44.13,10.81s0,0,0,0,0,0,0,0a0,0,0,0,1,0,0Z"/><path class="cls-3" d="M46.41,11.83s0,0,0,0l0,0a0,0,0,0,1,0,0S46.41,11.81,46.41,11.83Z"/><path class="cls-3" d="M48.25,10.74a0,0,0,0,1,0,0l0,0s0,0,0,0S48.25,10.72,48.25,10.74Z"/><path class="cls-3" d="M42.53,12.91s0,0,0,0,0,0,0,0,0,0,0,0S42.53,12.89,42.53,12.91Z"/><path class="cls-3" d="M44.46,12.41s0,.08-.06.07,0,0,0-.05a.06.06,0,0,1,0-.06S44.46,12.38,44.46,12.41Z"/></g><path class="cls-3" d="M26.78,18.82s0,.09,0,.08,0,0-.05,0a0,0,0,0,1,0-.07S26.77,18.8,26.78,18.82Z"/><path class="cls-3" d="M26.5,19.8s0,.08,0,.07a.06.06,0,0,1-.06,0s0-.05,0-.06S26.49,19.77,26.5,19.8Z"/><path class="cls-3" d="M28.78,19.41s0,.08,0,.07-.05,0-.06,0a0,0,0,0,1,0-.06A0,0,0,0,1,28.78,19.41Z"/><path class="cls-3" d="M29.73,21.5s0,.09,0,.08-.05,0-.06,0,0-.06,0-.07A.1.1,0,0,1,29.73,21.5Z"/><path class="cls-3" d="M28,16.64s0,.08,0,.07,0,0-.06,0,0-.05,0-.06A0,0,0,0,1,28,16.64Z"/><path class="cls-3" d="M27.53,17.94s0,.08,0,.07a.06.06,0,0,1-.06,0,0,0,0,0,1,0-.06A0,0,0,0,1,27.53,17.94Z"/><path class="cls-3" d="M29.32,16.77s0,.09,0,.08-.05,0-.06,0,0-.05,0-.06A.06.06,0,0,1,29.32,16.77Z"/><path class="cls-3" d="M29.44,18.66s0,0,0,0,0,0,0,0,0,0,0,0A0,0,0,0,1,29.44,18.66Z"/><path class="cls-3" d="M27.79,18.89s0,0,0,0h0S27.79,18.88,27.79,18.89Z"/><path class="cls-3" d="M28.28,17.86s0,.05,0,0h0s0,0,0,0Z"/><path class="cls-3" d="M27.89,19.85s0,0,0,0,0,0,0,0,0,0,0,0A0,0,0,0,1,27.89,19.85Z"/><path class="cls-3" d="M29.89,20.11s0,0,0,0,0,0,0,0a0,0,0,0,1,0,0S29.88,20.1,29.89,20.11Z"/><path class="cls-3" d="M30.8,18.67s0,0,0,0,0,0,0,0a0,0,0,0,1,0,0S30.79,18.65,30.8,18.67Z"/><path class="cls-3" d="M27.51,22.1s0,0,0,0,0,0,0,0,0,0,0,0Z"/><path class="cls-3" d="M28.71,21.14s0,.09,0,.08,0,0-.06,0,0-.05,0-.06S28.7,21.12,28.71,21.14Z"/><g class="cls-7"><path class="cls-3" d="M35.31,42.61s.07-.07.08,0,0,0,0,.08a.06.06,0,0,1-.07,0S35.3,42.64,35.31,42.61Z"/><path class="cls-3" d="M36.41,42.05s.07-.07.08,0,0,0,0,.07,0,.06-.07.05A.07.07,0,0,1,36.41,42.05Z"/><path class="cls-3" d="M34.3,40.3s.07-.07.08,0,0,0,0,.08,0,.06-.07.05A.06.06,0,0,1,34.3,40.3Z"/><path class="cls-3" d="M35.47,37.69s.07-.07.08,0,0,0,0,.08,0,.06-.07.05A.07.07,0,0,1,35.47,37.69Z"/><path class="cls-3" d="M32.39,43.32s.08-.07.09,0,0,0,0,.07,0,.06-.06,0A.06.06,0,0,1,32.39,43.32Z"/><path class="cls-3" d="M33.93,42.67s.08-.07.09-.05,0,.05,0,.08,0,0-.06,0A.06.06,0,0,1,33.93,42.67Z"/><path class="cls-3" d="M31.51,42s.07-.07.08-.05,0,.05,0,.08a.06.06,0,0,1-.07,0A.06.06,0,0,1,31.51,42Z"/><path class="cls-3" d="M33.12,40.33s0,0,0,0,0,0,0,0,0,0,0,0S33.11,40.35,33.12,40.33Z"/><path class="cls-3" d="M34.59,41.64a0,0,0,0,0,0,0s0,0,0,0h0Z"/><path class="cls-3" d="M33.29,42.05s0,0,0,0,0,0,0,0l0,0S33.28,42.06,33.29,42.05Z"/><path class="cls-3" d="M35.38,40.74s0,0,0,0,0,0,0,0,0,0,0,0S35.38,40.76,35.38,40.74Z"/><path class="cls-3" d="M34.08,38.71s0,0,.05,0,0,0,0,0l0,0A.05.05,0,0,1,34.08,38.71Z"/><path class="cls-3" d="M32.08,39.08s0,0,0,0,0,0,0,0,0,0,0,0S32.07,39.1,32.08,39.08Z"/><path class="cls-3" d="M37.72,39.21s0,0,0,0,0,0,0,0a.05.05,0,0,1,0,0S37.71,39.23,37.72,39.21Z"/><path class="cls-3" d="M35.93,38.92s.07-.08.08-.05,0,0,0,.08S36,39,36,39,35.91,39,35.93,38.92Z"/></g><g class="cls-7"><path class="cls-3" d="M39,29.34s-.05-.08,0-.09,0,0,.08,0,0,.06,0,.08A.05.05,0,0,1,39,29.34Z"/><path class="cls-3" d="M38.67,28.15s-.06-.09,0-.1,0,0,.08,0a.06.06,0,0,1,0,.07S38.7,28.17,38.67,28.15Z"/><path class="cls-3" d="M36.47,29.79s0-.09,0-.09.05,0,.08,0,0,.06,0,.08A.06.06,0,0,1,36.47,29.79Z"/><path class="cls-3" d="M34.21,28s-.06-.09,0-.09,0,0,.08,0a.07.07,0,0,1,0,.08A.06.06,0,0,1,34.21,28Z"/><path class="cls-3" d="M39,32.35s-.05-.09,0-.09.05,0,.08,0,0,.05,0,.07A.06.06,0,0,1,39,32.35Z"/><path class="cls-3" d="M38.69,30.7s-.06-.09,0-.1.05,0,.08,0a.06.06,0,0,1,0,.07S38.72,30.72,38.69,30.7Z"/><path class="cls-3" d="M37.49,32.9s-.06-.08,0-.09,0,0,.08,0a.07.07,0,0,1,0,.08A.06.06,0,0,1,37.49,32.9Z"/><path class="cls-3" d="M36.23,31s0-.05,0-.05h0s0,0,0,0S36.24,31,36.23,31Z"/><path class="cls-3" d="M37.84,29.82s0,0,0,0h0a0,0,0,0,1,0,0Z"/><path class="cls-3" d="M37.93,31.18s0-.05,0-.05h0s0,0,0,0S38,31.19,37.93,31.18Z"/><path class="cls-3" d="M37.15,28.84s0-.05,0-.05h0a0,0,0,0,1,0,0S37.17,28.85,37.15,28.84Z"/><path class="cls-3" d="M34.87,29.63s0-.05,0-.05h0a0,0,0,0,1,0,0S34.89,29.64,34.87,29.63Z"/><path class="cls-3" d="M34.77,31.66s0,0,0-.05h0s0,0,0,0A0,0,0,0,1,34.77,31.66Z"/><path class="cls-3" d="M36.21,26.21s0,0,0-.05,0,0,0,0,0,0,0,0S36.22,26.22,36.21,26.21Z"/><path class="cls-3" d="M35.5,27.88s0-.08,0-.09.05,0,.08,0a.06.06,0,0,1,0,.08A.06.06,0,0,1,35.5,27.88Z"/></g><path class="cls-3" d="M27.45,31s.08,0,.06.07,0,0-.07,0a.06.06,0,0,1-.06-.05A.07.07,0,0,1,27.45,31Z"/><path class="cls-3" d="M28.27,31.93s.09.05.07.06,0,.05-.07,0a.06.06,0,0,1-.06-.05A.05.05,0,0,1,28.27,31.93Z"/><path class="cls-3" d="M29.4,29.43s.09.05.07.07,0,0-.07,0a.06.06,0,0,1-.06-.05S29.37,29.42,29.4,29.43Z"/><path class="cls-3" d="M32.23,29.87s.09.05.07.07,0,0-.07,0-.06,0-.06-.06A.06.06,0,0,1,32.23,29.87Z"/><path class="cls-3" d="M26,28.39s.09.05.07.07,0,0-.07,0-.07,0-.06,0A.05.05,0,0,1,26,28.39Z"/><path class="cls-3" d="M27,29.7s.09.05.06.07,0,0-.07,0-.06,0-.06-.06A.08.08,0,0,1,27,29.7Z"/><path class="cls-3" d="M27,27.19s.08,0,.06.07,0,0-.07,0-.06,0-.06-.06A.08.08,0,0,1,27,27.19Z"/><path class="cls-3" d="M29.06,28.3s.05,0,0,0l0,0s0,0,0,0A0,0,0,0,1,29.06,28.3Z"/><path class="cls-3" d="M28.2,30.07h0A0,0,0,0,1,28.2,30.07Z"/><path class="cls-3" d="M27.46,28.91s0,0,0,0l0,0s0,0,0,0S27.44,28.91,27.46,28.91Z"/><path class="cls-3" d="M29.27,30.59s0,0,0,0l0,0s0,0,0,0S29.25,30.59,29.27,30.59Z"/><path class="cls-3" d="M30.89,28.8s0,0,0,0l0,0a0,0,0,0,1,0,0A0,0,0,0,1,30.89,28.8Z"/><path class="cls-3" d="M30,27s0,0,0,0,0,0,0,0,0,0,0,0S30,27,30,27Z"/><path class="cls-3" d="M31.36,32.44s.05,0,0,0,0,0,0,0l0,0A0,0,0,0,1,31.36,32.44Z"/><path class="cls-3" d="M31.17,30.64s.09.05.07.06,0,.05-.07,0a.06.06,0,0,1-.06,0A0,0,0,0,1,31.17,30.64Z"/><path class="cls-1" d="M183.5,60.94c.88,2.83-2,4.25-3.81,3.85a7.69,7.69,0,0,1-.77-.41,2.9,2.9,0,0,1-1.27-1.24,1.61,1.61,0,0,1-.15-.56A3.77,3.77,0,0,1,182.86,60a6.15,6.15,0,0,0,.56.53A1.25,1.25,0,0,1,183.5,60.94Z"/><path class="cls-8" d="M68.33,35.67a9.76,9.76,0,0,1-.06,1.19l-.63.06c-2.28.26-3.66,2.84-3.66,8.44v4.09a26.15,26.15,0,0,1-8.18,2.78c.19-.22.37-.46.57-.72a1.54,1.54,0,0,1-.18.22,24.1,24.1,0,0,0,2.27-3.47l1-1.82c.28-.63.56-1.24.85-1.85a6,6,0,0,0,.45-1.22l.11-.14.16-.78A12.4,12.4,0,0,1,61.54,41c.09-.25.2-.5.28-.79s.11-.6.15-1l-.08.18c.11-.51.28-1.6.31-1.51a1,1,0,0,1,0-.36h0a7.44,7.44,0,0,0,.09-1.25c.09-1,.13.16.23-1.26v0h5.72ZM63.47,26.3v.06l0-.27C63.48,26.16,63.48,26.22,63.47,26.3ZM50.66,35.67a9.76,9.76,0,0,0,.06,1.19l.63.06c2.27.26,3.66,2.84,3.66,8.44v4.4a43.86,43.86,0,0,1-7.13.63c-8.65,0-14.14-7-14.14-17.87s5.49-17.93,14.14-17.93a15.56,15.56,0,0,1,7.51,2C60.25,21.38,56,31,51.23,29.12,49.58,28.49,52.65,24,45.57,20a9.7,9.7,0,0,0-2,6.35c.06,4.41,4.48,6.23,9,6.23a15.1,15.1,0,0,0,6-1.13A12.48,12.48,0,0,0,63.13,29l-.09.72c-.14,1.38-.34,2.72-.56,4v.08l0,0v.48a2.53,2.53,0,0,0,.09-.56,5.43,5.43,0,0,1,0,1.28h-12ZM38,39l-.06.09.09.06.06-.08Zm.8-2,0,.09.08.06.07-.08ZM50.32,16.68l0-.08-.07,0,0,.06ZM39.5,40.56l-.06.09.09.06.07-.08Zm.25-1.25,0,0,.05,0,0,0Zm.6,3-.05.09.08.06.07-.07Zm.57-1.57h0ZM41.38,38l0,.05,0,0,0,0Zm.17,5.38-.06.1.09,0,.06-.07ZM42,35.8l0,.05,0,0,0,0Zm.05,3.67-.05.09.08.06.07-.07Zm.19,1.7,0,0,0,0,0,0Zm1.29-3,0,.05.05,0,0,0Zm.86,2.52-.06.09.09.06.06-.08Zm.74,2.5,0,0,0,0,0,0Zm.23-3.9-.06.09.08.06.07-.07ZM63.25,28.1v-.18l.09-.73a.85.85,0,0,1,0,.24c.12-.52,0-.47.14-.92,0-.05,0,0,0,0v0l0-.52s0,0,0,0,0,0,0,.08c.14-.86.07-1.41.15-1.74v.08c0-.7,0-.69,0-.68s0,0,0,0c0-.2,0-.4,0-.61l.11-.45-.08-.12c0-.14,0-.4,0-.36,0-.27,0-.22,0-.16s0,.09,0,0c0-.65-.32-1.75-.28-1.91s0,0,0,.09.06.25-.07-.14c.06-.22-.26-.75-.44-1.32.14.14.3.69.14.11-.23-.29-.47-1.06-.75-1.48a16.1,16.1,0,0,1-.93-1.67,12.54,12.54,0,0,0-.7-1.28,15.29,15.29,0,0,1,2,1.17c.45.32.82.63,1.2.95v.12c3.79,3.73,3.21,9-.59,12.29,0-.31.07-.61.11-.91Zm-15.62-16c-1.13,0-2.23.06-3.29.15h0c0-.06-.08-.08-.15-.07s-.06.06-.08.1c-10.64,1-18,6.22-20.39,14.26h-.07a.08.08,0,0,0-.07.09c0,.05.05.06.09.08h0a21.15,21.15,0,0,0-.8,5.85,19.32,19.32,0,0,0,3.34,11.22,18.64,18.64,0,0,0,1.42,1.77,19.13,19.13,0,0,0,2,1.91c1.48,1.57,4,2.59,6,3.44.67.28,1.35.53,2,.75a25,25,0,0,0,6.53,1.2c1.19.11,2.43.16,3.7.16a42.72,42.72,0,0,0,7.92-.74c-.49.6-.93,1.11-1.32,1.63l-.85,1.07a10.9,10.9,0,0,1-1.1,1l.09-.11c-.42.4-.36.34-.31.27s.08-.12-.2.12a10.11,10.11,0,0,1-1.44,1.42c.07-.07.25-.19.38-.33a2.07,2.07,0,0,0-.41.26,29.23,29.23,0,0,1-2.56,2.11c-.15,0-1,.48-1.47.67-.13.73-.52.84-1,.86a13.49,13.49,0,0,1-2,1,2.06,2.06,0,0,0-.72.29l-.55.19a1,1,0,0,0,.37-.08,2.49,2.49,0,0,1-1.39.59v-.51l-3.07,1.53v-.51c-4.09,2-8.17,1.53-12.26,1.53h.51c-7.15-1-11.24-7.13-16.78-10a14.36,14.36,0,0,1-1.48-1.32C6.44,52.05,5.08,49.67,3,48v1c-.51-1-1-1.53-1-2.55h.51c-1-3-3.57-6.11-2-9.67v-1C0,32.61.77,29.07,1,25.83a5.14,5.14,0,0,1,.15-2.49c.24-.83.6-1.6.8-2.37a27.64,27.64,0,0,1,1-2.83c3.27-8.3,10.35-14.63,19.08-16v0a8.42,8.42,0,0,1,1.28-.29,5.78,5.78,0,0,0,2.15-.68c1.24.24,2.12-.47,2.86-.58,1,0,1.91.45,2.4-.52h6.64c3.06-.51,5.62,1,8.17,2h-.51c1,.51,1.53,1,2.56,1H47a4,4,0,0,1,.83.37l.06,0,.07,0A7.9,7.9,0,0,0,50.34,5V5c1.1.57,2.16,1.39,3.2,2.07l0,0L53.51,7c-.3-.31.79.55,1.12.76a.89.89,0,0,0,.23.24s.38.3.54.39c.3.3-.1,0,.46.51.21.18.26.18.25.14.1.12.43.45.69.74-.11-.08-.24-.24-.31-.3s.14.16.1.19c.24.25.14,0,.43.38l-.32-.25c.11.13.28.27.34.33a.53.53,0,0,0-.14-.1c.12.11.23.23.34.35,0,0-.13-.27-.08-.28.65.69,1.16,1.23,1.64,1.79l-.14-.07a4.08,4.08,0,0,0,.46.47c.12.14.23.29.34.44-.21-.24-.29-.31-.34-.3a13.7,13.7,0,0,0,1,1.2l0,0c.14.21.31.48.48.77C57.54,12.91,53.32,11.92,47.63,12.07ZM46.25,60.7h0Zm-11.1-3.12,0-.06-.08,0,0,.07Zm-1.36-5s.08.06.14,0,0-.07.06-.12-.11-.08-.16-.06A.11.11,0,0,0,33.79,52.59Zm-.74,2.21a.09.09,0,0,0,.13,0c.06,0,0-.07.07-.12s-.11-.08-.16-.05S33,54.75,33.05,54.8ZM31,52l0-.07-.09,0v.08Zm-.59,4.3v.08l.07,0,0-.07Zm-.13,3.23a.1.1,0,0,0,.13,0c.06,0,.05-.08.07-.13s-.11-.07-.16,0A.1.1,0,0,0,30.25,59.49Zm-.84-5.15s.08.06.14,0,.05-.08.06-.13-.11-.07-.16,0A.11.11,0,0,0,29.41,54.34Zm-1,2,0,0h0l0,0Zm-.17,2.38s.08.06.14,0,0-.08.06-.13-.11-.07-.16,0A.1.1,0,0,0,28.21,58.7Zm-.32-9.11,0,.08.07,0,0-.07Zm0,3.13,0-.07-.08,0,0,.08Zm-1.58,4.17a.1.1,0,0,0,.14,0c.05,0,.05-.07.06-.12s-.1-.08-.16,0A.11.11,0,0,0,26.35,56.89Zm-.07-1.74,0-.06-.08,0,0,.07Zm-2.37-2.43a.1.1,0,0,0,.13,0c.06,0,.05-.07.06-.13s-.1-.07-.16-.05A.11.11,0,0,0,23.91,52.72Zm-.28,2.9a.1.1,0,0,0,.14,0c.05,0,.05-.07.06-.12s-.11-.08-.16-.05S23.61,55.57,23.63,55.62ZM1.22,23.6c.07-.33.18-.66.2-.84A3.46,3.46,0,0,0,1.22,23.6Zm.31,15.9a.09.09,0,0,0-.1.08s0,.07.09.08.08,0,.12-.06S1.59,39.5,1.53,39.5ZM2.23,26l0,.1.09.05,0-.12Zm.44-1.52,0,.1.09.05,0-.12ZM6.88,41.29A.14.14,0,0,0,7,41.23s0-.1-.1-.11a.09.09,0,0,0-.1.08S6.82,41.28,6.88,41.29Zm.06-17-.06,0v.06l0,0ZM6.67,43l0,0,0-.06,0,.05Zm-3.53-5.4a.09.09,0,0,0-.1.08s0,.07.09.08.08,0,.11-.06S3.2,37.63,3.14,37.63Zm0,3.92a.09.09,0,0,0-.1.08s0,.08.09.08.08,0,.11-.06S3.21,41.56,3.16,41.55Zm.56,2.13s0,.08.09.08.07,0,.11,0,0-.1-.11-.11A.08.08,0,0,0,3.72,43.68Zm.19-14-.05,0v.06l0,0ZM3.83,40.41l.06,0-.06,0-.05,0Zm0-17.28,0,.11.09,0,0-.12Zm.51,1.52h0v0h0Zm.1,1.49v.05l0,0v-.06Zm.13-5,0,.1.09.05,0-.12Zm.4,21H5ZM5.07,23v.06l.05,0,0-.06Zm0,22a.09.09,0,0,0-.1.08s0,.07.1.08.07,0,.11-.06S5.17,45,5.11,45Zm.56-16.78.1,0,0-.12-.1,0Zm.14-2.82,0,.1.09,0,0-.12Zm.54,13.93,0,0,0,.05.06,0Zm.22-19.29-.06.07.06.07.08-.08Zm.07,1.25v.1l.09,0,0-.12Zm.22-7.83c-.06,0-.11.07-.11.14s.06.1.11.14.14-.08.14-.16A.14.14,0,0,0,6.86,13.49Zm.43,15.22,0,.1.09,0,0-.11Zm.3-2.17v.06l0,0v-.06Zm.22,10.74,0,0,0,0,.06,0Zm1-25.72a.13.13,0,0,0-.11.14c0,.07.06.09.11.13s.15-.08.15-.15S8.9,11.56,8.84,11.56ZM9,24.29v.05l.05,0V24.3ZM19.51,61.47l-.09-.07ZM19,40.2l.07,0,0-.06H19ZM16.45,54.15h0s.06,0,.08-.08,0-.08,0-.12h0a.19.19,0,0,0-.11.09A.09.09,0,0,0,16.45,54.15Zm-.4-20.33.05-.06-.06,0,0,.05Zm-.76,10.79h.07l0-.06h-.07ZM9.21,40.15l-.05,0,0,0,.06,0ZM9.65,43a.08.08,0,0,0-.09.08s0,.08.09.08.08,0,.11-.05S9.71,43,9.65,43Zm.3,2.82,0,0,0,0,.06,0Zm.51-30.54-.06.07.06.07.08-.08Zm.38,3.89c-.06,0-.11.07-.11.14s.06.1.11.14.15-.08.15-.16S10.9,19.18,10.84,19.18Zm.48,22.64a.09.09,0,0,0-.1.08s0,.07.09.08.08,0,.11-.06S11.37,41.82,11.32,41.82ZM11.5,13V13l0,0Zm.42-2.6a.13.13,0,0,0-.11.14c0,.07.06.09.11.14s.14-.08.14-.16A.13.13,0,0,0,11.92,10.37ZM13,21.2a.12.12,0,0,0-.11.13c0,.08.06.1.11.14s.14-.08.14-.16S13.07,21.2,13,21.2Zm.26-6a.13.13,0,0,0-.11.14c0,.07.06.09.11.14s.15-.09.15-.16S13.33,15.23,13.27,15.23Zm.76-4.1L14,11.2l.06.07.08-.08Zm.26,44.46-.07,0,0,.06.06,0Zm.21-16.78-.05,0-.08,0s0,.11,0,.14l.05,0a.12.12,0,0,0,.08,0S14.54,38.85,14.5,38.81ZM14.66,58a.15.15,0,0,0-.1.09.08.08,0,0,0,0,.11s0,0,0,0,.06,0,.08-.07,0-.09,0-.13ZM14.82,7.9a.13.13,0,0,0-.11.14c0,.07.06.09.11.13S15,8.09,15,8A.13.13,0,0,0,14.82,7.9Zm.47,10.3-.06.07.06.07.08-.08Zm.21,23.15h-.06l0,.08h.06Zm.41-11.83a.08.08,0,0,0-.07.1s.05.05.08.08h0s.08-.07.08-.11-.06-.07-.1-.07ZM16,14.3l-.06.08.06.07.08-.08Zm.34,44.47-.07,0,0,.06.06,0Zm.2-20.21H16.4s0,.11.05.15h.05a.08.08,0,0,0,.07,0S16.58,38.6,16.53,38.56Zm.63,17.51h0a.12.12,0,0,0,.09-.07s0-.08,0-.12a0,0,0,0,0,0,0,.19.19,0,0,0-.11.09A.11.11,0,0,0,17.16,56.07Zm.07-27.9h0a.08.08,0,0,0-.07.09c0,.05.05.06.09.08h0s.08-.07.08-.11S17.27,28.17,17.23,28.17ZM17.59,36h-.06l0,.08.06,0Zm0,7.4h-.06l0,.07h.07ZM17.92,61h0A.09.09,0,0,0,18,60.9s0-.08,0-.12h0a.13.13,0,0,0-.11.08A.09.09,0,0,0,17.92,61Zm0-19.28H18a.11.11,0,0,0,.08,0,.1.1,0,0,0,0-.12.06.06,0,0,0-.05,0l-.08,0S17.92,41.66,18,41.69Zm.07-32a.13.13,0,0,0-.11.14c0,.08.06.1.11.14s.15-.08.15-.16S18.09,9.73,18,9.73Zm.53,20.73,0,.05.05,0,.05-.06ZM19,32.92h0A.07.07,0,0,0,19,33c0,.05,0,.06.08.08h0s.08-.07.08-.11A.1.1,0,0,0,19,32.92Zm.14-4h0v0Zm.17-1.69h0a.1.1,0,0,0-.08.1c0,.05.05.05.09.08h0a.11.11,0,0,0,.08-.11S19.4,27.24,19.35,27.24Zm.15-11.33-.06.07.06.07.08-.08Zm.14,30.5-.05,0-.07,0c-.05,0,0,.11,0,.14l.05,0a.08.08,0,0,0,.07,0S19.69,46.44,19.64,46.41Zm.34,10-.07,0,0,.06.06,0Zm.13-14.66h0v0h0Zm.19,2.07h-.07l0,.08h.07Zm.18-13.42s.05.05.09.08h0s.08-.07.08-.11-.05-.07-.1-.07h0A.1.1,0,0,0,20.48,30.36ZM20.58,19a.11.11,0,0,0-.08.12.1.1,0,0,0,.12.08c.06,0,.07-.06.1-.1S20.64,19,20.58,19Zm.1,15.06h0a.07.07,0,0,0-.07.09s0,.06.08.08h0s.08-.07.08-.12A.1.1,0,0,0,20.68,34.08Zm.2-6.48,0,0,.05,0,.05-.05Zm.41-2.1h0a.08.08,0,0,0-.07.1s0,0,.08.08h0s.08-.07.08-.11A.1.1,0,0,0,21.29,25.5ZM21.49,39a.06.06,0,0,0,0,0l-.08,0s0,.11.05.14h0s.07,0,.08,0S21.53,39,21.49,39Zm0,4h-.13s0,.11.05.14l0,0a.09.09,0,0,0,.08,0S21.57,43,21.52,43Zm.22-26.6s-.08.07-.08.12a.11.11,0,0,0,.12.08c.06,0,.07-.06.1-.1S21.8,16.35,21.74,16.36Zm.19,24.49-.05,0-.07,0s0,.11,0,.14l0,0A.12.12,0,0,0,22,41,.09.09,0,0,0,21.93,40.85Zm0,4.69h-.12s0,.11,0,.14a.06.06,0,0,0,.05,0,.12.12,0,0,0,.08,0S22,45.58,22,45.54ZM22.14,32l0,.05,0,0,.05-.06Zm.3-2.52,0,.05,0,0,.06-.06Zm.33-8.45c-.06,0-.08.08-.08.13a.11.11,0,0,0,.12.07c.06,0,.07-.05.1-.1S22.83,21.07,22.77,21.07Zm.37-1.65,0,.07.06,0,.05-.06Zm.83,4c-.06,0-.09.07-.08.12s.06.08.11.07.07-.05.1-.1S24,23.37,24,23.38Zm.82-2.09h0Zm.68-3.67,0,.06.06.05.05-.06Zm1-2.88,0,.07.06,0,.05-.06Zm0,4.87c-.06,0-.08.07-.08.12a.1.1,0,0,0,.12.07c.06,0,.07-.05.1-.1S26.53,19.6,26.47,19.61Zm.81-8.55h0a.08.08,0,0,0-.07.09s.05.06.08.08h0s.08-.07.08-.11A.1.1,0,0,0,27.28,11.06Zm.12,4.21,0,.05.05,0,.05-.06Zm1.21,2.67.05-.05-.07-.06,0,.07Zm0-8.23h0a.09.09,0,0,0-.07.1s0,.06.08.08h0s.08-.07.08-.11A.11.11,0,0,0,28.59,9.71ZM29.92,12l0,0,.05.05L30,12Zm.48,2.46h0a.08.08,0,0,0-.08.09s.05.06.09.08h0s.09-.07.09-.12A.1.1,0,0,0,30.4,14.46Zm.14-4v0Zm.17-1.68h0a.1.1,0,0,0-.07.1s.05,0,.09.08h0a.11.11,0,0,0,.08-.11S30.76,8.78,30.71,8.78Zm1.21,3h0s-.07,0-.07.09.05.06.09.09h0s.08-.07.08-.11S32,11.8,31.92,11.8ZM32,15.62h0a.07.07,0,0,0-.07.09s0,.06.08.08h0s.08-.07.08-.11A.1.1,0,0,0,32,15.62Zm.2-6.48,0,0,0,0,0-.05ZM32.65,7h0a.1.1,0,0,0-.08.1s0,.05.09.08h0s.09-.07.09-.11A.1.1,0,0,0,32.65,7Zm.85,6.54,0,.05,0,0,0-.06Zm.3-2.52,0,0,0,.05.05-.06ZM35,8h0a.08.08,0,0,0-.07.09c0,.05.05.06.09.08h0s.08-.07.08-.12S35.06,8,35,8Zm1.35,3.85,0,0,.05,0,0-.06Zm7.51-5.45-.05.07.09,0,0-.08ZM45.5,9.85c-.07,0-.07.08-.1.13s.1.1.17.09a.11.11,0,0,0,.07-.15C45.63,9.87,45.57,9.84,45.5,9.85ZM56.32,11a.11.11,0,0,0,.07-.15s-.07-.08-.14-.07-.07.08-.1.13S56.25,11,56.32,11ZM53.53,9.07a.12.12,0,0,0,.08-.15.12.12,0,0,0-.15-.06c-.06,0-.07.07-.09.12S53.47,9.09,53.53,9.07ZM53.36,11l0-.08-.07,0,0,.07ZM51.84,6.7c.06,0,.08-.09.07-.15s-.08-.08-.15-.06-.07.07-.09.12S51.77,6.72,51.84,6.7Zm-.63,2.45,0,0h0Zm-2.3-.44,0,.07.09.05,0-.08Zm.48,2.48c0,.05.1.11.17.09s.08-.09.07-.15a.11.11,0,0,0-.14-.06C49.42,11.09,49.42,11.14,49.39,11.19Zm.4-5.91a.13.13,0,0,0-.15-.07c-.06,0-.07.08-.09.13s.1.1.16.09A.13.13,0,0,0,49.79,5.28Zm-6.23,57,.08,0h.06Zm-.24.1c-.2.09-.39.19-.58.26l.18-.11ZM25.51,1.12l-.15.08A2.33,2.33,0,0,1,25,1.12ZM28.29.61h0Zm0,0,.1,0C28.48.6,28.4.61,28.29.61Zm19.65,3h0l-.13-.07ZM53.48,7l0,0,0,0Zm5.74,5.39-.1-.08L59,12.22Zm3.3,21.38,0,0v-.1ZM53,6.61c.13.09.25.19.37.29C53.17,6.75,52.93,6.61,53,6.61ZM7.71,9.46l-.16.16C7.37,9.5,7.62,9.48,7.71,9.46Zm0,0s0,0,0,0Z"/></g></g></svg>