<svg xmlns="http://www.w3.org/2000/svg" viewBox="0 0 385.89 61.2"><defs><style>.cls-1,.cls-7{fill:#1b7a71;}.cls-2{fill:#fff;}.cls-3{opacity:0.26;}.cls-4{opacity:0.58;}.cls-5{opacity:0.24;}.cls-6{opacity:0.54;}.cls-7{fill-rule:evenodd;}</style></defs><title>Asset 32</title><g id="Layer_2" data-name="Layer 2"><g id="Layer_4" data-name="Layer 4"><path class="cls-1" d="M63.53,48.23a8.76,8.76,0,0,1,.06-1.12l.53,0c2.24-.24,3.42-4.13,3.42-9.49,0-7.31-.53-8.72-3.42-10.31l-.53-.3a2.57,2.57,0,0,1-.06-.59L74.2,22h1.65v8.6c1.12-2.71,3.48-7.72,7-8.36,3.36-.59,4.89,1.29,5.43,4.42.35,2.47-1.66,4.47-3,4C83.87,30.14,82.51,29,80.86,29c-1.41,0-3,.89-5,3.83V38c0,5.25,1.3,8.84,3.42,9.08l.59,0a8.76,8.76,0,0,1,.06,1.12v.65H63.53Z"/><path class="cls-1" d="M88.46,35.45c0-8.37,5.78-13.73,14.91-13.73s14.79,5.36,14.79,13.73-5.77,13.73-14.79,13.73S88.46,43.81,88.46,35.45Zm14.91,11.78c3.54,0,5.84-4.59,5.84-11.78s-2.3-11.79-5.84-11.79-5.83,4.6-5.83,11.79S99.84,47.23,103.37,47.23Z"/><path class="cls-1" d="M115.28,22H131.9v.65a8.57,8.57,0,0,1-.06,1.12l-.53.06c-1.71.17-1.3,3.3.94,7.89l4.42,8.14,5.42-12c-1.88-2.65-3.18-3.94-4.77-4.12V22H154v.65a8.57,8.57,0,0,1-.06,1.12l-.59.06c-2,.17-1.53,3.83,1.35,9.07,1.24,2.24,2.54,4.6,3.72,6.9l3.18-6.9c2.42-5.24,2.36-8.9.06-9.07l-.77-.06V22.66a3,3,0,0,0-.06-.65h11.61v1.77l-.65.06c-2.24.17-5.36,3.89-8,9.07l-8.37,16.56h-1.35l-9-16.56a39.33,39.33,0,0,0-1.95-3.42l-9.48,20h-1.36l-8.9-16.56c-2.77-5.18-5.77-8.9-7.6-9.07l-.53-.06Z"/><path class="cls-1" d="M167.62,25.37v-.94c2.82-.59,7-4.54,10.54-10.08h1.36V22h7.84v3.36h-7.84s-.06,11.61-.06,16.74c0,2.59.65,3.24,2.95,3.24,1.06,0,3.24-.65,5.06-3.3l.59.76c-3.06,5.48-7.72,6.37-9.72,6.37-5.66,0-7.31-1.77-7.31-8.55V25.37Z"/><path class="cls-1" d="M198.67,9.4h1.65V25.78c1.65-2.06,5.25-4.06,9.79-4.06s6.36,3.53,6.36,9.07V38c0,5.25,1.3,8.84,3.42,9.08l.59,0a8.76,8.76,0,0,1,.06,1.12v.65H188.12V47.11l.54,0c2.12-.24,3.41-3.83,3.41-9.08V25c0-7.31-.59-8.72-3.47-10.32l-.53-.29a2.68,2.68,0,0,1-.06-.59Zm5.6,16c-1.12,0-2.47.76-4,2.77V38c0,5.25,1.36,8.84,3.42,9.08l.53,0h.18l.29,0c2.12-.42,3.42-3.83,3.42-9.08v-6.3C208.16,28.79,206.69,25.43,204.27,25.43Z"/><path d="M221.13,30c0-11.67,9.07-19.16,23.34-19.16,6.24,0,12,1.65,14.79,4.19l.41,8.78h-.77c-.35-.71-.82-1.53-1.18-2.24a15,15,0,0,0-13.25-8.37c-8.08,0-13.21,6.54-13.21,16.8s5.13,16.73,13.21,16.73a40.4,40.4,0,0,0,6.65-.59V42.05c0-5.25-1.29-8.84-3.41-9.08l-.59-.06a8.57,8.57,0,0,1-.06-1.12v-.65h16.5v.65a8.57,8.57,0,0,1-.06,1.12l-.59.06c-2.12.24-3.42,3.83-3.42,9.08v3.83c-3.36,2-9.25,3.3-15,3.3C230.2,49.18,221.13,41.69,221.13,30Z"/><path d="M263.74,22h12.37V39c0,2.77,1.89,4.54,5.66,4.54a2.72,2.72,0,0,0,2.12-1.12V33.33c.06-5.31-1.23-9.26-3.41-9.49l-.54-.06a10.26,10.26,0,0,1-.05-1.12V22H292.2V33.33c0,7.3.53,8.83,3.42,10.31l.59.29a2.68,2.68,0,0,1,.06.59L285.6,48.88h-1.71V44.05c-2.41,3.18-5.24,5.13-8.66,5.13-5,0-7.42-3.66-7.42-9.31v-7c0-5.24-1.3-8.84-3.42-9.07l-.59-.06a8.57,8.57,0,0,1-.06-1.12Z"/><path d="M296.57,48.23a8.76,8.76,0,0,1,.06-1.12l.53,0c2.23-.24,3.41-4.13,3.41-9.49,0-7.31-.53-8.72-3.41-10.31l-.53-.3a2.57,2.57,0,0,1-.06-.59L307.23,22h1.65v8.6c1.12-2.71,3.48-7.72,7-8.36,3.35-.59,4.89,1.29,5.42,4.42.35,2.47-1.65,4.47-2.95,4-1.47-.53-2.83-1.71-4.48-1.71-1.41,0-3,.89-5,3.83V38c0,5.25,1.3,8.84,3.42,9.08l.59,0a8.76,8.76,0,0,1,.06,1.12v.65H296.57Z"/><path d="M321.5,22h12.37V39c0,2.77,1.89,4.54,5.66,4.54a2.73,2.73,0,0,0,2.12-1.12V33.33c.06-5.31-1.24-9.26-3.42-9.49l-.53-.06a8.57,8.57,0,0,1-.06-1.12V22H350V33.33c0,7.3.53,8.83,3.42,10.31l.59.29a2.68,2.68,0,0,1,.06.59l-10.67,4.36h-1.71V44.05c-2.42,3.18-5.24,5.13-8.66,5.13-4.95,0-7.43-3.66-7.43-9.31v-7c0-5.24-1.29-8.84-3.42-9.07l-.58-.06a8.57,8.57,0,0,1-.06-1.12Z"/><path d="M354.56,39.75c.18,0,.35.06.71.06,1.18,3.24,4.3,7.72,8.6,7.72,2.83,0,4.66-1.59,4.66-4.07,0-1.65-1.95-3.48-4.95-4.65-5.31-2.07-8.79-5.72-8.79-8.78,0-5.07,4.72-8.9,12.38-8.9,2.42,0,6.42.88,8.25,2.94l-.24,6.49h-.88c-1.53-3-3.42-7.31-6.89-7.49s-5.66,1.95-5.72,4,3.18,3.36,8.19,5.36c3.71,1.47,6,4.72,6,7.9,0,5.6-4.89,9.13-12.61,9.13a14,14,0,0,1-8.43-2.65Z"/><path class="cls-2" d="M7.4,10.5c0,.07-.09.19-.13.15s-.11-.06-.11-.13a.12.12,0,0,1,.11-.13C7.32,10.39,7.4,10.43,7.4,10.5Z"/><path class="cls-2" d="M5.55,12.31c0,.08-.09.19-.14.15s-.1-.06-.1-.13a.12.12,0,0,1,.1-.13C5.47,12.2,5.55,12.24,5.55,12.31Z"/><path class="cls-2" d="M11.54,13.94c0,.07-.09.18-.14.15s-.1-.06-.1-.13,0-.13.1-.13S11.54,13.87,11.54,13.94Z"/><path class="cls-2" d="M11.29,19.53c0,.07-.09.18-.13.14s-.11-.05-.11-.12a.12.12,0,0,1,.11-.13C11.21,19.42,11.29,19.46,11.29,19.53Z"/><path class="cls-2" d="M13,7.07c0,.08-.09.19-.13.15s-.11-.06-.11-.13A.12.12,0,0,1,12.85,7C12.9,7,13,7,13,7.07Z"/><path class="cls-2" d="M10.27,9.39c0,.07-.09.18-.13.15S10,9.48,10,9.41a.12.12,0,0,1,.24,0Z"/><path class="cls-2" d="M16,8.79c0,.07-.09.19-.13.15s-.11-.06-.11-.13a.12.12,0,0,1,.11-.13C15.9,8.68,16,8.72,16,8.79Z"/><path class="cls-2" d="M14,13s0,.1-.07.08-.06,0-.06-.07a.07.07,0,0,1,.06-.07A.07.07,0,0,1,14,13Z"/><path class="cls-2" d="M9.76,11.74s0,0,0,0,0,0,0,0,0,0,0,0Z"/><path class="cls-2" d="M12.18,10s0,.1-.07.08-.06,0-.06-.07a.06.06,0,0,1,.06-.06S12.18,10,12.18,10Z"/><path class="cls-2" d="M8.85,13.94s0,.09-.07.08-.06,0-.06-.07a.07.07,0,0,1,.06-.07A.07.07,0,0,1,8.85,13.94Z"/><path class="cls-2" d="M13.36,16.67s0,.1-.08.08,0,0,0-.07,0-.07,0-.07S13.36,16.63,13.36,16.67Z"/><path class="cls-2" d="M17.29,14.52s-.05.1-.07.08-.06,0-.06-.07a.06.06,0,0,1,.06-.06S17.29,14.49,17.29,14.52Z"/><path class="cls-2" d="M5.22,18.42s0,.1-.07.08-.06,0-.06-.07,0-.07.06-.07A.07.07,0,0,1,5.22,18.42Z"/><path class="cls-2" d="M9.27,17.64c0,.07-.09.19-.14.15s-.1-.06-.1-.13,0-.13.1-.13S9.27,17.57,9.27,17.64Z"/><path class="cls-2" d="M47.41,5.84c-.07,0-.18,0-.16-.08s0-.1.09-.12.12,0,.13.06S47.47,5.83,47.41,5.84Z"/><path class="cls-2" d="M45.43,4.65c-.07,0-.18,0-.16-.08s0-.1.09-.12a.1.1,0,0,1,.13.06A.11.11,0,0,1,45.43,4.65Z"/><path class="cls-2" d="M45.28,10.13c-.06,0-.18,0-.16-.08s0-.1.09-.12a.12.12,0,0,1,.14.06S45.34,10.12,45.28,10.13Z"/><path class="cls-2" d="M40.34,11.14c-.06,0-.18,0-.16-.08s0-.11.09-.12a.11.11,0,0,1,.14.06A.12.12,0,0,1,40.34,11.14Z"/><path class="cls-2" d="M51.59,9.88c-.06,0-.18,0-.15-.09s0-.1.09-.11a.1.1,0,0,1,.13.06A.11.11,0,0,1,51.59,9.88Z"/><path class="cls-2" d="M49,8.06c-.06,0-.18,0-.16-.08s0-.1.09-.12.13,0,.14.06S49.05,8.05,49,8.06Z"/><path class="cls-2" d="M50.73,12.82c-.06,0-.18,0-.16-.08s0-.11.09-.12a.11.11,0,0,1,.14.06A.12.12,0,0,1,50.73,12.82Z"/><path class="cls-2" d="M46.61,12.05s-.09,0-.08,0,0-.06,0-.06a.05.05,0,0,1,.07,0S46.64,12.05,46.61,12.05Z"/><path class="cls-2" d="M46.83,8.14s0,0,0,0,0,0,0,0h0A0,0,0,0,1,46.83,8.14Z"/><path class="cls-2" d="M48.83,9.84s-.1,0-.09-.05,0,0,0-.06a.06.06,0,0,1,.07,0A.06.06,0,0,1,48.83,9.84Z"/><path class="cls-2" d="M44.71,7.83s-.1,0-.08,0,0-.06,0-.07.07,0,.07,0A.05.05,0,0,1,44.71,7.83Z"/><path class="cls-2" d="M43.28,12.29s-.1,0-.08,0,0-.05,0-.06.07,0,.07,0A.06.06,0,0,1,43.28,12.29Z"/><path class="cls-2" d="M46,15.19s-.09,0-.08,0,0-.06.05-.07a.06.06,0,0,1,.07,0A.05.05,0,0,1,46,15.19Z"/><path class="cls-2" d="M40,5.7s-.09,0-.08,0,0-.05,0-.06a.06.06,0,0,1,.07,0S40,5.69,40,5.7Z"/><path class="cls-2" d="M41.56,9c-.07,0-.18,0-.16-.08s0-.1.09-.12a.11.11,0,0,1,.13.07A.09.09,0,0,1,41.56,9Z"/><path class="cls-2" d="M21.39,21.46c.05,0,.15.05.12.09s0,.09-.09.09a.09.09,0,0,1-.11-.07S21.33,21.46,21.39,21.46Z"/><path class="cls-2" d="M23,22.75c.06,0,.16.06.13.1s0,.08-.09.09a.09.09,0,0,1-.11-.07A.1.1,0,0,1,23,22.75Z"/><path class="cls-2" d="M23.72,17.93c.06,0,.16.05.13.09s0,.09-.09.09-.11,0-.11-.07S23.67,17.93,23.72,17.93Z"/><path class="cls-2" d="M28.12,17.64c.06,0,.15.06.13.1s0,.08-.1.09a.08.08,0,0,1-.1-.07A.09.09,0,0,1,28.12,17.64Z"/><path class="cls-2" d="M18.22,17.38c.06,0,.16.06.13.09s0,.09-.09.1-.11,0-.11-.07A.1.1,0,0,1,18.22,17.38Z"/><path class="cls-2" d="M20.27,19.3c.05,0,.15.06.13.1s0,.08-.1.09a.11.11,0,0,1-.11-.07A.11.11,0,0,1,20.27,19.3Z"/><path class="cls-2" d="M19.31,14.89c.06,0,.15,0,.13.09s0,.09-.09.09-.11,0-.11-.07S19.26,14.89,19.31,14.89Z"/><path class="cls-2" d="M22.79,16.07s.08,0,.07.05,0,0-.05.05a.07.07,0,0,1-.06,0S22.76,16.07,22.79,16.07Z"/><path class="cls-2" d="M22.15,19.5h0S22.14,19.5,22.15,19.5Z"/><path class="cls-2" d="M20.62,17.75s.08,0,.06.05,0,.05,0,.05-.06,0-.06,0A.07.07,0,0,1,20.62,17.75Z"/><path class="cls-2" d="M24,20s.08,0,.07,0,0,.05-.05.05a.05.05,0,0,1-.06,0S23.92,20,24,20Z"/><path class="cls-2" d="M25.71,16.27s.07,0,.06.05,0,.05-.05.05,0,0,0,0A0,0,0,0,1,25.71,16.27Z"/><path class="cls-2" d="M23.69,13.37s.08,0,.06.05,0,.05,0,.05-.06,0-.06,0S23.66,13.37,23.69,13.37Z"/><path class="cls-2" d="M27.77,22.49s.08,0,.07.05,0,.05-.05.05-.05,0-.05,0S27.75,22.5,27.77,22.49Z"/><path class="cls-2" d="M26.82,19.39c.05,0,.15.05.12.09s0,.09-.09.1a.11.11,0,0,1-.11-.08A.11.11,0,0,1,26.82,19.39Z"/><g class="cls-3"><path class="cls-2" d="M36.69,39.18s.1,0,.08.07,0,.07-.06.07a.07.07,0,0,1-.08,0A.09.09,0,0,1,36.69,39.18Z"/><path class="cls-2" d="M37.8,40.17s.11,0,.09.07,0,.06-.06.07-.08,0-.08-.06S37.76,40.17,37.8,40.17Z"/><path class="cls-2" d="M38.31,36.53s.1,0,.09.07,0,.07-.07.07a.05.05,0,0,1-.07-.05A.08.08,0,0,1,38.31,36.53Z"/><path class="cls-2" d="M41.39,36.35s.11,0,.09.07,0,.06-.06.07a.08.08,0,0,1-.08-.06S41.36,36.35,41.39,36.35Z"/><path class="cls-2" d="M34.44,36.09s.11,0,.09.07,0,.07-.06.07-.08,0-.08,0S34.4,36.09,34.44,36.09Z"/><path class="cls-2" d="M35.89,37.55s.1,0,.09.07,0,.07-.07.07a.05.05,0,0,1-.07,0A.07.07,0,0,1,35.89,37.55Z"/><path class="cls-2" d="M35.19,34.21s.11,0,.09.07,0,.07-.06.07a.06.06,0,0,1-.08-.05A.08.08,0,0,1,35.19,34.21Z"/><path class="cls-2" d="M37.64,35.12s.06,0,0,0,0,0,0,0,0,0,0,0A.05.05,0,0,1,37.64,35.12Z"/><path class="cls-2" d="M37.21,37.71h0Z"/><path class="cls-2" d="M36.12,36.38s.06,0,.05,0,0,0,0,0,0,0,0,0A0,0,0,0,1,36.12,36.38Z"/><path class="cls-2" d="M38.48,38.12s.06,0,.05,0a.08.08,0,0,1,0,0s0,0,0,0S38.46,38.12,38.48,38.12Z"/><path class="cls-2" d="M39.69,35.29s.06,0,.05,0,0,0,0,0,0,0,0,0A.05.05,0,0,1,39.69,35.29Z"/><path class="cls-2" d="M38.26,33.1s.05,0,0,0,0,0,0,0,0,0,0,0S38.24,33.1,38.26,33.1Z"/><path class="cls-2" d="M41.18,40s.06,0,0,0,0,0,0,0,0,0,0,0S41.16,40,41.18,40Z"/><path class="cls-2" d="M40.49,37.65s.11.05.09.07,0,.07-.06.07a.06.06,0,0,1-.08,0A.08.08,0,0,1,40.49,37.65Z"/></g><path class="cls-2" d="M25.38,54.41c.05,0,.16,0,.15.05s0,.09-.06.12a.08.08,0,0,1-.12,0S25.33,54.43,25.38,54.41Z"/><path class="cls-2" d="M27.29,55.15c.05,0,.16,0,.15.05s0,.09-.06.12a.1.1,0,0,1-.13,0A.1.1,0,0,1,27.29,55.15Z"/><path class="cls-2" d="M26.51,50.33s.16,0,.14.05,0,.09,0,.11a.09.09,0,1,1-.09-.16Z"/><path class="cls-2" d="M30.59,48.69c.06,0,.17,0,.15.05s0,.09,0,.12a.1.1,0,0,1-.13,0S30.54,48.71,30.59,48.69Z"/><path class="cls-2" d="M21.11,51.52c.05,0,.16,0,.15,0s0,.09-.06.12a.1.1,0,0,1-.13,0A.1.1,0,0,1,21.11,51.52Z"/><path class="cls-2" d="M23.65,52.71c.05,0,.16,0,.15,0s0,.09-.06.12a.1.1,0,0,1-.13,0A.11.11,0,0,1,23.65,52.71Z"/><path class="cls-2" d="M21.36,48.81c.06,0,.17,0,.15,0s0,.09-.05.12-.11,0-.13,0A.1.1,0,0,1,21.36,48.81Z"/><path class="cls-2" d="M25,48.85s.08,0,.08,0,0,0,0,.06a.06.06,0,0,1-.07,0S25,48.86,25,48.85Z"/><path class="cls-2" d="M25.5,52.32h0l0,0s0,0,0,0Z"/><path class="cls-2" d="M23.5,51.13s.08,0,.08,0,0,.05,0,.06a.06.06,0,0,1-.07,0S23.47,51.14,23.5,51.13Z"/><path class="cls-2" d="M27.38,52.26s.08,0,.08,0,0,0,0,.07a.06.06,0,0,1-.07,0S27.35,52.27,27.38,52.26Z"/><path class="cls-2" d="M27.87,48.14s.09,0,.08,0,0,.05,0,.07a.05.05,0,0,1-.05-.09Z"/><path class="cls-2" d="M25.05,46s.09,0,.08,0,0,.05,0,.06a.06.06,0,0,1-.07,0S25,46,25.05,46Z"/><path class="cls-2" d="M31.78,53.4s.08,0,.07,0,0,0,0,.06a0,0,0,0,1-.06,0A.06.06,0,0,1,31.78,53.4Z"/><path class="cls-2" d="M29.9,50.75c.05,0,.16,0,.15,0s0,.1-.06.12-.11,0-.12,0A.11.11,0,0,1,29.9,50.75Z"/><g class="cls-4"><path class="cls-2" d="M15.19,26s-.06.12-.09.1S15,26.09,15,26a.1.1,0,0,1,.07-.09S15.19,26,15.19,26Z"/><path class="cls-2" d="M14,27.28s-.06.12-.09.1-.08,0-.08-.08a.08.08,0,0,1,.06-.09A.1.1,0,0,1,14,27.28Z"/><path class="cls-2" d="M18.3,28c0,.05-.05.12-.09.1s-.08,0-.08-.07a.08.08,0,0,1,.07-.09S18.3,27.92,18.3,28Z"/><path class="cls-2" d="M18.41,31.54c0,.05-.06.13-.09.1s-.08,0-.08-.07a.08.08,0,0,1,.07-.09A.1.1,0,0,1,18.41,31.54Z"/><path class="cls-2" d="M19,23.51s-.06.13-.09.1-.08,0-.08-.07a.07.07,0,0,1,.07-.09A.1.1,0,0,1,19,23.51Z"/><path class="cls-2" d="M17.17,25.14c0,.05-.05.13-.09.1s-.07,0-.08-.07a.08.08,0,0,1,.07-.09S17.17,25.1,17.17,25.14Z"/><path class="cls-2" d="M21.19,24.44s-.05.12-.08.1-.08,0-.08-.08a.08.08,0,0,1,.06-.09S21.19,24.39,21.19,24.44Z"/><path class="cls-2" d="M20,27.24s0,.07-.05.05,0,0,0,0a0,0,0,0,1,0-.05S20,27.22,20,27.24Z"/><path class="cls-2" d="M16.93,26.67v0s0,0,0,0A0,0,0,0,1,16.93,26.67Z"/><path class="cls-2" d="M18.56,25.45s0,.06,0,.05,0,0,0,0a0,0,0,0,1,0,0S18.56,25.43,18.56,25.45Z"/><path class="cls-2" d="M16.39,28.12s0,.07-.05.06,0,0,0,0a0,0,0,0,1,0-.05S16.39,28.1,16.39,28.12Z"/><path class="cls-2" d="M19.73,29.6s0,.07-.05.06,0,0,0,0,0-.05,0-.05S19.73,29.58,19.73,29.6Z"/><path class="cls-2" d="M22.42,28s0,.07-.05.06,0,0,0,0a0,0,0,0,1,0-.05A.07.07,0,0,1,22.42,28Z"/><path class="cls-2" d="M14,31.19s0,.06,0,0,0,0,0,0a.07.07,0,0,1,0-.05S14,31.16,14,31.19Z"/><path class="cls-2" d="M16.88,30.46s-.06.12-.09.1-.08,0-.08-.08a.06.06,0,0,1,.06-.08A.09.09,0,0,1,16.88,30.46Z"/></g><g class="cls-5"><path class="cls-2" d="M25.79,8.73s-.05.12-.08.1-.08,0-.08-.08a.08.08,0,0,1,.06-.09S25.79,8.68,25.79,8.73Z"/><path class="cls-2" d="M24.57,10s-.05.12-.09.1-.07,0-.08-.08a.1.1,0,0,1,.07-.09S24.57,9.94,24.57,10Z"/><path class="cls-2" d="M28.9,10.68c0,.05,0,.12-.08.1s-.08,0-.08-.07a.07.07,0,0,1,.06-.09S28.9,10.63,28.9,10.68Z"/><path class="cls-2" d="M29,14.25c0,.05-.05.13-.08.1s-.08,0-.09-.07a.08.08,0,0,1,.07-.09S29,14.21,29,14.25Z"/><path class="cls-2" d="M29.58,6.22s0,.13-.09.1-.07,0-.08-.07a.08.08,0,0,1,.07-.09S29.58,6.18,29.58,6.22Z"/><path class="cls-2" d="M27.78,7.85c0,.05-.06.13-.09.1s-.08,0-.08-.07a.08.08,0,0,1,.07-.09A.1.1,0,0,1,27.78,7.85Z"/><path class="cls-2" d="M31.8,7.15s-.06.12-.09.1-.08,0-.08-.08a.1.1,0,0,1,.07-.09S31.8,7.1,31.8,7.15Z"/><path class="cls-2" d="M30.62,10s0,.07-.05.05,0,0,0,0a0,0,0,0,1,0-.05S30.62,9.93,30.62,10Z"/><path class="cls-2" d="M27.53,9.38s0,0,0,0,0,0,0,0h0S27.53,9.37,27.53,9.38Z"/><path class="cls-2" d="M29.17,8.16s0,.06-.05.05,0,0-.05,0a0,0,0,0,1,0,0A.07.07,0,0,1,29.17,8.16Z"/><path class="cls-2" d="M27,10.83s0,.07-.05.06,0,0,0,0a0,0,0,0,1,0,0S27,10.81,27,10.83Z"/><path class="cls-2" d="M30.34,12.32s0,.06-.05,0,0,0,0,0a0,0,0,0,1,0-.05A.06.06,0,0,1,30.34,12.32Z"/><path class="cls-2" d="M33,10.72s0,.07-.05.06,0,0,0,0,0-.05,0-.05S33,10.7,33,10.72Z"/><path class="cls-2" d="M24.65,13.9s0,.06,0,0,0,0,0,0,0,0,0-.05S24.65,13.87,24.65,13.9Z"/><path class="cls-2" d="M27.48,13.17s-.05.12-.09.1-.07,0-.08-.08a.08.08,0,0,1,.07-.08S27.48,13.12,27.48,13.17Z"/></g><path class="cls-2" d="M1.6,22.56s0,.12,0,.11-.06,0-.08-.05,0-.08,0-.09A.07.07,0,0,1,1.6,22.56Z"/><path class="cls-2" d="M1.18,24s0,.12,0,.11-.07,0-.09,0a.08.08,0,0,1,0-.1A.07.07,0,0,1,1.18,24Z"/><path class="cls-2" d="M4.53,23.41s0,.12,0,.11-.06,0-.08-.05a.07.07,0,0,1,0-.09A.08.08,0,0,1,4.53,23.41Z"/><path class="cls-2" d="M5.91,26.48s0,.12,0,.11-.06,0-.08,0,0-.08,0-.1A.08.08,0,0,1,5.91,26.48Z"/><path class="cls-2" d="M3.39,19.36s0,.12,0,.11-.06,0-.08,0a.07.07,0,0,1,0-.09A.08.08,0,0,1,3.39,19.36Z"/><path class="cls-2" d="M2.69,21.26s0,.12,0,.11-.07,0-.09,0a.08.08,0,0,1,0-.1S2.68,21.22,2.69,21.26Z"/><path class="cls-2" d="M5.31,19.56s0,.12,0,.11-.07,0-.08-.05,0-.08,0-.09A.07.07,0,0,1,5.31,19.56Z"/><path class="cls-2" d="M5.48,22.31s0,.06,0,.06,0,0,0,0a0,0,0,0,1,0-.05S5.48,22.29,5.48,22.31Z"/><path class="cls-2" d="M3.08,22.65v0s0,0,0,0v0Z"/><path class="cls-2" d="M3.8,21.15s0,.06,0,.06,0,0,0,0,0-.05,0-.05A0,0,0,0,1,3.8,21.15Z"/><path class="cls-2" d="M3.22,24.06s0,.06,0,.06,0,0,0,0a0,0,0,0,1,0-.05S3.21,24,3.22,24.06Z"/><path class="cls-2" d="M6.15,24.44s0,.06,0,.06,0,0,0,0a0,0,0,0,1,0,0S6.14,24.42,6.15,24.44Z"/><path class="cls-2" d="M7.48,22.33s0,.06,0,.06,0,0,0,0a0,0,0,0,1,0-.05S7.47,22.31,7.48,22.33Z"/><path class="cls-2" d="M2.66,27.35s0,.07,0,.06,0,0,0,0a0,0,0,0,1,0-.05S2.65,27.33,2.66,27.35Z"/><path class="cls-2" d="M4.42,26s0,.12,0,.11-.06,0-.08,0,0-.08,0-.09A.07.07,0,0,1,4.42,26Z"/><g class="cls-6"><path class="cls-2" d="M14.08,57.37s.11-.1.12-.07.05.07,0,.12-.06.08-.1.06A.09.09,0,0,1,14.08,57.37Z"/><path class="cls-2" d="M15.69,56.56c0-.05.11-.11.12-.07s0,.06,0,.11-.07.08-.1.07A.09.09,0,0,1,15.69,56.56Z"/><path class="cls-2" d="M12.6,54s.1-.11.12-.07,0,.06,0,.11-.07.08-.1.07A.09.09,0,0,1,12.6,54Z"/><path class="cls-2" d="M14.32,50.17s.1-.1.12-.07,0,.07,0,.12-.06.08-.1.06A.09.09,0,0,1,14.32,50.17Z"/><path class="cls-2" d="M9.81,58.42c0-.05.11-.11.12-.07s.05.06,0,.11-.06.08-.1.07A.09.09,0,0,1,9.81,58.42Z"/><path class="cls-2" d="M12.07,57.46c0-.05.1-.11.12-.07s0,.06,0,.11-.07.08-.1.07A.09.09,0,0,1,12.07,57.46Z"/><path class="cls-2" d="M8.52,56.51s.1-.11.12-.07,0,.06,0,.11-.06.08-.09.07A.09.09,0,0,1,8.52,56.51Z"/><path class="cls-2" d="M10.87,54s.06,0,.07,0a.06.06,0,0,1,0,.06s0,0,0,0A0,0,0,0,1,10.87,54Z"/><path class="cls-2" d="M13,56l0,0v0l0,0Z"/><path class="cls-2" d="M11.12,56.55s.06-.06.07,0a.07.07,0,0,1,0,.06.05.05,0,0,1,0,0S11.11,56.57,11.12,56.55Z"/><path class="cls-2" d="M14.19,54.64s.06,0,.07,0,0,0,0,.06a.05.05,0,0,1,0,0A0,0,0,0,1,14.19,54.64Z"/><path class="cls-2" d="M12.29,51.66s.05,0,.06,0,0,0,0,.06,0,0-.06,0A.06.06,0,0,1,12.29,51.66Z"/><path class="cls-2" d="M9.35,52.21s.06-.05.07,0a.06.06,0,0,1,0,.06s0,0,0,0A0,0,0,0,1,9.35,52.21Z"/><path class="cls-2" d="M17.6,52.4s.06-.06.07,0a.06.06,0,0,1,0,.06s0,0-.05,0A0,0,0,0,1,17.6,52.4Z"/><path class="cls-2" d="M15,52s.1-.11.12-.07,0,.06,0,.11-.06.08-.1.07A.09.09,0,0,1,15,52Z"/></g><g class="cls-6"><path class="cls-2" d="M19.41,38s-.08-.13,0-.14.08,0,.12,0,.06.08,0,.11A.09.09,0,0,1,19.41,38Z"/><path class="cls-2" d="M19,36.2s-.07-.12,0-.13.08,0,.12,0,.06.08,0,.11A.09.09,0,0,1,19,36.2Z"/><path class="cls-2" d="M15.78,38.61s-.08-.13,0-.13.07,0,.12,0,.06.08,0,.11A.09.09,0,0,1,15.78,38.61Z"/><path class="cls-2" d="M12.47,36.05c-.05,0-.08-.13,0-.14s.07,0,.11,0a.08.08,0,0,1,0,.11A.08.08,0,0,1,12.47,36.05Z"/><path class="cls-2" d="M19.43,42.35s-.08-.12,0-.13.07,0,.12,0,.06.08,0,.11A.09.09,0,0,1,19.43,42.35Z"/><path class="cls-2" d="M19,39.93s-.08-.12,0-.13.08,0,.12,0,.06.08,0,.11A.08.08,0,0,1,19,39.93Z"/><path class="cls-2" d="M17.27,43.16s-.08-.12,0-.13.07,0,.12,0,.06.08,0,.11A.08.08,0,0,1,17.27,43.16Z"/><path class="cls-2" d="M15.42,40.3s0-.07,0-.07,0,0,.06,0,0,0,0,.06S15.44,40.32,15.42,40.3Z"/><path class="cls-2" d="M17.78,38.65s0,0,0,0,0,0,0,0v0Z"/><path class="cls-2" d="M17.92,40.64s0-.06,0-.07H18s0,0,0,.06A0,0,0,0,1,17.92,40.64Z"/><path class="cls-2" d="M16.78,37.21s0-.06,0-.07,0,0,.06,0,0,0,0,.06A0,0,0,0,1,16.78,37.21Z"/><path class="cls-2" d="M13.44,38.37s0-.07,0-.07,0,0,.06,0,0,0,0,.05A0,0,0,0,1,13.44,38.37Z"/><path class="cls-2" d="M13.29,41.35s0-.07,0-.07,0,0,.06,0a0,0,0,0,1,0,.06S13.31,41.37,13.29,41.35Z"/><path class="cls-2" d="M15.39,33.37s0-.07,0-.07,0,0,.07,0,0,0,0,.06A0,0,0,0,1,15.39,33.37Z"/><path class="cls-2" d="M14.37,35.82s-.08-.13,0-.14.07,0,.11,0a.08.08,0,1,1-.07.14Z"/></g><path class="cls-2" d="M2.57,40.4c.05,0,.13.07.1.1s0,.06-.1,0-.1,0-.09-.07A.08.08,0,0,1,2.57,40.4Z"/><path class="cls-2" d="M3.78,41.74c.05,0,.13.07.1.1s0,.06-.1,0-.1,0-.09-.08A.08.08,0,0,1,3.78,41.74Z"/><path class="cls-2" d="M5.44,38.08s.13.07.1.1,0,.06-.11,0-.09,0-.08-.07A.08.08,0,0,1,5.44,38.08Z"/><path class="cls-2" d="M9.58,38.73c.05,0,.13.07.1.1s0,.06-.11.05a.09.09,0,0,1-.09-.08A.09.09,0,0,1,9.58,38.73Z"/><path class="cls-2" d="M.44,36.56s.13.07.1.1-.05.06-.11.05-.09,0-.08-.08A.08.08,0,0,1,.44,36.56Z"/><path class="cls-2" d="M2,38.48s.13.07.1.1-.05.06-.11.05-.09,0-.08-.07A.08.08,0,0,1,2,38.48Z"/><path class="cls-2" d="M1.94,34.8c.05,0,.13.08.1.1S2,35,1.94,35s-.1,0-.09-.08A.09.09,0,0,1,1.94,34.8Z"/><path class="cls-2" d="M4.94,36.43s.07,0,0,0,0,0,0,0a0,0,0,0,1-.05,0A0,0,0,0,1,4.94,36.43Z"/><path class="cls-2" d="M3.67,39h0S3.66,39,3.67,39Z"/><path class="cls-2" d="M2.59,37.33s.06,0,.05.05,0,0-.06,0a0,0,0,0,1,0,0A0,0,0,0,1,2.59,37.33Z"/><path class="cls-2" d="M5.24,39.79s.06,0,0,.05,0,0-.06,0,0,0,0,0A0,0,0,0,1,5.24,39.79Z"/><path class="cls-2" d="M7.61,37.17s.06,0,0,0,0,0-.06,0,0,0,0,0A0,0,0,0,1,7.61,37.17Z"/><path class="cls-2" d="M6.3,34.48s.07,0,0,.05a0,0,0,0,1,0,0s0,0,0,0S6.28,34.47,6.3,34.48Z"/><path class="cls-2" d="M8.3,42.48s.07,0,0,.06,0,0,0,0-.05,0-.05,0A.05.05,0,0,1,8.3,42.48Z"/><path class="cls-2" d="M8,39.85c.06,0,.13.07.1.1s0,.06-.1,0-.09,0-.09-.08S8,39.84,8,39.85Z"/><path class="cls-1" d="M385.65,43.81c1.28,4.14-2.9,6.23-5.58,5.64-.43-.21-.81-.4-1.14-.6A4.27,4.27,0,0,1,377.08,47a2.28,2.28,0,0,1-.22-.82c.68-3.49,4.85-5.57,7.85-3.84a6.68,6.68,0,0,0,.82.77A1.89,1.89,0,0,1,385.65,43.81Z"/><path class="cls-7" d="M64,33.4a8.57,8.57,0,0,1-.06,1.12l-.59.06c-2.13.24-3.43,2.65-3.43,7.9v3.83a24.32,24.32,0,0,1-7.66,2.61c.17-.21.35-.43.53-.68-.09.12-.14.19-.17.2a22.37,22.37,0,0,0,2.13-3.24c.31-.57.62-1.14.94-1.7s.52-1.17.79-1.74a4.74,4.74,0,0,0,.42-1.15l.11-.12.15-.74a11.35,11.35,0,0,1,.48-1.39c.08-.23.18-.47.26-.74s.1-.56.14-.89l-.07.16a9.92,9.92,0,0,1,.29-1.41.81.81,0,0,1,0-.34h0A5.81,5.81,0,0,0,58.42,34c.08-.9.12.16.22-1.17v0H64Zm-4.56-8.77v.06l0-.25C59.45,24.5,59.45,24.56,59.44,24.63Zm-12,8.77a8.57,8.57,0,0,0,.06,1.12l.59.06c2.13.24,3.43,2.65,3.43,7.9V46.6a40.67,40.67,0,0,1-6.68.59c-8.1,0-13.24-6.54-13.24-16.73s5.14-16.8,13.24-16.8a14.63,14.63,0,0,1,7,1.89C56.43,20,52.47,29,48,27.27c-1.53-.58,1.34-4.77-5.29-8.54a9.12,9.12,0,0,0-1.86,5.95c.06,4.13,4.2,5.84,8.46,5.84a14.14,14.14,0,0,0,5.61-1.07,11.72,11.72,0,0,0,4.24-2.34l-.09.68c-.13,1.29-.32,2.55-.53,3.74v.08h0v.45a1.41,1.41,0,0,0,.09-.52,5.51,5.51,0,0,1,0,1.21H47.44Zm-11.9,3.12,0,.09.08,0,.06-.07Zm.75-1.87,0,.08.08.06.06-.07Zm10.84-19,0-.07-.07,0-.05.06ZM37,38l-.05.09.08,0,.06-.06Zm.24-1.16,0,0,0,0,0,0Zm.56,2.8,0,.08.08.06.06-.07Zm.53-1.47h0Zm.43-2.59,0,0,0,0,0,0Zm.16,5,0,.09.08.05.06-.07Zm.46-7.07,0,0,0,0,0,0ZM39.42,37l-.05.08.08.06.06-.07Zm.17,1.58,0,.05,0,0,0,0Zm1.22-2.82,0,0,0,0,0,0Zm.8,2.36,0,.08.08.06.06-.07Zm.69,2.34,0,0,0,0,0,0Zm.22-3.65-.06.09.08.05.07-.07ZM59.24,26.31v-.16l.09-.68a.7.7,0,0,1,0,.22c.11-.49,0-.44.13-.86,0,0,0,0,0,0v0l0-.49s0,0,0,0,0,0,0,.08c.13-.8.06-1.32.14-1.63v.07c0-.65,0-.64,0-.63s0,0,0,0a5.61,5.61,0,0,0,0-.58l.1-.42-.07-.12c0-.12,0-.37,0-.33,0-.25,0-.2,0-.15s0,.09,0,0c0-.62-.29-1.64-.26-1.79s0,0,0,.08.05.23-.08-.13c.07-.21-.23-.71-.4-1.23.13.13.27.64.13.09-.22-.27-.44-1-.71-1.38a17.23,17.23,0,0,1-.86-1.57,13.57,13.57,0,0,0-.66-1.2,14.81,14.81,0,0,1,1.85,1.1c.41.3.77.59,1.12.89v.12c3.55,3.49,3,8.37-.55,11.5,0-.28.06-.57.1-.85Zm-14.63-15c-1.06,0-2.09.06-3.08.14h0a.12.12,0,0,0-.14-.06s-.06.05-.08.09c-10,.92-16.85,5.83-19.09,13.36h-.07a.08.08,0,0,0-.07.09s.05.05.09.07h0a19.84,19.84,0,0,0-.75,5.49A18,18,0,0,0,24.56,41a16.38,16.38,0,0,0,1.33,1.66,17.72,17.72,0,0,0,1.88,1.79c1.38,1.47,3.78,2.43,5.57,3.22.62.26,1.27.5,1.92.71a23.63,23.63,0,0,0,6.12,1.12c1.11.1,2.27.15,3.46.15a40.78,40.78,0,0,0,7.42-.69c-.46.56-.87,1-1.24,1.53l-.8,1a10.51,10.51,0,0,1-1,.94l.08-.11c-.39.39-.34.32-.29.26s.07-.11-.19.11A9.67,9.67,0,0,1,47.46,54c.06-.08.23-.19.35-.31a1.7,1.7,0,0,0-.39.24,28.35,28.35,0,0,1-2.39,2c-.14,0-.93.46-1.37.63-.13.68-.49.79-.89.8a14.39,14.39,0,0,1-1.89,1,1.83,1.83,0,0,0-.68.27l-.52.18a1.09,1.09,0,0,0,.35-.07,2.37,2.37,0,0,1-1.31.55v-.48l-2.87,1.43v-.48C32,61.62,28.2,61.14,24.37,61.14h.48c-6.7-1-10.53-6.67-15.72-9.39a12.48,12.48,0,0,1-1.38-1.23c-1.72-1.78-3-4-4.91-5.59v1c-.48-1-1-1.43-1-2.38h.48C1.4,40.63-1,37.77.45,34.43v-1C0,30.54.72,27.22.89,24.19A4.79,4.79,0,0,1,1,21.85c.23-.77.56-1.49.75-2.21A26.58,26.58,0,0,1,2.67,17C5.73,9.21,12.36,3.29,20.54,2V2a8.63,8.63,0,0,1,1.2-.27,5.39,5.39,0,0,0,2-.63c1.16.21,2-.44,2.68-.55.91,0,1.79.42,2.24-.49h6.22c2.88-.47,5.27,1,7.66,1.91h-.48c1,.48,1.44,1,2.39,1H44a4.35,4.35,0,0,1,.78.34s0,0,.05,0l.07,0a7.53,7.53,0,0,0,2.27,1.29v0c1,.53,2,1.31,3,1.94l0,0-.07-.06c-.28-.3.75.51,1,.7a.83.83,0,0,0,.22.23s.36.28.5.36c.29.29-.09,0,.43.48.2.17.25.17.24.13l.64.7a3.62,3.62,0,0,1-.28-.29c-.06,0,.12.16.09.18.22.24.13.06.4.36l-.3-.23c.11.12.26.25.32.31a.4.4,0,0,0-.13-.1l.32.32s-.12-.25-.08-.25c.61.64,1.09,1.15,1.54,1.67l-.13-.06a3.59,3.59,0,0,0,.43.44c.11.13.22.27.32.41-.2-.23-.27-.29-.32-.28a12.94,12.94,0,0,0,.91,1.12h0c.13.19.29.45.45.71C53.89,12.09,49.94,11.16,44.61,11.3ZM43.32,56.85Zm-10.4-2.92,0-.06-.08,0,0,.07Zm-1.27-4.67a.09.09,0,0,0,.12,0c.06,0,.05-.07.06-.12s-.1-.07-.15,0S31.63,49.22,31.65,49.26ZM31,51.32a.09.09,0,0,0,.13,0c.05,0,0-.07.06-.11s-.1-.07-.15-.05A.1.1,0,0,0,31,51.32ZM29,48.66l0-.06-.08,0,0,.07Zm-.54,4,0,.07.07,0,0-.06Zm-.13,3s.07.05.13,0,0-.07.05-.12-.09-.07-.15,0S28.31,55.68,28.33,55.72Zm-.78-4.83s.07.06.12,0,0-.07.06-.12-.1-.07-.15-.05A.1.1,0,0,0,27.55,50.89Zm-1,1.86,0,0h0ZM26.42,55a.1.1,0,0,0,.13,0c.05,0,0-.07.06-.12s-.1-.07-.15,0A.09.09,0,0,0,26.42,55Zm-.3-8.54v.07l.06,0,0-.06Zm0,2.93,0-.06-.08,0,0,.08Zm-1.48,3.91a.1.1,0,0,0,.13,0c.05,0,0-.07.06-.12s-.1-.07-.15,0A.1.1,0,0,0,24.68,53.28Zm-.07-1.63,0-.06-.07,0,0,.07Zm-2.22-2.27s.07,0,.13,0,0-.07.05-.12-.09-.07-.15,0S22.37,49.34,22.39,49.38Zm-.26,2.71a.1.1,0,0,0,.13,0s0-.07.06-.12-.1-.07-.15,0A.1.1,0,0,0,22.13,52.09Zm-21-30c.07-.32.17-.63.19-.79A3.39,3.39,0,0,0,1.14,22.11ZM1.43,37a.08.08,0,0,0-.09.08.09.09,0,0,0,.09.07c.05,0,.07,0,.1,0S1.49,37,1.43,37Zm.66-12.6,0,.09.08.05,0-.12ZM2.5,23l0,.1.09,0,0-.11ZM6.44,38.67a.14.14,0,0,0,.11-.06s0-.09-.1-.1a.09.09,0,0,0-.09.08S6.39,38.66,6.44,38.67ZM6.5,22.75l-.06,0v.05l0,0ZM6.24,40.3l.06,0,0-.05,0,0Zm-3.3-5.06a.08.08,0,0,0-.09.07s0,.08.09.08.07,0,.1,0S3,35.24,2.94,35.24Zm0,3.67a.1.1,0,0,0-.1.08s0,.07.09.08S3,39,3.06,39,3,38.92,3,38.91Zm.52,2s0,.07.09.08.07,0,.1-.06,0-.09-.1-.1A.09.09,0,0,0,3.48,40.91Zm.18-13.12-.05,0v.05l0,0ZM3.59,37.84l.05,0-.05-.05,0,0Zm0-16.17v.09l.08,0,0-.12Zm.48,1.41h0Zm.1,1.4v.05l0,0,0-.06Zm.12-4.72,0,.1.09,0,0-.11Zm.37,19.68h0Zm.08-17.87v.05l0,0v-.06Zm0,20.6a.09.09,0,0,0-.1.08.09.09,0,0,0,.09.07s.07,0,.1,0S4.84,42.18,4.79,42.17Zm.52-15.72.09.05,0-.11-.1,0Zm.13-2.64,0,.1.09,0,0-.11ZM6,36.86l0,0,0,0,0,0ZM6.16,18.8l-.06.06.06.07.07-.07ZM6.22,20v.1l.08,0,0-.11Zm.2-7.32a.12.12,0,0,0-.1.13c0,.07.06.09.1.13s.14-.08.14-.15S6.48,12.64,6.42,12.64Zm.4,14.25V27l.08,0,0-.11Zm.29-2v.05l0,0,0-.06Zm.21,10-.05,0,0,0,.06,0Zm1-24.08c-.06,0-.1.05-.1.12s.05.09.1.13.14-.07.14-.14S8.34,10.83,8.28,10.83Zm.17,11.92v.05l0,0,0-.06Zm9.82,34.82-.08-.06Zm-.45-19.92.07,0,0-.06H17.8ZM15.4,50.72h0s.06,0,.08-.07,0-.07,0-.11h0a.15.15,0,0,0-.11.08A.09.09,0,0,0,15.4,50.72Zm-.37-19,.05-.05-.06,0,0,0Zm-.71,10.11h.07l0-.06H14.3ZM8.62,37.6l0,0,0,0,.05,0ZM9,40.28a.09.09,0,0,0-.09.08.08.08,0,0,0,.09.07c.05,0,.07,0,.1,0S9.09,40.29,9,40.28Zm.28,2.64-.05,0,.05,0,0,0Zm.48-28.6-.06.06.06.07.07-.08ZM10.15,18a.11.11,0,0,0-.1.12c0,.08.06.09.1.13s.14-.07.14-.14S10.21,18,10.15,18Zm.45,21.19a.09.09,0,0,0-.09.08s0,.07.09.08.07,0,.1-.06S10.65,39.17,10.6,39.16Zm.17-27v.06l0,0Zm.39-2.44a.12.12,0,0,0-.1.13c0,.07.06.09.1.13s.14-.08.14-.15S11.22,9.71,11.16,9.71Zm1,10.14a.12.12,0,0,0-.1.13c0,.07.06.09.1.13s.14-.08.14-.15S12.24,19.85,12.18,19.85Zm.25-5.59c-.06,0-.1.06-.1.13s.05.09.1.13.14-.07.14-.15S12.49,14.26,12.43,14.26Zm.71-3.84-.06.07.06.06.07-.07Zm.24,41.64-.06,0,0,.06.05,0Zm.2-15.71-.05,0-.07,0s0,.1,0,.13l0,0a.12.12,0,0,0,.08,0S13.62,36.38,13.58,36.35Zm.15,18a.15.15,0,0,0-.1.08.09.09,0,0,0,0,.11h0s.06,0,.08-.07,0-.07,0-.11ZM13.88,7.4a.12.12,0,0,0-.11.13c0,.07.06.09.11.13s.13-.08.13-.15A.12.12,0,0,0,13.88,7.4Zm.44,9.65-.06.06.06.07.07-.08Zm.2,21.68h-.06l0,.07h.06Zm.38-11.08a.08.08,0,0,0-.07.09s.05.05.08.07h0s.08-.07.07-.11-.05-.06-.09-.06ZM15,13.4l-.06.06.06.07.07-.08ZM15.29,55l-.06,0,0,.06.05,0Zm.19-18.92-.05,0-.07,0s0,.1,0,.13h0a.08.08,0,0,0,.07,0S15.52,36.15,15.48,36.12Zm.59,16.39h0a.08.08,0,0,0,.08-.06c0-.05,0-.08,0-.12h0a.13.13,0,0,0-.1.08A.09.09,0,0,0,16.07,52.51Zm.07-26.12h0a.08.08,0,0,0-.07.09s.05.05.08.07h0s.08-.06.08-.1S16.18,26.39,16.14,26.39Zm.34,7.34h-.07l0,.07h.07Zm0,6.93h-.07l0,.07h.07Zm.27,16.44h0a.09.09,0,0,0,.08-.06s0-.08,0-.12a0,0,0,0,0,0,0,.15.15,0,0,0-.11.08A.09.09,0,0,0,16.78,57.1Zm0-18.06.05,0a.08.08,0,0,0,.07,0s0-.08,0-.11l0,0-.07,0S16.78,39,16.82,39Zm.07-29.92a.11.11,0,0,0-.11.12c0,.08.06.09.11.13S17,9.3,17,9.23A.12.12,0,0,0,16.89,9.12Zm.49,19.4,0,.05,0,0,.05-.05Zm.45,2.31h0a.08.08,0,0,0-.07.09s.05,0,.08.07h0s.08-.07.07-.11S17.87,30.83,17.83,30.83ZM18,27.09v0h0v0Zm.17-1.58h0a.1.1,0,0,0-.07.09s.05.06.08.08h0s.08-.06.08-.1S18.17,25.51,18.13,25.51Zm.14-10.61-.06.07.06.06.07-.07Zm.12,28.57a0,0,0,0,0,0,0h-.07s0,.11,0,.14h0a.08.08,0,0,0,.07,0S18.44,43.5,18.39,43.47Zm.33,9.32-.07,0,0,.06.05,0Zm.12-13.73h0l0,0h0ZM19,41H19l0,.07.06,0Zm.17-12.58s.05.05.08.08h0s.08-.07.08-.11-.05-.06-.09-.06h0A.08.08,0,0,0,19.18,28.43Zm.09-10.62a.1.1,0,0,0-.07.12.09.09,0,0,0,.11.07c.05,0,.06-.05.09-.09S19.33,17.81,19.27,17.81Zm.1,14.1h0a.1.1,0,0,0-.07.09s0,.06.08.08h0s.08-.06.08-.1S19.41,31.91,19.37,31.91Zm.19-6.06,0,0,0,0,.05-.06Zm.38-2h0a.1.1,0,0,0-.07.09c0,.05.05.06.08.08h0S20,24,20,24,20,23.88,19.94,23.88Zm.18,12.62H20s0,.11,0,.14h0a.08.08,0,0,0,.07,0S20.17,36.53,20.12,36.5Zm0,3.74a0,0,0,0,0,0,0H20s0,.11,0,.14h0a.08.08,0,0,0,.07,0S20.2,40.27,20.15,40.24Zm.22-24.92a.11.11,0,0,0-.08.11.1.1,0,0,0,.11.08c.06,0,.07-.06.09-.1S20.42,15.31,20.37,15.32Zm.17,22.94,0,0-.07,0s0,.1,0,.13h0a.08.08,0,0,0,.07,0A.08.08,0,0,0,20.54,38.26Zm0,4.39h-.12s0,.1,0,.14h.05a.08.08,0,0,0,.07,0A.08.08,0,0,0,20.56,42.65ZM20.73,30l0,0,0,0,.05-.05ZM21,27.64l0,.05,0,0,.05-.05Zm.32-7.9c-.06,0-.08.07-.08.11a.09.09,0,0,0,.11.07c.06,0,.07-.05.09-.09S21.38,19.73,21.33,19.74Zm.34-1.55,0,.06.05,0,0-.05Zm.78,3.7a.11.11,0,0,0-.08.12.11.11,0,0,0,.11.07c.06,0,.07,0,.09-.1S22.5,21.89,22.45,21.89Zm.77-1.95h0l0,0Zm.64-3.44,0,.06.05,0,.05-.05Zm.89-2.7,0,.07.05,0,.05-.05Zm0,4.56a.1.1,0,0,0-.07.12s.05.07.11.07.06-.05.09-.1S24.85,18.36,24.79,18.36Zm.76-8h0a.08.08,0,0,0-.07.09s.05.05.08.07h0s.07-.07.07-.11S25.59,10.36,25.55,10.36Zm.11,3.94,0,0,0,0,0-.05Zm1.14,2.5.05-.05-.07-.05,0,.06Zm0-7.7h0a.08.08,0,0,0-.07.09s0,.05.08.07h0s.08-.06.08-.1A.09.09,0,0,0,26.78,9.1ZM28,11.23l0,0,.05,0,0-.05Zm.45,2.31h0a.08.08,0,0,0-.07.09s.05,0,.08.07h0s.08-.07.08-.11S28.51,13.54,28.47,13.54ZM28.6,9.8v0h0v0Zm.17-1.58h0s-.08,0-.07.09,0,.06.08.08h0s.08-.06.08-.1A.09.09,0,0,0,28.77,8.22Zm1.13,2.83h0a.08.08,0,0,0-.07.09s0,0,.08.08h0s.08-.07.08-.11S29.94,11.05,29.9,11.05Zm.1,3.57h0s-.08.05-.07.09,0,.06.08.08h0s.08-.06.08-.1A.11.11,0,0,0,30,14.62Zm.2-6.06,0,0,0,0,.05-.06Zm.38-2h0a.1.1,0,0,0-.07.09c0,.05,0,.06.08.08h0s.08-.06.08-.1A.1.1,0,0,0,30.58,6.59Zm.79,6.13,0,0,.05,0,0-.05Zm.28-2.37,0,.05.05,0,.05,0ZM32.8,7.52h0a.08.08,0,0,0-.07.09s.05,0,.08.07h0a.1.1,0,0,0,.07-.1S32.84,7.52,32.8,7.52Zm1.26,3.6,0,.05,0,0,0-.05Zm7-5.1,0,.07.08,0,0-.07Zm1.52,3.21c-.06,0-.06.07-.09.12s.1.09.16.08a.12.12,0,0,0,.07-.14A.11.11,0,0,0,42.61,9.23Zm10.14,1.08a.12.12,0,0,0,.07-.14.11.11,0,0,0-.14-.06c-.06,0-.07.07-.09.12S52.68,10.33,52.75,10.31ZM50.14,8.5a.11.11,0,0,0,.06-.14.11.11,0,0,0-.13-.07c-.06,0-.07.07-.09.12S50.07,8.51,50.14,8.5ZM50,10.27l0-.07-.07,0,0,.07Zm-1.42-4a.11.11,0,0,0,.06-.14.1.1,0,0,0-.13-.06c-.06,0-.07.06-.09.11S48.48,6.29,48.55,6.28ZM48,8.57l0,0h0ZM45.8,8.16l0,.06.08,0,0-.08Zm.46,2.32s.09.1.15.09a.11.11,0,0,0,.07-.14.1.1,0,0,0-.13-.06C46.28,10.38,46.28,10.43,46.26,10.48Zm.37-5.54s-.07-.07-.14-.06S46.43,5,46.4,5s.1.1.16.08S46.64,5,46.63,4.94ZM40.8,58.34l.08,0h0Zm-.23.1c-.18.08-.36.18-.54.25l.17-.11ZM23.89,1.05l-.14.08c-.11,0-.22,0-.34-.08Zm2.6-.48h0Zm0,0h0ZM44.9,3.37h0l-.12-.07Zm5.19,3.21,0,0,0,0Zm5.38,5-.1-.07-.08-.1Zm3.09,20,0,0v-.09Zm-9-25.45c.12.09.24.18.35.28C49.79,6.33,49.57,6.19,49.61,6.19ZM7.22,8.86,7.07,9C6.9,8.9,7.14,8.88,7.22,8.86Zm0,0s0,0,0,0Z"/></g></g></svg>