<svg xmlns="http://www.w3.org/2000/svg" viewBox="0 0 80.9 56.45"><defs><style>.cls-1{fill:none;stroke:#1b7a71;stroke-linejoin:round;stroke-width:6px;}.cls-2{fill:#fa7846;}.cls-3{fill:#fff;}</style></defs><title>Asset 50</title><g id="Layer_2" data-name="Layer 2"><g id="Layer_4" data-name="Layer 4"><rect class="cls-1" x="3" y="3" width="63.39" height="39.96"/><polygon class="cls-1" points="34.7 23.46 66.39 3 3 3 34.7 23.46"/><line class="cls-1" x1="21.41" y1="15.59" x2="3" y2="42.96"/><line class="cls-1" x1="47.98" y1="15.59" x2="66.39" y2="42.96"/><path class="cls-2" d="M80.33,44l-2.21-1.4a13.49,13.49,0,0,0,0-5l2.21-1.4a1.35,1.35,0,0,0,.47-1.61l-.86-2.08a1.37,1.37,0,0,0-1.47-.81l-2.55.57a13.74,13.74,0,0,0-3.51-3.5L73,26.28a1.35,1.35,0,0,0-.81-1.47L70.1,24a1.34,1.34,0,0,0-1.61.47l-1.41,2.21a13.49,13.49,0,0,0-5,0l-1.4-2.21A1.35,1.35,0,0,0,59.11,24L57,24.81a1.35,1.35,0,0,0-.8,1.47l.56,2.56a13.7,13.7,0,0,0-3.5,3.5l-2.56-.57a1.37,1.37,0,0,0-1.47.81l-.86,2.07a1.37,1.37,0,0,0,.47,1.62l2.22,1.4a12.93,12.93,0,0,0,0,5L48.87,44a1.37,1.37,0,0,0-.47,1.62l.86,2.07a1.37,1.37,0,0,0,1.47.81L53.29,48a13.86,13.86,0,0,0,3.5,3.5L56.23,54a1.35,1.35,0,0,0,.8,1.47l2.08.86a1.36,1.36,0,0,0,1.61-.47l1.4-2.21a13.49,13.49,0,0,0,5,0l1.41,2.21a1.36,1.36,0,0,0,1.61.47l2.07-.86A1.37,1.37,0,0,0,73,54l-.57-2.56A13.74,13.74,0,0,0,75.92,48l2.55.56a1.35,1.35,0,0,0,1.47-.8l.86-2.08A1.35,1.35,0,0,0,80.33,44Z"/><path class="cls-3" d="M64.6,34a6.2,6.2,0,1,1-6.2,6.2A6.19,6.19,0,0,1,64.6,34Z"/></g></g></svg>