<svg xmlns="http://www.w3.org/2000/svg" viewBox="0 0 113.98 113.49"><defs><style>.cls-1{fill:#f1f1f1;}.cls-2{fill:#fa7846;}.cls-3{fill:#bfdece;}.cls-4{fill:#9db795;}</style></defs><title>Asset 48</title><g id="Layer_2" data-name="Layer 2"><g id="Layer_4" data-name="Layer 4"><path class="cls-1" d="M100,54.17c12.64,29.3-17.36,59.3-45.36,59.3-35,1-59-37-54-69A55.23,55.23,0,0,1,4.17,31.91c8.27-20,28-34.77,50.49-31.44,11,1.5,18.75,8.25,25,16.86a104.29,104.29,0,0,1,5.87,9.11c3.1,7,7.1,12,10.39,19.09A81.33,81.33,0,0,1,100,54.17Z"/><circle class="cls-2" cx="70.6" cy="51.26" r="43.36"/><circle class="cls-3" cx="70.62" cy="46.4" r="43.36"/><path class="cls-4" d="M107.41,46.6a17.9,17.9,0,0,1-2.21,7.3,12.26,12.26,0,0,1-17.42,5l-6.44-4A20.08,20.08,0,0,0,60,55.09l-6.24,4a12.19,12.19,0,0,1-17.37-4.5c-1.47-2.8-2.56-5.67-2.56-8a36.81,36.81,0,0,1,73.62,0Z"/><path class="cls-3" d="M68.94,48.38h0a2.74,2.74,0,0,1-.66-3.89L81,27.19a2.07,2.07,0,0,1,2.82-.48h0a2.06,2.06,0,0,1,.57,2.81L72.81,47.59A2.75,2.75,0,0,1,68.94,48.38Z"/><path class="cls-2" d="M104.6,46.4h-2a32,32,0,0,0-64,0h-2a34,34,0,0,1,68,0Z"/><path class="cls-2" d="M99.75,45.36c0,.34,0,.69,0,1s0,.69,0,1h4.84V45.36Z"/><path class="cls-2" d="M70.6,17.21c.34,0,.69,0,1,0V13.3H69.56v3.94C69.9,17.22,70.25,17.21,70.6,17.21Z"/><path class="cls-2" d="M41.41,46.4c0-.35,0-.7,0-1H36.59v2.07h4.85C41.42,47.09,41.41,46.74,41.41,46.4Z"/><path class="cls-2" d="M92,26.51l2.78-2.78-1.46-1.47L90.48,25Q91.24,25.75,92,26.51Z"/><path class="cls-2" d="M50.71,25l-2.78-2.78-1.47,1.46,2.78,2.79Q49.95,25.74,50.71,25Z"/><circle class="cls-4" cx="66.01" cy="64.23" r="2.9"/><circle class="cls-2" cx="75.24" cy="64.23" r="2.9"/></g></g></svg>