<svg xmlns="http://www.w3.org/2000/svg" viewBox="0 0 84.09 65.48"><defs><style>.cls-1,.cls-2,.cls-4{fill:none;}.cls-1,.cls-2{stroke:#1b7a71;stroke-miterlimit:10;}.cls-1{stroke-width:6px;}.cls-2{stroke-width:3px;}.cls-3{fill:#fff;}.cls-3,.cls-4{stroke:#fa7846;stroke-linejoin:round;stroke-width:4px;}</style></defs><title>Asset 49</title><g id="Layer_2" data-name="Layer 2"><g id="Layer_4" data-name="Layer 4"><path class="cls-1" d="M18.88,60.75,3.68,38.29a3.94,3.94,0,0,1,1.05-5.47L45.79,5a11.73,11.73,0,0,1,8.32-1.89L68.17,5.21a6.41,6.41,0,0,1,5.37,7.94L70.25,27a11.76,11.76,0,0,1-4.85,7L24.35,61.8A3.94,3.94,0,0,1,18.88,60.75Z"/><circle class="cls-2" cx="62.46" cy="14.87" r="4.57" transform="translate(-1.72 16.7) rotate(-15.03)"/><rect class="cls-3" x="40.16" y="35.74" width="41.93" height="26.43"/><polygon class="cls-4" points="61.13 49.27 82.09 35.74 40.16 35.74 61.13 49.27"/><line class="cls-4" x1="52.34" y1="44.07" x2="40.16" y2="62.17"/><line class="cls-4" x1="69.91" y1="44.07" x2="82.09" y2="62.17"/></g></g></svg>