<svg xmlns="http://www.w3.org/2000/svg" viewBox="0 0 56.68 56.68"><defs><style>.cls-1{fill:#1b7a71;}.cls-2{fill:#fff;}.cls-3{fill:#bfdece;}</style></defs><title>Asset 51</title><g id="Layer_2" data-name="Layer 2"><g id="Layer_4" data-name="Layer 4"><circle class="cls-1" cx="28.34" cy="28.34" r="28.34"/><rect class="cls-2" x="14.34" y="35.8" width="7.66" height="6.9"/><rect class="cls-2" x="24.51" y="29.54" width="7.66" height="13.17"/><rect class="cls-3" x="34.68" y="13.97" width="7.66" height="28.74"/><path class="cls-3" d="M29.79,17.34a2.1,2.1,0,0,0-.49-.45l-9.18-6.27a1.4,1.4,0,0,0-1.72,0l-.81.54-2.77,1.89L10,16.34a1.69,1.69,0,0,0-.41.29A2.79,2.79,0,0,0,9,17a.75.75,0,0,0-.08,1.11h0l.06.07,1.27,1c.12.09.17.08.25-.05a13,13,0,0,1,1-1.35A10.47,10.47,0,0,1,17,14.5l1.46-.23h1.42l1.52.22a10.68,10.68,0,0,1,5.14,2.76,9.27,9.27,0,0,1,.82.84,10.13,10.13,0,0,1,.72,1c.1.15.15.18.31.06.38-.3.73-.64,1.13-.91S30,17.61,29.79,17.34Z"/><path class="cls-3" d="M25,19.37A7.34,7.34,0,0,0,19.74,17a4.35,4.35,0,0,0-1,0,7,7,0,0,0-3.46,1,6.82,6.82,0,0,0-1.86,1.61c-.26.32-.52.64-.75,1-.08.11-.06.16,0,.24.63.41,1.26.82,1.88,1.25.12.08.17,0,.23-.07a4.38,4.38,0,0,1,.52-.7,5.48,5.48,0,0,1,7.42-.45l.08.06h0l.06.05.06.06h0l.06.06h0l.05.06h0l.06.06h0l.06.07c.18.26.37.5.54.76.06.1.11.12.22.05.63-.42,1.26-.84,1.9-1.25.13-.08.12-.14.06-.26A6,6,0,0,0,25,19.37Z"/><path class="cls-3" d="M19.33,22.32a2.81,2.81,0,0,0-2.24,1.16c-.14.17-.09.24.07.34.49.29,1,.57,1.44.89a1.1,1.1,0,0,0,1.39,0,3.36,3.36,0,0,1,.49-.35c.35-.17.66-.4,1-.59.12-.07.13-.13.05-.24A2.82,2.82,0,0,0,19.33,22.32Z"/></g></g></svg>