<svg xmlns="http://www.w3.org/2000/svg" viewBox="0 0 128.85 121.81"><defs><style>.cls-1{fill:#f1f1f1;}.cls-2{fill:#9db795;}.cls-3{fill:#bfdece;}.cls-4{fill:#f14311;}.cls-5{fill:#fa7846;}</style></defs><title>Asset 52</title><g id="Layer_2" data-name="Layer 2"><g id="Layer_4" data-name="Layer 4"><path class="cls-1" d="M103.27,65.1c0,15.33,2,31.33-8,45.33s-30,12-46.39,9.87a73,73,0,0,1-11.73-3.37C22,111.18,9.28,100.43,3.28,85.43-9.47,54.68,17.16,32.93,45.15,20.57c4.66-2.06,9.37-3.85,13.93-5.39,13.2-5.75,32.2-7.75,41.2,5.25,7,11,5,23,3.66,34.67C103.72,58.29,103.5,61.63,103.27,65.1Z"/><rect class="cls-2" x="14.93" y="64.05" width="50.01" height="50.01" rx="12.43"/><rect class="cls-3" x="14.93" y="60.6" width="50.01" height="50.01" rx="12.43"/><path class="cls-2" d="M55.86,85.76c0,2.33,0,4.65,0,7a3.3,3.3,0,0,1-1.82,3.11c-3.3,1.89-6.59,3.8-9.89,5.7-.77.45-1.54.9-2.32,1.34a3.12,3.12,0,0,1-3.29,0L26.17,95.73a3,3,0,0,1-1.61-2.79c0-4.79,0-9.59,0-14.38a3.08,3.08,0,0,1,1.63-2.79l12.37-7.14a3.1,3.1,0,0,1,3.29,0L54.1,75.69a3.26,3.26,0,0,1,1.77,3.06C55.85,81.08,55.86,83.42,55.86,85.76ZM47.38,80.4l5.3-3.06a3.43,3.43,0,0,0-.31-.21L40.86,70.47a1.18,1.18,0,0,0-1.3,0L28.22,77c-.15.08-.29.17-.49.3L33,80.4a9,9,0,0,1,14.34,0ZM32,82.22l-5.3-3a2.35,2.35,0,0,0,0,.25V92.9a1.15,1.15,0,0,0,.64,1l11.49,6.63.35.19a1.72,1.72,0,0,0,0-.21c0-1.88,0-3.76,0-5.64,0-.29-.16-.31-.36-.34a8.93,8.93,0,0,1-7.54-8.79A9.33,9.33,0,0,1,32,82.22Zm9.27,18.55.29-.14,11.59-6.69a1.14,1.14,0,0,0,.62-1.09q0-6.61,0-13.23v-.48l-5.3,3.06a2.08,2.08,0,0,0,.08.26,9,9,0,0,1-6.89,12.1c-.3,0-.39.14-.38.44,0,1.55,0,3.1,0,4.65Zm5.32-17.44-.14,0c-1.66,1-3.32,1.9-5,2.87a.55.55,0,0,0-.2.38c0,1.87,0,3.75,0,5.63a1.48,1.48,0,0,0,0,.19A6.75,6.75,0,0,0,46.58,83.33ZM34.94,81.46l.08.07c1.67,1,3.33,1.94,5,2.89a.49.49,0,0,0,.41,0c.67-.37,1.32-.76,2-1.14l3.07-1.77A6.73,6.73,0,0,0,34.94,81.46Zm-1.07,1.86a6.74,6.74,0,0,0,5.26,9.15.77.77,0,0,0,0-.15c0-1.9,0-3.81,0-5.71a.54.54,0,0,0-.25-.38c-.63-.39-1.29-.76-1.93-1.13Z"/><rect class="cls-2" x="27.13" y="3.33" width="50.01" height="50.01" rx="12.43"/><rect class="cls-3" x="27.13" width="50.01" height="50.01" rx="12.43"/><path class="cls-2" d="M68.07,25a20.93,20.93,0,0,0-29.59,0c-.93-.94-1.87-1.88-2.81-2.81a24.9,24.9,0,0,1,35.21,0Z"/><path class="cls-2" d="M63.94,29.12a15.08,15.08,0,0,0-21.33,0c-.94-.94-1.88-1.87-2.81-2.81a19.06,19.06,0,0,1,27,0Z"/><path class="cls-2" d="M59.82,33.24a9.26,9.26,0,0,0-13.09,0l-2.81-2.81a13.24,13.24,0,0,1,18.71,0Z"/><rect class="cls-4" x="78.84" y="42.93" width="50.01" height="50.01" rx="12.43"/><rect class="cls-5" x="78.84" y="39.49" width="50.01" height="50.01" rx="12.43"/><path class="cls-4" d="M86.37,63.84l10.57-5.22,1.2,2.45L87.72,65.88v-2l10.42,4.81-1.2,2.45L86.37,66Z"/><path class="cls-4" d="M106,55.35h2.94L102.36,76.7H99.42Z"/><path class="cls-4" d="M121.94,66l-10.58,5.23-1.2-2.45,10.43-4.81v2l-10.43-4.81,1.2-2.45,10.58,5.22Z"/></g></g></svg>