<svg xmlns="http://www.w3.org/2000/svg" viewBox="0 0 139.63 119.73"><defs><style>.cls-1{fill:#eee8df;}.cls-2{fill:#9db795;}.cls-3{fill:#bfdece;}.cls-4{fill:#fa7846;}</style></defs><title>Asset 40</title><g id="Layer_2" data-name="Layer 2"><g id="Layer_4" data-name="Layer 4"><path class="cls-1" d="M111,59.16a49.73,49.73,0,0,1,8.93,18.52,27.85,27.85,0,0,1-2.55,19.76c-10,18-33,22-52.68,22.15a100.54,100.54,0,0,1-16.95-.52C25.62,116.44,6.37,105.94,1.37,85.44A38.68,38.68,0,0,1,.48,69.29C17.37,31.44,62.37-20.56,105.37,8.44c9,6,0,21,1.13,32.63C107.81,46.93,109.34,53,111,59.16Z"/><path class="cls-2" d="M60.72,106.62h46.12a0,0,0,0,1,0,0v2.16a1.25,1.25,0,0,1-1.25,1.25H62a1.25,1.25,0,0,1-1.25-1.25v-2.16a0,0,0,0,1,0,0Z"/><path class="cls-3" d="M106.19,107.28H61.37a.64.64,0,0,1-.46-1.08l2.28-2.43A20.45,20.45,0,0,0,68.36,93.6l2.9-15.21h25l2.91,15.23a20.54,20.54,0,0,0,5.16,10.14l2.29,2.44A.64.64,0,0,1,106.19,107.28Z"/><rect class="cls-2" x="30.82" y="15.77" width="108.82" height="69.33" rx="4.37"/><rect class="cls-3" x="30.82" y="12.91" width="108.82" height="69.33" rx="4.37"/><path class="cls-4" d="M35.18,12.91H135.27a4.37,4.37,0,0,1,4.37,4.37V72a0,0,0,0,1,0,0H30.82a0,0,0,0,1,0,0V17.27A4.37,4.37,0,0,1,35.18,12.91Z"/><rect class="cls-3" x="34.15" y="16.02" width="102.14" height="52.92"/><line class="cls-2" x1="45.38" y1="41.88" x2="72.33" y2="41.88"/><rect class="cls-2" x="45.38" y="41.64" width="26.95" height="0.48"/><line class="cls-2" x1="45.38" y1="41.88" x2="45.38" y2="41.39"/><rect class="cls-2" x="45.14" y="41.39" width="0.48" height="0.49"/><line class="cls-2" x1="49.23" y1="41.88" x2="49.23" y2="41.39"/><rect class="cls-2" x="48.99" y="41.39" width="0.48" height="0.49"/><line class="cls-2" x1="53.08" y1="41.88" x2="53.08" y2="41.39"/><rect class="cls-2" x="52.84" y="41.39" width="0.48" height="0.49"/><line class="cls-2" x1="56.93" y1="41.88" x2="56.93" y2="41.39"/><rect class="cls-2" x="56.69" y="41.39" width="0.48" height="0.49"/><line class="cls-2" x1="60.78" y1="41.88" x2="60.78" y2="41.39"/><rect class="cls-2" x="60.54" y="41.39" width="0.48" height="0.49"/><line class="cls-2" x1="64.63" y1="41.88" x2="64.63" y2="41.39"/><rect class="cls-2" x="64.39" y="41.39" width="0.48" height="0.49"/><line class="cls-2" x1="68.48" y1="41.88" x2="68.48" y2="41.39"/><rect class="cls-2" x="68.24" y="41.39" width="0.48" height="0.49"/><line class="cls-2" x1="72.33" y1="41.88" x2="72.33" y2="41.39"/><rect class="cls-2" x="72.09" y="41.39" width="0.48" height="0.49"/><line class="cls-2" x1="45.38" y1="41.88" x2="45.38" y2="22.3"/><rect class="cls-2" x="45.14" y="22.3" width="0.48" height="19.58"/><line class="cls-2" x1="45.38" y1="41.88" x2="46.06" y2="41.88"/><rect class="cls-2" x="45.38" y="41.64" width="0.67" height="0.48"/><line class="cls-2" x1="45.38" y1="37.96" x2="46.06" y2="37.96"/><rect class="cls-2" x="45.38" y="37.73" width="0.67" height="0.48"/><line class="cls-2" x1="45.38" y1="34.05" x2="46.06" y2="34.05"/><rect class="cls-2" x="45.38" y="33.81" width="0.67" height="0.48"/><line class="cls-2" x1="45.38" y1="30.13" x2="46.06" y2="30.13"/><rect class="cls-2" x="45.38" y="29.89" width="0.67" height="0.48"/><line class="cls-2" x1="45.38" y1="26.22" x2="46.06" y2="26.22"/><rect class="cls-2" x="45.38" y="25.98" width="0.67" height="0.48"/><line class="cls-2" x1="45.38" y1="22.3" x2="46.06" y2="22.3"/><rect class="cls-2" x="45.38" y="22.06" width="0.67" height="0.48"/><line class="cls-2" x1="53.08" y1="34.05" x2="45.38" y2="39.92"/><path class="cls-2" d="M45.38,40.4a.5.5,0,0,1-.38-.19.48.48,0,0,1,.09-.67l7.7-5.87a.48.48,0,1,1,.58.76l-7.7,5.87A.45.45,0,0,1,45.38,40.4Z"/><line class="cls-2" x1="56.93" y1="36.01" x2="53.08" y2="34.05"/><path class="cls-2" d="M56.93,36.48a.41.41,0,0,1-.21,0l-3.85-2a.47.47,0,0,1-.21-.64.48.48,0,0,1,.64-.21l3.85,2a.48.48,0,0,1,.21.64A.47.47,0,0,1,56.93,36.48Z"/><line class="cls-2" x1="68.48" y1="24.26" x2="56.93" y2="36.01"/><path class="cls-2" d="M56.93,36.48a.46.46,0,0,1-.33-.13.49.49,0,0,1,0-.68L68.14,23.92a.48.48,0,0,1,.68.67L57.27,36.34A.48.48,0,0,1,56.93,36.48Z"/><circle class="cls-2" cx="53.44" cy="34.09" r="0.87"/><path class="cls-2" d="M53.44,35.44a1.35,1.35,0,1,1,1.35-1.35A1.34,1.34,0,0,1,53.44,35.44Zm0-1.74a.4.4,0,1,0,0,.79.4.4,0,0,0,0-.79Z"/><circle class="cls-2" cx="56.92" cy="35.84" r="0.87"/><path class="cls-2" d="M56.92,37.19a1.35,1.35,0,1,1,1.35-1.35A1.36,1.36,0,0,1,56.92,37.19Zm0-1.75a.39.39,0,0,0-.39.4.38.38,0,0,0,.39.39.39.39,0,0,0,.4-.39A.4.4,0,0,0,56.92,35.44Z"/><circle class="cls-2" cx="68.61" cy="24.11" r="0.87"/><path class="cls-2" d="M68.61,25.46A1.35,1.35,0,1,1,70,24.11,1.36,1.36,0,0,1,68.61,25.46Zm0-1.75a.4.4,0,0,0-.4.4.4.4,0,0,0,.8,0A.4.4,0,0,0,68.61,23.71Z"/><circle class="cls-2" cx="45.41" cy="39.87" r="0.87"/><path class="cls-2" d="M45.41,41.22a1.35,1.35,0,1,1,1.35-1.35A1.34,1.34,0,0,1,45.41,41.22Zm0-1.74a.4.4,0,1,0,.39.39A.4.4,0,0,0,45.41,39.48Z"/><rect class="cls-2" x="79.48" y="23.97" width="44.21" height="2.38" rx="1.19"/><rect class="cls-2" x="79.48" y="28.14" width="34.27" height="2.38" rx="1.19"/><rect class="cls-2" x="79.48" y="32.31" width="38.47" height="2.38" rx="1.19"/><rect class="cls-2" x="51.09" y="48.79" width="44.21" height="2.38" rx="1.19"/><rect class="cls-2" x="51.09" y="52.96" width="34.27" height="2.38" rx="1.19"/><rect class="cls-2" x="51.09" y="57.13" width="38.47" height="2.38" rx="1.19"/><rect class="cls-2" x="122.47" y="59.32" width="2.86" height="2.99"/><path class="cls-2" d="M125.56,59.23v3.18h-3.32V59.23Zm-.46,3v-2.8h-2.4v2.8Z"/><rect class="cls-2" x="118.5" y="53.34" width="2.86" height="8.97"/><path class="cls-2" d="M121.58,53.24v9.17h-3.31V53.24Zm-.45,9V53.44h-2.41v8.78Z"/><rect class="cls-2" x="114.52" y="47.36" width="2.86" height="14.95"/><path class="cls-2" d="M117.61,47.26V62.41H114.3V47.26Zm-.45,15V47.46h-2.41V62.22Z"/><rect class="cls-2" x="110.55" y="50.35" width="2.86" height="11.96"/><path class="cls-2" d="M113.64,50.25V62.41h-3.32V50.25Zm-.46,12V50.45h-2.4V62.22Z"/><rect class="cls-2" x="106.58" y="44.37" width="2.86" height="17.94"/><path class="cls-2" d="M109.67,44.27V62.41h-3.32V44.27Zm-.46,17.95V44.47H106.8V62.22Z"/><rect class="cls-4" x="104.21" y="42.74" width="0.61" height="20.14"/><rect class="cls-4" x="104.21" y="62.27" width="22.28" height="0.61"/><rect class="cls-4" x="104.51" y="58.91" width="0.7" height="0.84"/><rect class="cls-4" x="104.51" y="55.22" width="0.7" height="0.84"/><rect class="cls-4" x="104.51" y="51.54" width="0.7" height="0.84"/><rect class="cls-4" x="104.51" y="47.85" width="0.7" height="0.84"/><rect class="cls-4" x="104.51" y="44.16" width="0.7" height="0.84"/></g></g></svg>