<svg xmlns="http://www.w3.org/2000/svg" viewBox="0 0 124.32 125.53"><defs><style>.cls-1{fill:#eee8df;}.cls-2{fill:#bfdece;}.cls-3{fill:#fa7846;}.cls-4{fill:#fff;}.cls-5{fill:none;stroke:#fff;stroke-miterlimit:10;}.cls-6{fill:#9db795;}.cls-7{fill:#436870;}</style></defs><title>Asset 41</title><g id="Layer_2" data-name="Layer 2"><g id="Layer_4" data-name="Layer 4"><path class="cls-1" d="M86.24,59.26C92,63.2,99.53,66,100.47,72.6c5.64,28.19-21.61,56.38-50.89,52.59a48.87,48.87,0,0,1-7-1,44.84,44.84,0,0,1-19.15-9.28c-13.16-11.28-11.28-31-11.61-48A42.13,42.13,0,0,0,9.8,58a59.64,59.64,0,0,0-3.53-7.4c-1.35-2.41-2.83-4.79-4.47-7.14C-1,38.77-.08,33.13,1.62,27.76A28,28,0,0,1,6.49,20C17.77,7.75,35.63-8.22,52.54,4.93a23.88,23.88,0,0,1,7,8.69,38.76,38.76,0,0,1,3,10,32.66,32.66,0,0,0,.37,6.44c2.85,9.61,8.49,19.94,17.49,25Z"/><rect class="cls-2" x="30.96" y="17.28" width="65.11" height="32.91" rx="1.77"/><rect class="cls-2" x="5.45" y="61.07" width="53.94" height="27.26" rx="1.77"/><rect class="cls-3" x="22.34" y="80.97" width="19.85" height="14.46" rx="2.27"/><path class="cls-4" d="M37.83,85.21v5.88h-11V85.21h11m1-1h-13v7.88h13V84.21Z"/><polyline class="cls-5" points="38.45 84.66 32.32 90.08 26.19 84.66"/><line class="cls-5" x1="30.75" y1="88.62" x2="26.26" y2="91.54"/><line class="cls-5" x1="38.39" y1="91.54" x2="33.99" y2="88.68"/><rect class="cls-6" x="13.47" y="68.79" width="38.11" height="4.9" rx="2.33"/><rect class="cls-2" x="70.38" y="61.07" width="53.94" height="27.26" rx="1.77"/><rect class="cls-3" x="87.27" y="80.97" width="19.85" height="14.46" rx="2.27"/><path class="cls-4" d="M102.76,85.21v5.88h-11V85.21h11m1-1h-13v7.88h13V84.21Z"/><polyline class="cls-5" points="103.39 84.66 97.25 90.08 91.12 84.66"/><line class="cls-5" x1="95.68" y1="88.62" x2="91.19" y2="91.54"/><line class="cls-5" x1="103.32" y1="91.54" x2="98.92" y2="88.68"/><rect class="cls-6" x="78.4" y="68.79" width="38.11" height="4.9" rx="2.33"/><rect class="cls-6" x="38.42" y="26.26" width="38.11" height="4.9" rx="2.33"/><rect class="cls-6" x="46.36" y="35.33" width="38.11" height="4.9" rx="2.33"/><rect class="cls-7" x="87.2" y="21.61" width="24.84" height="24.84" rx="11.82" transform="translate(53.24 -60.47) rotate(45)"/><rect class="cls-5" x="94.74" y="26.73" width="3.65" height="3.65" transform="translate(48.47 -59.92) rotate(45)"/><rect class="cls-5" x="94.74" y="36.47" width="3.65" height="3.65" transform="translate(55.36 -57.07) rotate(45)"/><rect class="cls-5" x="102.91" y="36.47" width="3.65" height="3.65" transform="translate(57.76 -62.84) rotate(45)"/><line class="cls-5" x1="96.57" y1="31.14" x2="96.57" y2="33.92"/><polyline class="cls-5" points="96.57 35.71 96.57 33.7 104.67 33.7 104.67 35.71"/></g></g></svg>