<svg xmlns="http://www.w3.org/2000/svg" viewBox="0 0 145.94 111.09"><defs><style>.cls-1{fill:#eee8df;}.cls-2{fill:#bfdece;}.cls-3{fill:#9db795;}.cls-10,.cls-4,.cls-6,.cls-9{fill:none;}.cls-4{stroke:#9db795;stroke-linecap:round;stroke-width:3px;}.cls-10,.cls-4,.cls-6{stroke-miterlimit:10;}.cls-5{fill:#fa7846;}.cls-6,.cls-9{stroke:#fff;}.cls-10,.cls-6{stroke-width:2px;}.cls-7{fill:#436870;}.cls-8{fill:#fff;}.cls-9{stroke-width:4px;}.cls-10{stroke:#f14311;}</style></defs><title>Asset 42</title><g id="Layer_2" data-name="Layer 2"><g id="Layer_4" data-name="Layer 4"><path class="cls-1" d="M103.27,54.37c0,15.34,2,31.34-8,45.34s-30,12-46.39,9.87a74,74,0,0,1-11.73-3.37C22,100.46,9.28,89.71,3.28,74.71-9.47,44,17.16,22.21,45.15,9.85,49.81,7.79,54.52,6,59.08,4.46c13.2-5.75,32.2-7.75,41.2,5.25,7,11,5,23,3.66,34.67C103.72,47.56,103.5,50.91,103.27,54.37Z"/><rect class="cls-2" x="43.63" y="16.06" width="78.66" height="77.35" rx="1.77"/><path class="cls-3" d="M45.4,16.06h75.11a1.77,1.77,0,0,1,1.77,1.77v7.25a0,0,0,0,1,0,0H43.63a0,0,0,0,1,0,0V17.84A1.77,1.77,0,0,1,45.4,16.06Z"/><line class="cls-4" x1="81.81" y1="37.04" x2="108.7" y2="37.04"/><line class="cls-4" x1="81.81" y1="44.57" x2="102.12" y2="44.57"/><line class="cls-4" x1="62.7" y1="67.16" x2="97.45" y2="67.16"/><line class="cls-4" x1="62.7" y1="59.63" x2="104.27" y2="59.63"/><line class="cls-4" x1="62.7" y1="74.68" x2="104.27" y2="74.68"/><line class="cls-4" x1="62.7" y1="52.1" x2="106.31" y2="52.1"/><rect class="cls-5" x="87.71" y="55.4" width="45.19" height="32.92" rx="2.27"/><rect class="cls-6" x="98.65" y="64.81" width="23.6" height="13.9"/><polyline class="cls-6" points="121.58 65.6 110.45 75.17 99.32 65.6"/><line class="cls-6" x1="107.6" y1="72.59" x2="99.45" y2="77.74"/><line class="cls-6" x1="121.46" y1="77.74" x2="113.47" y2="72.7"/><circle class="cls-7" cx="55.3" cy="55.38" r="3.15"/><polygon class="cls-8" points="58.69 51.7 55.35 55.38 54.38 54.64 53.84 54.64 55.35 57.09 59.23 51.7 58.69 51.7"/><circle class="cls-7" cx="55.3" cy="64.51" r="3.15"/><polygon class="cls-8" points="58.69 60.84 55.35 64.51 54.38 63.78 53.84 63.78 55.35 66.23 59.23 60.84 58.69 60.84"/><circle class="cls-7" cx="55.3" cy="73.65" r="3.15"/><polygon class="cls-8" points="58.69 69.98 55.35 73.65 54.38 72.92 53.84 72.92 55.35 75.37 59.23 69.98 58.69 69.98"/><circle class="cls-9" cx="133.45" cy="88.18" r="7.45"/><line class="cls-9" x1="133.45" y1="75.69" x2="133.45" y2="100.67"/><line class="cls-9" x1="145.94" y1="88.18" x2="120.96" y2="88.18"/><circle class="cls-10" cx="133.45" cy="88.18" r="7.45"/><line class="cls-10" x1="133.45" y1="75.69" x2="133.45" y2="100.67"/><line class="cls-10" x1="145.94" y1="88.18" x2="120.96" y2="88.18"/><circle class="cls-3" cx="66.07" cy="35.26" r="4.36"/><path class="cls-3" d="M73.25,47H58.94v0a6.94,6.94,0,0,1,6.93-6.94h.45A6.94,6.94,0,0,1,73.25,47Z"/></g></g></svg>