<svg xmlns="http://www.w3.org/2000/svg" viewBox="0 0 138.85 124.87"><defs><style>.cls-1{fill:#eee8df;}.cls-2{fill:#9db795;}.cls-3{fill:#fa7846;}.cls-4{fill:#f14311;}.cls-5{fill:#bfdece;}</style></defs><title>Asset 39</title><g id="Layer_2" data-name="Layer 2"><g id="Layer_4" data-name="Layer 4"><path class="cls-1" d="M115.91,66.46c6.2,12.66,4.2,28.66-5.8,38.66-8.25,7.5-18.19,10.5-28.43,12.76-3.41.76-6.86,1.43-10.29,2.16-20.28,5.08-45.28,10.08-60.28-6.92-30-34,8-76,29-105,19-25,46,14,60.86,32.8q3.12,4.26,6,8.7t5.45,9.08A68,68,0,0,1,115.91,66.46Z"/><path class="cls-2" d="M37.12,72.38a48.05,48.05,0,1,0,96.1,0H37.12"/><path class="cls-3" d="M138.85,60.86A48.42,48.42,0,0,0,90.43,12.44V60.86Z"/><circle class="cls-4" cx="111.88" cy="33.96" r="5.3"/><path class="cls-4" d="M111.65,39.82h.54a8.43,8.43,0,0,1,8.43,8.43v4.83a0,0,0,0,1,0,0H103.22a0,0,0,0,1,0,0V48.25a8.43,8.43,0,0,1,8.43-8.43Z"/><polygon class="cls-2" points="41.97 45.76 41.97 56.48 85.17 67.62 41.97 45.76"/><path class="cls-5" d="M42,45.76l43.2,21.86V19.2A48.39,48.39,0,0,0,42,45.76Z"/><path class="cls-5" d="M85.17,67.62l-45.72-16a48.43,48.43,0,1,0,94.15,16Z"/><rect class="cls-2" x="83.51" y="77.5" width="37.6" height="4.27" rx="2.07"/><rect class="cls-2" x="83.51" y="85" width="30.89" height="4.27" rx="2.07"/><rect class="cls-2" x="83.51" y="92.01" width="34.95" height="4.27" rx="2.07"/><circle class="cls-2" cx="67.09" cy="78.76" r="5.3"/><path class="cls-2" d="M66.85,84.61h.54A8.43,8.43,0,0,1,75.82,93v4.83a0,0,0,0,1,0,0H58.42a0,0,0,0,1,0,0V93A8.43,8.43,0,0,1,66.85,84.61Z"/></g></g></svg>