<svg xmlns="http://www.w3.org/2000/svg" viewBox="0 0 1280.34 215.26"><defs><style>.cls-1{isolation:isolate;}.cls-11,.cls-2{fill:#3f4953;}.cls-2{fill-rule:evenodd;}.cls-3{mix-blend-mode:multiply;}.cls-4{fill:#444e58;}.cls-5{fill:#f7f8f8;}.cls-6{fill:#454f59;}.cls-7{fill:#525a63;}.cls-8{fill:#fdfdfd;}.cls-9{fill:#424c56;}.cls-10{fill:#4b545e;}.cls-12{fill:#48505a;}.cls-13{fill:#585f67;}.cls-14{fill:#50575f;}.cls-15{fill:#535860;}.cls-16{fill:#4f565e;}.cls-17{fill:#50555b;}.cls-18{fill:#5a6168;}.cls-19{fill:#4e575d;}.cls-20{fill:#585f66;}.cls-21{fill:#535a60;}.cls-22{fill:#6d7379;}.cls-23{fill:#50565d;}.cls-24{fill:#595d65;}.cls-25{fill:#454f57;}.cls-26{fill:#484e57;}.cls-27{fill:#424c54;}.cls-28{fill:#484d56;}.cls-29{fill:#e0e5e9;}.cls-30{fill:#dee2e6;}.cls-31{fill:#dde3e5;}.cls-32{fill:#dadee0;}.cls-33{fill:#dbe0e5;}.cls-34{fill:#dde3e7;}.cls-35{fill:#d3d9dd;}.cls-36{fill:#c9ced1;}.cls-37{fill:#f7fcfc;}.cls-38{fill:#eeeff0;}.cls-39{fill:#f3f5f4;}.cls-40{fill:#edf1f3;}.cls-41{fill:#f6f7f8;}.cls-42{fill:#f3f5f5;}.cls-43{fill:#485058;}.cls-44{fill:#3e4953;}.cls-45{fill:#3f4955;}.cls-46{fill:#f6f7f7;}.cls-47{fill:#3f4954;}.cls-48{fill:#3f4a55;}.cls-49{fill:#3f4a54;}.cls-50{fill:#404a54;}.cls-51{fill:#fdfdfc;}.cls-52{fill:#fcfcfc;}.cls-53{fill:#fafbfb;}.cls-54{fill:#f1f2f4;}.cls-55{fill:#3f4b56;}.cls-56{fill:#414b55;}.cls-57{fill:#49525c;}.cls-58{fill:#f7f9f9;}.cls-59{fill:#f5f6f6;}.cls-60{fill:#3e4955;}.cls-61{fill:#414b56;}.cls-62{fill:#424c58;}.cls-63{fill:#444f58;}.cls-64{fill:#fbfbfb;}.cls-65{fill:#565b62;}.cls-66{fill:#fcfdfd;}.cls-67{fill:#fbfcfc;}.cls-68{fill:#404a55;}.cls-69{fill:#404b56;}.cls-70{fill:#404a56;}.cls-71{fill:#fafbfa;}.cls-72{fill:#f9fafa;}</style></defs><title>Asset 52</title><g class="cls-1"><g id="Layer_2" data-name="Layer 2"><g id="Layer_4" data-name="Layer 4"><path class="cls-2" d="M1008,168.59a13.64,13.64,0,0,0-2.58-5.16,14.94,14.94,0,0,0-4.42-3.68,18.8,18.8,0,0,0-11.68-2.06,14.67,14.67,0,0,0-5.4,1.95,13.82,13.82,0,0,0-4.16,4,14.47,14.47,0,0,0-2.34,5.94,15.1,15.1,0,0,0,.15,6.45,14.08,14.08,0,0,0,2.55,5.21,14.42,14.42,0,0,0,4.39,3.72A18.15,18.15,0,0,0,996.18,187a14.89,14.89,0,0,0,5.43-2,14,14,0,0,0,4.19-4,16.06,16.06,0,0,0,2.18-12.39Zm-8.68,3.56a.75.75,0,0,1,.5.94.14.14,0,0,1,0,.06,6.82,6.82,0,0,1-8.15,4c-3.93-1.18-5.91-4.2-5.28-8a.74.74,0,0,1,.85-.62l.1,0Z"/><path class="cls-2" d="M955.27,157.82a1.48,1.48,0,0,1,1.47,1.47h0V161h.11a9.09,9.09,0,0,1,3.24-2.77,10.15,10.15,0,0,1,4.93-1.17,10.26,10.26,0,0,1,5,1.09,9.2,9.2,0,0,1,3.16,2.82,10.94,10.94,0,0,1,1.63,3.87,20.46,20.46,0,0,1,.47,4.27v16.07a1.47,1.47,0,0,1-1.47,1.47h-9.71a1.47,1.47,0,0,1-1.47-1.47h0V171.3a5.08,5.08,0,0,0-.68-3.06,2.4,2.4,0,0,0-2-.88,2.47,2.47,0,0,0-2,1,4.71,4.71,0,0,0-.79,2.93v13.88a1.46,1.46,0,0,1-1.46,1.47h-9.66a1.48,1.48,0,0,1-1.47-1.47v-25.9a1.47,1.47,0,0,1,1.46-1.46Z"/><path class="cls-2" d="M812.3,187.74a16.11,16.11,0,0,1-5-.76,16.58,16.58,0,0,1-4.22-2.08,14.37,14.37,0,0,1-3.24-3.13,11.27,11.27,0,0,1-1.43-2.47,1.47,1.47,0,0,1,.8-1.91h0l8.46-3.25a1.48,1.48,0,0,1,1.8.57,4,4,0,0,0,.33.47,1.93,1.93,0,0,0,1.55.69,1.72,1.72,0,0,0,1.69-.85,4.76,4.76,0,0,0,.44-2.17v-23.5a1.47,1.47,0,0,1,1.47-1.47h10.09a1.46,1.46,0,0,1,1.46,1.46h0v23a25.44,25.44,0,0,1-.57,5.37,13.41,13.41,0,0,1-2.15,5,11.81,11.81,0,0,1-4.36,3.67,15.9,15.9,0,0,1-7.2,1.42Z"/><path class="cls-2" d="M848.9,186.65a1.47,1.47,0,0,1-1.47-1.47v-1.71h-.11a9.09,9.09,0,0,1-3.24,2.77,10.06,10.06,0,0,1-4.93,1.17,10.47,10.47,0,0,1-5-1.06,8.87,8.87,0,0,1-3.13-2.8,11.06,11.06,0,0,1-1.64-3.89,20,20,0,0,1-.46-4.3V159.3a1.46,1.46,0,0,1,1.46-1.46h9.71a1.46,1.46,0,0,1,1.47,1.46h0v13.76a5.17,5.17,0,0,0,.68,3.07,2.43,2.43,0,0,0,2,.88,2.49,2.49,0,0,0,2-1,4.65,4.65,0,0,0,.79-2.93V159.3a1.46,1.46,0,0,1,1.47-1.46h9.65a1.46,1.46,0,0,1,1.47,1.46h0v25.9a1.45,1.45,0,0,1-1.46,1.45H848.9Z"/><path class="cls-2" d="M886.38,177.5a9.07,9.07,0,0,1-1.23,4.88,9.69,9.69,0,0,1-3.1,3.14,13.4,13.4,0,0,1-4.12,1.7,18.45,18.45,0,0,1-4.25.52,25.3,25.3,0,0,1-7.28-1.06,20.59,20.59,0,0,1-4.76-2.08,1.47,1.47,0,0,1-.49-2,1.43,1.43,0,0,1,.14-.2l4.16-4.85a1.48,1.48,0,0,1,2-.24,10.69,10.69,0,0,0,2.05,1.11,8.66,8.66,0,0,0,3.4.74,3.07,3.07,0,0,0,1.23-.24.89.89,0,0,0,.57-.9c0-.48-.34-.85-1-1.12a26.09,26.09,0,0,0-3.51-1,16.6,16.6,0,0,1-2.78-1,9.82,9.82,0,0,1-2.59-1.67,8.43,8.43,0,0,1-1.93-2.55,7.86,7.86,0,0,1-.77-3.59,8.8,8.8,0,0,1,1.23-4.76,10.25,10.25,0,0,1,3.11-3.21,13.83,13.83,0,0,1,4.08-1.81,16.31,16.31,0,0,1,4.17-.57,22.69,22.69,0,0,1,6.6,1,13.32,13.32,0,0,1,3.85,1.91,1.47,1.47,0,0,1,.41,2l0,.05L882,166.46a1.48,1.48,0,0,1-1.87.45,10.61,10.61,0,0,0-1.69-.75,8.58,8.58,0,0,0-2.78-.5,4.2,4.2,0,0,0-1.53.25.93.93,0,0,0-.6,1c0,.36.23.64.68.85a20,20,0,0,0,3.14.79,16.47,16.47,0,0,1,3.29,1,11.25,11.25,0,0,1,2.89,1.76,7.86,7.86,0,0,1,2,2.6,8,8,0,0,1,.76,3.61Z"/><path class="cls-2" d="M902.29,187.41q-5.77,0-8.55-2.49c-1.86-1.66-2.78-4.24-2.78-7.75v-8.83a1.47,1.47,0,0,0-1.47-1.47h-1.1a1.46,1.46,0,0,1-1.46-1.46V159.3a1.46,1.46,0,0,1,1.47-1.46h1.05a1.47,1.47,0,0,0,1.47-1.47v-3.53a1.46,1.46,0,0,1,1.46-1.47h9.28a1.46,1.46,0,0,1,1.46,1.47v3.53a1.48,1.48,0,0,0,1.47,1.47h3.27a1.46,1.46,0,0,1,1.47,1.46v6.11a1.48,1.48,0,0,1-1.47,1.47h-3.28a1.46,1.46,0,0,0-1.47,1.46v6.2a3.56,3.56,0,0,0,.9,2.83,3.82,3.82,0,0,0,2.48.73,13.84,13.84,0,0,0,1.44,0h0a1.47,1.47,0,0,1,1.67,1.23,17.18,17.18,0,0,0,1.54,4.51,1.53,1.53,0,0,1-.51,2.1c-3.28,1.77-7.2,1.5-8.34,1.5Z"/><path class="cls-2" d="M931.26,186.65a1.46,1.46,0,0,1-1.46-1.47v-1.71h-.11a9.21,9.21,0,0,1-3.25,2.77,10.15,10.15,0,0,1-4.93,1.17,10.45,10.45,0,0,1-5-1.06,8.9,8.9,0,0,1-3.14-2.8,11,11,0,0,1-1.63-3.89,20.14,20.14,0,0,1-.46-4.3V159.29a1.46,1.46,0,0,1,1.46-1.47h9.71a1.47,1.47,0,0,1,1.47,1.47h0v13.76a5.19,5.19,0,0,0,.68,3.07,2.43,2.43,0,0,0,2,.88,2.51,2.51,0,0,0,2-1,4.71,4.71,0,0,0,.79-2.93V159.29a1.46,1.46,0,0,1,1.46-1.47h9.67a1.46,1.46,0,0,1,1.46,1.47h0V185.2a1.46,1.46,0,0,1-1.46,1.46Z"/><g id="YhB3Rc" class="cls-3"><path class="cls-4" d="M0,50.5c2.05-5.08,1.7-10.58,2.66-15.86A113.39,113.39,0,0,0,4.38,21c.19-3.08,1.3-4.89,4.37-5.39,2.64-.44,4.33-1.59,4.85-4.57.35-2,1.68-3.82,2.66-5.67C20.77-3.08,29.43-.38,35,5.37c3.86,4,2.76,7.82,2.83,11.8.21,13.76,0,27.53.15,41.28,0,3-.84,3.41-3.61,2.88-10.33-2-20.71-3.71-31.07-5.5A22.75,22.75,0,0,0,0,55.71Zm25-31.45c-5.88,0-10.6,2.89-12.12,7.33-1.6,4.68-.89,9.37,4.5,12.34,1.55.86,3.19,2.47,2,4.58-1.3,2.3-3.34,1.21-5.26.7-.93-.25-2.11-2.22-2.91-.26-.63,1.54-1.83,3.38,0,5.11,3.29,3.09,10.5,3.13,13.76,0,3.6-3.44,3.75-10.2.15-13.74a46.35,46.35,0,0,0-4.74-3.54c-1-.75-2-1.59-1.7-3s1.61-2.13,3-2.41a8.64,8.64,0,0,1,2.59,0c2.75.28,4.17-1.33,4.27-5.19C28.63,17.74,25.9,20,25.05,19.05ZM15,13.62c2.12-.7,4.47-.32,5.11-2.33A23.86,23.86,0,0,1,25.7,1.87C20.53,1.94,17,5.9,15,13.62Zm7.5-2.78c6.19-.34,7.24-1.86,4.87-7C24.54,5.39,23.37,8,22.45,10.84Zm6.89-7.53c1.43,2.15.27,4.27,2.15,5.32.35.2,1.83-.72,1.79-.89C32.88,6.07,32.12,4.58,29.34,3.31Z"/><path class="cls-4" d="M223.41,25.2c-3.54,5.8-5.88,12.18-8.85,18.26a69.84,69.84,0,0,1-7.7,13.08,21.11,21.11,0,0,1-5.45,5c-4.18,2.53-5,2.17-6.14-2.51-.38-1.52,0-2.2,1.43-2.79a12.83,12.83,0,0,0,4.74-3.53A5.68,5.68,0,0,0,203,47.32c-1.45-6.76-2.52-13.61-3.88-20.4-.4-2,0-2.56,2.09-2.6,5.48-.12,5.44-.22,6,5.36.37,3.89.87,7.76,1.44,12.76,2-5.34,3.84-9.53,5.12-13.88,1-3.45,2.9-4.8,6.37-4.23a26.5,26.5,0,0,0,3.34.13Z"/><path class="cls-4" d="M38.92,7.6c2.58,2.46,4.8,4,7.89,3.57,1.27-.17,1.29,1.31,1.43,2.23,2.06,13.94,4.07,27.89,6.16,41.83.3,2-.3,2.92-2.25,3.34Q46.54,59.8,41,61.3c-1.47.4-2.08.15-2.08-1.44C38.93,42.7,38.92,25.54,38.92,7.6Z"/><path class="cls-4" d="M149.63,27.21c3.87-3,7.67-5.16,11.84-2.14s3.88,7.43,3.22,11.85c-1.18,7.95-6,13.56-12.6,14.74a11.83,11.83,0,0,0-1.47.22c-1.68.48-3.72-1.71-4.81-.1s-.85,3.79-1.36,5.69.34,4.92-3.57,4.71c-5.2-.27-5,.3-4-4.42,2-10.31,3.76-20.68,5.56-31,.28-1.64.7-2.91,2.74-2.55C147,24.51,150,22.78,149.63,27.21Zm7.51,7.64c-.06-2.1-.13-3.92-2.2-4.59s-3.32.53-4.42,2c-2.21,2.88-2.53,6.39-3,9.8-.17,1.18-1.3,2.73.54,3.61a4.09,4.09,0,0,0,4.82-.74C155.91,42.11,156.73,38.4,157.14,34.85Z"/><path class="cls-4" d="M96.49,26.7a43.26,43.26,0,0,1,5.27-2.57c4.88-1.59,8.5,1,8.51,6.1,0,6.73-1.83,13.23-3.27,19.72-.65,2.93-4,1.1-6.17,1.25s-1.1-1.8-1-2.7c.72-4.64,1.64-9.25,2.47-13.88.31-1.75.56-3.69-1.49-4.45s-3.27.69-4.29,2.15c-3,4.36-2.87,9.64-4,14.53-1,4.29-2.68,5.4-7.09,4.46-1.3-.28-1.21-.89-1-1.81,2.22-11.66,4.33-23.34,6.68-35,.82-4,4.31-1.84,6.48-1.92,2.91-.11.92,2.19.79,3.24C97.92,19.38,97.17,22.87,96.49,26.7Z"/><path class="cls-4" d="M137.79,34.61c0,8.8-5.24,15.77-12.88,17.11-6.92,1.2-12.27-3.18-12.46-10.19-.23-8.39,4.49-15.38,11.69-17.32C131.91,22.11,137.77,26.58,137.79,34.61Zm-7.56,0c-.18-1.7,0-4.06-2.54-4.85s-4.18.87-5.33,2.91a16.49,16.49,0,0,0-2.1,8.51c0,2,.4,4.11,2.83,4.65s3.73-1,4.75-2.75A22.41,22.41,0,0,0,130.23,34.63Z"/><path class="cls-4" d="M183.17,51.19c-3,.61-4-.08-3.16-3.38,1.3-5,2-10.18,2.94-15.29.15-.84.92-2.21-.66-2.35-1.8-.17-2.48-.82-2-2.56.45-1.51.12-3.58,2.87-3.34,2.14.19,1.53-1.92,1.87-3,2-6.5,6.51-10,12.51-9.32,1.21.13,3.31-.11,2.64,2-.5,1.54.52,4.46-2.73,4.31-2.45-.11-3.9,1-4.8,3.23-.79,2-.7,3,1.83,2.92.9,0,3-.86,2.34,1.49-.43,1.51.67,4.41-2.41,4.07-3.3-.36-3.82,1.47-4.23,4-.74,4.51-1.82,9-2.46,13.49C187.33,50.33,186.43,52.12,183.17,51.19Z"/><path class="cls-4" d="M77.54,23.67c1.39.14,2.49,0,3.33.4,1.13.54,3.83-.4,2.84,2.54-.62,1.81-.5,4.48-3.79,3.11a5.41,5.41,0,0,0-2.21-.18c-1.38.05-2.82.14-3.23,1.84-.35,1.45.57,2.29,1.66,3s2.12,1.3,3.08,2.06C84.06,40.27,83.61,47,78.2,50c-4.1,2.31-8.43,2.3-12.9.83-2.32-.77-1.54-2.16-1-3.45s.41-3.27,2.8-2.11a9.44,9.44,0,0,0,4.7.82c1.19-.05,2.26-.34,2.68-1.57a2.71,2.71,0,0,0-1-3.3c-.8-.58-1.6-1.17-2.43-1.69-3-1.85-4.76-4.25-4.18-8s3-5.83,6.37-7A30.27,30.27,0,0,1,77.54,23.67Z"/><path class="cls-4" d="M168.87,51.18c-3.43.75-3.62-.64-3-3.54,1.53-6.87,2.72-13.81,3.91-20.76.8-4.64,4.33-2.26,6.51-2.37,3.16-.16,1.08,2.38.91,3.45-1.07,6.46-2.61,12.84-3.54,19.32C173.21,50.53,172.15,52.06,168.87,51.18Z"/><path class="cls-4" d="M179.5,17.27c-.23,2.21-1.64,3.7-4.49,3.66-2.52,0-3.59-1.62-3.48-3.79a4.12,4.12,0,0,1,4.52-4.28C178.24,12.94,179.64,14.32,179.5,17.27Z"/><path class="cls-5" d="M25.05,19.05c.85.9,3.58-1.31,3.5,1.85-.1,3.86-1.52,5.47-4.27,5.19a8.64,8.64,0,0,0-2.59,0c-1.36.28-2.66.84-3,2.41s.69,2.29,1.7,3a46.35,46.35,0,0,1,4.74,3.54c3.6,3.54,3.45,10.3-.15,13.74-3.26,3.12-10.47,3.08-13.76,0-1.84-1.73-.64-3.57,0-5.11.8-2,2,0,2.91.26,1.92.51,4,1.6,5.26-.7,1.21-2.11-.43-3.72-2-4.58-5.39-3-6.1-7.66-4.5-12.34C14.45,21.94,19.17,19.09,25.05,19.05Z"/><path class="cls-5" d="M15,13.62C17,5.9,20.53,1.94,25.7,1.87a23.86,23.86,0,0,0-5.64,9.42C19.42,13.3,17.07,12.92,15,13.62Z"/><path class="cls-5" d="M22.45,10.84c.92-2.88,2.09-5.45,4.87-7C29.69,9,28.64,10.5,22.45,10.84Z"/><path class="cls-5" d="M29.34,3.31c2.78,1.27,3.54,2.76,3.94,4.43,0,.17-1.44,1.09-1.79.89C29.61,7.58,30.77,5.46,29.34,3.31Z"/><path class="cls-5" d="M157.14,34.85c-.41,3.55-1.23,7.26-4.28,10a4.09,4.09,0,0,1-4.82.74c-1.84-.88-.71-2.43-.54-3.61.49-3.41.81-6.92,3-9.8,1.1-1.43,2.46-2.59,4.42-2S157.08,32.75,157.14,34.85Z"/><path class="cls-5" d="M130.23,34.63a22.41,22.41,0,0,1-2.39,8.47c-1,1.79-2.46,3.25-4.75,2.75s-2.79-2.66-2.83-4.65a16.49,16.49,0,0,1,2.1-8.51c1.15-2,2.73-3.74,5.33-2.91S130.05,32.93,130.23,34.63Z"/></g><g id="XSeEOR" class="cls-3"><path class="cls-6" d="M264.18,16.28c8.07-4.61,16.16-9.16,24.18-13.85a4.39,4.39,0,0,1,5.08-.06q10.71,6.36,21.62,12.34a4.55,4.55,0,0,1,2.72,4.65c-.15,8.18-.06,16.36-.07,24.53,0,2.28-4.49,6.67-6.75,6.56-1.7-.09-1-1.45-1-2.26-.06-8-.17-16.11,0-24.16a5,5,0,0,0-3.08-5.21c-4.59-2.44-9.1-5-13.56-7.72a4.05,4.05,0,0,0-4.75-.07c-4.89,2.93-9.83,5.78-14.84,8.48-1.73.93-2.07,2.11-2.05,3.87.08,8.18,0,16.36.1,24.54,0,2.51-.47,3.27-2.8,1.66-1.52-1.06-3.2-1.88-4.81-2.8Z"/><path class="cls-6" d="M287.13,20.65c0,9.56.14,18.45-.08,27.33-.07,3,1.17,4.82,3.72,4.87,2.72,0,4.1-1.73,4-4.92-.24-8.87-.08-17.76-.08-26.73,7.26,2.47,7.58,2.89,7.58,9.7,0,7.3-.08,14.61,0,21.91,0,2-.45,3.35-2.36,4-.12,0-.2.15-.31.22-9.4,5.58-9.4,5.56-18.59-.59a3.21,3.21,0,0,1-1.63-3q0-13.18-.09-26.37a2.94,2.94,0,0,1,1.65-3C282.86,23.12,284.65,22,287.13,20.65Z"/><path class="cls-7" d="M345.74,42.34c3.22-8.18,6.22-15.63,9.07-23.13.67-1.76,1.22-3.18,3.53-2.87,2.7.38,1.61,2.44,1.63,3.77.11,7.81.08,15.62,0,23.43,0,1.16.76,3.12-1.53,3-2-.08-1.23-1.84-1.24-2.91-.08-5.57,0-11.15-.07-16.73,0-1.15.52-2.46-.92-3.77-2.71,6.8-5.29,13.43-8,20-.55,1.33-.42,3.53-2.73,3.43-2-.08-1.91-2-2.43-3.29a202.45,202.45,0,0,0-9.09-20c0,6.18.11,12.37-.07,18.55-.05,1.59,1.31,4.54-1.28,4.59-2.78.06-1.29-2.92-1.33-4.43-.19-7.31-.15-14.62,0-21.94,0-1.22-1.11-3.14,1.24-3.67s3.14,1.1,3.87,2.95C339,26.22,341.83,33.1,344.59,40,344.82,40.54,345.11,41.06,345.74,42.34Z"/><path class="cls-7" d="M400.86,27.19c.77-.71-.22-2.75,1.8-2.48,1.68.23,1.31,1.56,1.31,2.6,0,6.19.06,12.38-.09,18.56-.09,3.61-1.6,6.51-5.34,7.65-4,1.21-7.86,1.14-11.2-1.73-.86-.74-2.21-2-1.2-3,1.14-1.19,1.91.28,2.83,1.17,2.58,2.54,5.79,2.62,8.95,1.3,3.59-1.49,3.35-4.68,3.23-7.93-5.85,3.83-10.72,3.66-14-.37s-3.24-11.84.43-15.81C390.92,23.44,395.9,23.46,400.86,27.19Zm.36,8.14c0-.75.06-1.49,0-2.23-.41-3.85-2.84-6.28-6.4-6.44-3.74-.17-6.17,1.81-7,5.71A13.56,13.56,0,0,0,388,39a6.64,6.64,0,0,0,10.12,3.86C400.71,41,401.38,38.32,401.22,35.33Z"/><path class="cls-7" d="M381.14,36.63c0,1.86,0,3.71,0,5.57,0,.72-.17,1.58.56,2s2.69.58,1.5,2.08a2.26,2.26,0,0,1-3.57-.33c-1.22-2-2.15-1.43-3.58-.38-2.25,1.66-4.92,1.66-7.51,1.17a5.55,5.55,0,0,1-4.9-5.29,5.63,5.63,0,0,1,3.74-6.16c2.44-1,5.06-1.07,7.63-1.48,1.89-.3,3.74-.83,3.46-3.42a3.79,3.79,0,0,0-3.86-3.75c-3.07-.21-6.09-.2-7.26,3.54a1.44,1.44,0,0,1-2.09.92c-1.14-.48-.49-1.48-.23-2.23,1.21-3.46,5.38-5.21,10.41-4.43,3.73.57,5.54,2.64,5.68,6.58C381.2,32.91,381.14,34.77,381.14,36.63Zm-2.5,1.27c-.38-.81.94-2.76-1.24-2.49a53.71,53.71,0,0,0-8.32,1.74,3.62,3.62,0,0,0-2.61,4.35c.29,1.93,1.53,2.91,3.51,3.21C374.81,45.44,378.38,42.72,378.64,37.9Z"/><path class="cls-7" d="M418.12,36.28a42.94,42.94,0,0,1-5.2,0c-3.26-.37-3.18,1.44-2.41,3.56.89,2.45,2.44,4.34,5.22,4.75,3,.45,5.75,0,7.33-3,.57-1.09,1.31-2.18,2.47-1.34s.09,2-.43,2.89c-2.22,3.75-7.77,5.12-12.23,3-4.64-2.15-7-8.37-5.37-14.11,1.56-5.47,5.58-8.24,11.12-7.66,4.65.49,8.78,6,8,10.51-.26,1.46-1.15,1.37-2.14,1.37C422.34,36.29,420.23,36.28,418.12,36.28Zm-1.32-2.21a30.67,30.67,0,0,1,4.07,0c2.82.37,3.23-.88,2.36-3.17s-2.32-4-5-4.3c-3-.31-5.39.55-6.94,3.19-.68,1.15-1.63,2.5-.89,3.78.6,1,2,.37,3.08.45S415.69,34.07,416.8,34.07Z"/><path class="cls-7" d="M471.31,24.33c6.08,0,10.18,4.39,10.3,11.1s-4.07,11.62-10.19,11.63S461,42.33,461.1,35.54,465.29,24.36,471.31,24.33Zm7.41,11.6c.09-5.75-2.59-9.22-7.18-9.28s-7.59,3.44-7.61,9,2.86,9.11,7.46,9.1S478.63,41.47,478.72,35.93Z"/><path class="cls-6" d="M432.74,27.18a26.07,26.07,0,0,1,4.52-2.49c5.31-1.7,9.51,1.33,9.6,6.82.07,4.33,0,8.66,0,13,0,1,.1,2.13-1.42,2-1.29-.08-1.08-1.14-1.09-2,0-4,0-7.92,0-11.88,0-4.36-1.28-5.91-4.77-6-3.94-.14-6.86,2.26-7,6s0,7.43-.08,11.14c0,1,.69,2.79-1.41,2.71-1.68-.06-1.32-1.52-1.32-2.55,0-5.45,0-10.89,0-16.33,0-1.11-.47-2.69,1.49-2.8S432.11,26.57,432.74,27.18Z"/><path class="cls-6" d="M452.59,35.85c0-1.85,0-3.7,0-5.56,0-1.62.62-3.7-2.3-3.46a.87.87,0,0,1-.92-.93c0-.58.37-1.09.81-1.07,3.5.18,2.15-2.42,2.44-4.1.16-.95-.7-2.53,1.11-2.59,2-.06,1.52,1.59,1.48,2.73-.09,2.21-.25,4.33,3.05,3.92.71-.09,1.09.46,1,1.2s-.72,1-1.33.9c-2.9-.33-2.76,1.58-2.73,3.53,0,3.09-.08,6.17,0,9.26.07,2.17-.78,5.12,3.21,4.71.63-.06.81.45.8,1,0,.71-.47,1-1.12,1.25a4.14,4.14,0,0,1-5.51-3.74c-.09-1.22,0-2.46,0-3.7S452.6,37,452.59,35.85Z"/><path class="cls-7" d="M484.45,23.8a3.32,3.32,0,0,1,.52.43,3.41,3.41,0,0,1-.43.57c-.26.3-.47.25-.44-.14A3.31,3.31,0,0,1,484.45,23.8Z"/><path class="cls-8" d="M401.22,35.33c.16,3-.51,5.71-3.1,7.51A6.64,6.64,0,0,1,388,39a13.56,13.56,0,0,1-.18-6.61c.82-3.9,3.25-5.88,7-5.71,3.56.16,6,2.59,6.4,6.44C401.28,33.84,401.22,34.58,401.22,35.33Z"/><path class="cls-8" d="M378.64,37.9c-.26,4.82-3.83,7.54-8.66,6.81-2-.3-3.22-1.28-3.51-3.21a3.62,3.62,0,0,1,2.61-4.35,53.71,53.71,0,0,1,8.32-1.74C379.58,35.14,378.26,37.09,378.64,37.9Z"/><path class="cls-8" d="M416.8,34.07c-1.11,0-2.23.06-3.34,0s-2.48.59-3.08-.45c-.74-1.28.21-2.63.89-3.78,1.55-2.64,4-3.5,6.94-3.19,2.7.28,4.13,1.95,5,4.3s.46,3.54-2.36,3.17A30.67,30.67,0,0,0,416.8,34.07Z"/><path class="cls-8" d="M478.72,35.93c-.09,5.54-2.78,8.77-7.33,8.78s-7.48-3.5-7.46-9.1,3-9,7.61-9S478.81,30.18,478.72,35.93Z"/></g><g id="xGcPrv" class="cls-3"><path class="cls-9" d="M528.49,55.7l25.28-18.27c0,3.49.1,6.38,0,9.26-.09,1.93.54,2.67,2.51,2.57,2.59-.15,5.21.05,7.8-.12,4.49-.29,6.25-4.21,3.71-8-.4-.58-1.47-.64-.83-2,2.49-5.31,1.93-6.53-3.68-8.7L578,19.61c5.39-4,10.77-7.94,16.18-11.87.66-.48,1.32-1.37,2.26-1S597,8.24,597,9c0,8,0,16,0,24.17-6.56-3.33-11.38-3-14.69.9A10,10,0,0,0,582,45.85c2.93,4,7.68,4.61,14.75,1.89,1,8.89,1,8.89-7.63,8.89H532.57c-1.36,0-2.72-.12-4.08-.19Zm48.14-15.27c0-2.34,0-4.68,0-7,0-1.39-.14-2.36-1.93-2.37s-2.13.67-2.11,2.2c0,4.56,0,9.11,0,13.67,0,1.39.15,2.37,1.93,2.38,2,0,2.19-1,2.12-2.57C576.56,44.63,576.63,42.53,576.63,40.43Z"/><path class="cls-10" d="M751.87,49.75c-3.28-.94-6.64-.31-10-.39-2.16,0-2.76-.78-2.7-2.83.13-4.34.13-8.69,0-13-.06-2,.74-2.57,2.61-2.5,3.34.13,6.7.1,10,.14v3c-2.32-.06-4.64-.06-7-.2-1.74-.11-2.43.56-2.39,2.32s.56,2.43,2.37,2.33c2.32-.12,4.65,0,7,0v3c-2.21,0-4.42,0-6.63-.11-1.71-.08-2.77.17-2.76,2.33s.67,2.85,2.78,2.76,4.41.14,6.61.23Z"/><path class="cls-8" d="M751.87,46.77c-2.2-.09-4.41-.32-6.61-.23s-2.77-.68-2.78-2.76,1-2.41,2.76-2.33c2.21.11,4.42.08,6.63.11Z"/><path class="cls-8" d="M751.87,38.59c-2.33,0-4.66-.14-7,0-1.81.1-2.34-.66-2.37-2.33s.65-2.43,2.39-2.32c2.32.14,4.64.14,7,.2Z"/><path class="cls-10" d="M677.6,38c-1.28,3.16-2.56,6.33-3.86,9.48-.31.77-.44,1.84-1.61,1.7-.86-.11-1-1-1.28-1.67a59.19,59.19,0,0,0-4.73-9.92v9.15c0,1.24.24,2.58-1.7,2.59s-1.76-1.3-1.75-2.55c0-4.33,0-8.67,0-13,0-1.12-.5-2.7,1.54-2.69,1.52,0,3.15-.48,3.88,1.75,1.12,3.37,2.56,6.63,4.2,10.78,1.48-3.78,2.82-6.72,3.76-9.78.73-2.38,2.07-3.12,4.37-2.76,2.49.39,1.31,2.32,1.36,3.53.16,4.08.05,8.17.07,12.25,0,1.27.17,2.56-1.79,2.46-1.76-.09-1.48-1.34-1.49-2.4,0-3,0-5.89,0-8.84Z"/><path class="cls-10" d="M642.37,37.16c0,3.35,0,6.69,0,10,0,1.33-.27,2.15-1.82,2.1-1.74,0-1.52-1.29-1.53-2.37,0-4.47,0-8.93,0-13.39,0-1-.39-2.44,1.39-2.47,1.53,0,3.19-.49,3.95,1.69,1.21,3.47,2.66,6.85,4.22,10.82,1.53-3.87,3-7,4-10.32.71-2.28,2.19-2.32,4-2.21,2.4.14,1.4,2,1.43,3.08.12,4.21.05,8.43,0,12.64,0,1.18.37,2.61-1.68,2.52-1.79-.08-1.44-1.36-1.45-2.4,0-3.23,0-6.45,0-10.41-2.39,3.58-3.14,7.18-4.67,10.41-.39.83-.31,2.19-1.63,2.22S647.31,47.79,647,47c-1.36-3.28-2.64-6.59-4-9.89Z"/><path class="cls-10" d="M717.45,48.83c-2.36,1-3.75.38-4.71-1.63-.53-1.11-1.29-2.11-1.84-3.21a2.43,2.43,0,0,0-3-1.47c-1.34.34-.92,1.55-1,2.46a18.25,18.25,0,0,0,0,2.22c0,1.27-.24,2.17-1.81,2.09-1.38-.06-1.54-.88-1.54-2q0-7.21,0-14.44c0-1.23.43-1.83,1.7-1.81,2.6,0,5.2-.1,7.78.11a4.93,4.93,0,0,1,4.33,3.57c.73,2.13.67,4.57-1.23,5.75-2.83,1.76-2.06,3.27-.55,5.22A33.28,33.28,0,0,1,717.45,48.83Zm-7.72-9.33c2.3.13,4.44-.12,4.51-2.74S712.09,34,710,33.91c-2.27-.15-3.33.38-3.3,3S707.9,39.79,709.73,39.5Z"/><path class="cls-10" d="M635.82,40.57c-.1,5.34-4,9.22-9.11,9.11s-9-4.28-8.87-9.82c.12-5.3,4.17-9.42,9.09-9.23A9.52,9.52,0,0,1,635.82,40.57Zm-8.9-7c-3.21,0-5.75,2.7-5.9,6.38s2.39,6.79,5.8,6.82,5.75-2.58,5.89-6.34S630.29,33.59,626.92,33.54Z"/><path class="cls-10" d="M686.42,39.9c0-8.9,0-8.9,8.78-8.86.74,0,1.49,0,2.23,0,1,0,1.65.25,1.61,1.45s-.74,1.43-1.7,1.43c-1.74,0-3.48.1-5.2,0s-2.38.54-2.38,2.33.63,2.43,2.39,2.31c1.6-.11,3.22,0,4.83,0,1,0,2-.08,2,1.47s-1.09,1.42-2.1,1.43c-1.48,0-3,.1-4.45,0-1.81-.13-2.73.32-2.64,2.42.08,1.85.56,2.74,2.56,2.59,1.6-.12,3.22,0,4.83,0,1,0,2,0,1.9,1.5-.08,1.29-.89,1.29-1.78,1.29-3,0-6,0-8.92,0-1.46,0-2-.58-1.94-2C686.46,44.85,686.42,42.37,686.42,39.9Z"/><path class="cls-10" d="M719.9,40.14c.25-4,1.76-7.1,5.42-8.72,3.13-1.38,6.32-1.3,9.09,1,.73.61,2.16,1.27,1.16,2.56-.79,1-1.77.85-2.85-.06-2.78-2.33-5.54-1.84-7.91.65-2.07,2.18-2.06,6.79,0,8.95,2.37,2.5,5.12,3,7.91.67,1.06-.88,2.07-1.12,2.88-.08,1,1.36-.55,1.95-1.23,2.54-2.72,2.36-5.87,2.48-9,1C721.66,47.06,720.19,43.91,719.9,40.14Z"/><path class="cls-10" d="M599.91,40c.06-3.77,1.61-6.72,5.05-8.38a8.27,8.27,0,0,1,9.1.69c.79.6,2.19,1.31,1.42,2.58s-1.89.83-3.1,0c-3.11-2-5.82-1.65-7.84.88a7,7,0,0,0,.22,8.89c2.27,2.38,4.91,2.86,7.6.73,1.13-.9,2.22-1.48,3.11-.14s-.59,2-1.34,2.58c-2.79,2.27-5.91,2.28-9.06.87C601.75,47.27,599.91,44,599.91,40Z"/><path class="cls-10" d="M596.7,35.32c1,3.23-.07,4.35-2.93,4a6.82,6.82,0,0,0-1.86,0c-1.18.16-3-.69-2.95,1.65,0,2,1.58,1.45,2.71,1.56,1,.09,2.13-.17,2.17,1.34,0,1.25-1,1.7-1.89,2-2.61.76-5.06.39-6.61-2-1.72-2.63-1.74-5.48.48-7.87,1.87-2,4.34-2.62,6.71-1C594,35.93,595.2,36.57,596.7,35.32Z"/><path class="cls-10" d="M560.9,46c-1.64-.1-3.42.56-3.41-2.18s1.75-2.19,3.27-2.16c1.78,0,4.25-.44,4.1,2.36C564.74,46.47,562.39,45.82,560.9,46Z"/><path class="cls-10" d="M560.93,34.28c1.51.21,3.62-.22,3.46,2.18-.17,2.56-2.45,1.78-4,1.93s-2.92.14-2.87-2.15C557.58,33.43,559.62,34.62,560.93,34.28Z"/><path class="cls-8" d="M576.63,40.43c0,2.1-.07,4.2,0,6.29.07,1.58-.17,2.59-2.12,2.57-1.78,0-1.94-1-1.93-2.38,0-4.56,0-9.11,0-13.67,0-1.53.46-2.21,2.11-2.2s2,1,1.93,2.37C576.6,35.75,576.63,38.09,576.63,40.43Z"/><path class="cls-8" d="M709.73,39.5c-1.83.29-3-.08-3-2.61s1-3.13,3.3-3c2.06.13,4.28.11,4.21,2.85S712,39.63,709.73,39.5Z"/><path class="cls-8" d="M626.92,33.54c3.37.05,5.92,3.08,5.79,6.86s-2.56,6.37-5.89,6.34-6-3-5.8-6.82S623.71,33.49,626.92,33.54Z"/></g><g id="YxXasB" class="cls-3"><path class="cls-11" d="M792.69,32.64c2-2.15,3-5,5.57-6.73,1-.69.31-1.82.12-2.75-1.42-6.74,1.09-13,6.53-16.43,5.77-3.58,12.3-3.08,17.84,1.71,1.57,1.35,2.43,1.22,4,.2,6.52-4.17,13-3.17,18.16,2.85a2.77,2.77,0,0,0,3.43,1c6.94-1.92,12.78.06,17.26,5.53s5.11,11.79,2,18.09-8.5,9.5-15.66,9.18A4,4,0,0,0,848.21,47a11.09,11.09,0,0,1-12,3.94c-2-.52-2.75,0-3.82,1.54-6.09,8.58-17.42,8.14-23.23-.79-.57-.89-.79-2.07-2.33-1.95-7.26.56-11.31-3.68-14.16-9.63Z"/><path class="cls-12" d="M1007.79,31.19c-1.18-2.25-.56-4.29,1-6s3.7-1.25,5.38-.44c1.41-1.12-1.15-3.75,2-4v13.4c-1,.59-1.94-1.29-3-.18-.52-.16-1-.4-.91-1.06.34-1.18,1.37-2.1,1.35-3.42s-.22-2.67-1.82-2.76c-1.37-.07-1.82,1.07-1.92,2.28-.07,1,.37,2-.24,2.91C1008.68,32.4,1008.34,31.54,1007.79,31.19Z"/><path class="cls-13" d="M914.07,24.49c2.9-1.32,5.94,1,9-.5,1.26-.59,2.89.66,3,2.48.14,2.54.45,5.11-.31,8-2-1.93-1-4.08-1.17-5.94-.15-1.37.09-3-1.81-3.06-2.06-.1-2.1,1.5-2.27,3.07-.2,1.86.55,5.46-.72,5.25-2.41-.41-.89-3.47-1-5.35-.17-2.74-1-3.67-3.62-2.42C913.78,26.2,913.59,25.57,914.07,24.49Z"/><path class="cls-14" d="M937,32.19c-1.23,2.37-3.16,2.76-5.41,2-2.71-.91-3.23-3.2-3-5.67s1.41-4.29,4-4.59A4,4,0,0,1,937.07,27c.48,1.52.55,3-1.87,2.75a5.68,5.68,0,0,0-1.84,0c-1,.2-2.33-.7-2.89.71-.17.41.23,1.22.6,1.63a2.91,2.91,0,0,0,3,.78C935,32.64,935.54,31.3,937,32.19Z"/><path class="cls-15" d="M964.44,32.17c-1.25,2.61-3.38,2.74-5.59,2-2.49-.89-3.07-3.12-2.9-5.45s1.41-4.31,4-4.72a3.82,3.82,0,0,1,4.43,2.56c.74,1.84,1,3.48-1.91,3.2a4.12,4.12,0,0,0-1.11,0c-1.14.2-2.55-.64-3.39.54-.41.57.05,1.46.67,1.95a3,3,0,0,0,3.76.24A1.62,1.62,0,0,1,964.44,32.17Z"/><path class="cls-16" d="M894.75,29.43c-.08,3.07-2,5.15-4.66,5.09s-4.41-2.23-4.38-5.34,1.29-5.05,4.44-5.28C892.86,23.69,894.83,26.2,894.75,29.43Z"/><path class="cls-17" d="M994.68,29.29c0,3.16-1.77,5.22-4.46,5.23s-4.57-2.17-4.62-5.18,2.07-5.53,4.76-5.45S994.7,26.15,994.68,29.29Z"/><path class="cls-18" d="M979.22,31.15c-1,3-2,3.7-4.42,3.27-2.91-.53-3.76-2.68-3.75-5.18s.91-4.75,3.73-5.26c2.23-.4,4,.41,4.75,3.39-2.28-.76-4.08-3.54-6-.79a4.43,4.43,0,0,0,0,5.23C975.41,34.57,977.24,31.8,979.22,31.15Z"/><path class="cls-19" d="M905.12,25.88c-1.5,2.59,0,5.59-1.13,8.65-1.87-1.93-.92-4.06-1.08-5.92-.13-1.41-.07-3-1.8-3.14s-2.4,1.35-2.52,3c-.14,1.88.36,3.83-.89,5.66-1-3.1-.69-6.28-.58-9.45,1.91.33,3.7-1.39,5.65-.35.71.37,1.33,1.22,2.28.48A.69.69,0,0,1,905.12,25.88Z"/><path class="cls-20" d="M954.43,27.71c-2.57-1.23-4.2-3.84-6.17-1.22a4.33,4.33,0,0,0,0,5.49c1.89,2.3,3.65.36,5.47-.74-.13,2.51-1.63,3.35-3.72,3.24-2.64-.14-4-1.78-4.2-4.33s.21-5.08,3.1-6C951.36,23.35,953.16,24.23,954.43,27.71Z"/><path class="cls-21" d="M883.25,27c-1.77-1.06-3.32-2.84-5.24-.63a4.07,4.07,0,0,0-.17,5.48c1.82,2.28,3.65.94,5.42-.66.11,2.46-1.36,3.28-3.27,3.26-3,0-4.41-2-4.58-4.79s.73-5,3.65-5.66C881.28,23.53,883.05,24.28,883.25,27Z"/><path class="cls-22" d="M939.5,28.37c-1.07-3,.55-4.45,4-4.56.53,0,1,.07,1.08.67,0,.28-.21.83-.39.86-3.75.65-2.45,3.6-2.73,5.84-.13,1,.55,2.78-.8,2.84-1.87.08-.91-1.82-1.11-2.86A17.52,17.52,0,0,1,939.5,28.37Z"/><path class="cls-23" d="M1003.45,33.41c-4.79,1.86-6.33.9-6.4-4.2,0-1.7-.63-3.59.72-5.35,1.66,1.7,1,3.54.92,5.14-.08,2.84.8,4.26,3.84,3.57C1003.34,32.3,1003.55,32.68,1003.45,33.41Z"/><path class="cls-24" d="M905.12,25.88l-.07-1.08c3.14-1.44,5-.73,5.2,2.31.17,2.31.44,4.73-.68,7-1.31-1.84-.73-3.9-.87-5.85C908.53,25.87,907.57,24.8,905.12,25.88Z"/><path class="cls-25" d="M982.18,35V20.41C983.68,23.08,983.77,31.19,982.18,35Z"/><path class="cls-26" d="M1003.45,33.41l-.92-.84a9.68,9.68,0,0,0,1-4.25c0-1.38-.56-2.89,1-4.83a34.41,34.41,0,0,1,.17,10.39C1004.65,34.35,1003.66,34.21,1003.45,33.41Z"/><path class="cls-27" d="M914.07,24.49A1.49,1.49,0,0,0,915.13,26c-1,2.54.06,5.37-1.41,8a22.93,22.93,0,0,1-.23-9.62c0-.05.19-.1.27-.08A1.17,1.17,0,0,1,914.07,24.49Z"/><path class="cls-28" d="M1007.79,31.19l1.53.71a3.18,3.18,0,0,1,2.89,1.39l.89.66C1010.28,35.06,1008.47,34.21,1007.79,31.19Z"/><path class="cls-29" d="M821.78,31c.74,1.85,2.56.47,3.73,1.57a3.21,3.21,0,0,1-4.75-.07c-1.43-1.35-1.31-3.15-.42-4.76a3,3,0,0,1,3.48-1.39,2.53,2.53,0,0,1,2.1,2.68C825.68,31.86,822.88,29.36,821.78,31Z"/><path class="cls-30" d="M861.12,33.09c-2.8.77-5.12.64-5.72-2.67a3.27,3.27,0,0,1,2.67-4.15,2.51,2.51,0,0,1,3.3,2.09c.59,3.87-3.13.88-4,2.54C857.51,33.25,860.65,30.86,861.12,33.09Z"/><path class="cls-31" d="M813.89,28.6c-.54-1.63-2.22-.69-3-1.7,1.78.25,4.55-1.64,4.76,2,.09,1.49,1.41,4-1.52,4.49-1.64.29-3.85.58-4.18-1.75C809.55,28.84,812.2,29.09,813.89,28.6Z"/><path class="cls-31" d="M844.13,30.05c-.1,1.94-1,3.37-3.28,3.4s-3.18-1.62-3.23-3.61,1.09-3.63,3.27-3.61S844.12,27.71,844.13,30.05Z"/><path class="cls-32" d="M830.56,36.09c3.7-1.85,3.16-5.23,3.4-8.12.21-2.44,1.1-3.92,3.87-4.38a39.87,39.87,0,0,0-2.85,9C834.67,34.62,834.33,37.23,830.56,36.09Z"/><path class="cls-33" d="M807.44,31.4c-1.15-1.43-4.41-1.06-3.23-3.78.95-2.17,2.82-1.74,4.63-.7-.78,1.62-2.24-.13-3.15,1.21.79,1.48,4.55,1.4,3.19,4.05-1.14,2.21-3.17,1.58-5,.28C804.92,31.17,806.42,32.83,807.44,31.4Z"/><path class="cls-34" d="M831.86,27c-.8,1.56-2.25-.19-3.17,1.16.69,1.58,5,1.34,3,4.33-1.14,1.77-3.11,1.43-4.79,0,1.06-1.24,2.53.36,3.49-.89-.49-1.76-4.85-1.15-3-4.25C828.46,25.57,830.23,25.87,831.86,27Z"/><path class="cls-35" d="M855.34,27c-2,.72-3.93.31-4,2.71s2.12,2.09,3.52,2.93c-1.68,1-3.22,1.22-4.47-.3a3.75,3.75,0,0,1-.1-4.79C851.37,26.06,852.91,25.62,855.34,27Z"/><path class="cls-36" d="M849.8,26.86c-2.45,1-3.19,2.54-2.9,4.66.1.68.13,1.71-.83,1.75-1.32,0-.93-1.17-1-1.93C844.6,26.4,844.94,26,849.8,26.86Z"/><path class="cls-37" d="M817.86,23.88c.73,3.11,1.11,6.21,0,9.26C816.86,30.05,817.26,27,817.86,23.88Z"/><path class="cls-38" d="M1012.21,33.29a5.2,5.2,0,0,1-2.89-1.39,4.33,4.33,0,0,0-.12-.72c-.77-2.3-.71-4.42,1.71-5.67a2.17,2.17,0,0,1,3.05,1.21c1.06,2.27,1.21,4.47-1.17,6.13C1012.59,33,1012.4,33.14,1012.21,33.29Z"/><path class="cls-39" d="M932.94,28.32c-.82-.31-2.3.58-2.38-.87s1.25-2.06,2.54-2.06a2.15,2.15,0,0,1,2.35,1.89C935.43,29.05,933.79,27.94,932.94,28.32Z"/><path class="cls-40" d="M957.92,28.05a2.35,2.35,0,0,1,2.51-2.65c1.53-.06,2.45.89,2.68,2.55A10.63,10.63,0,0,1,957.92,28.05Z"/><path class="cls-41" d="M893.21,29.13c-.14,2.1-.7,3.92-3.08,3.87-2.14,0-2.79-1.68-2.83-3.57s.54-3.92,2.81-4S893.05,27.23,893.21,29.13Z"/><path class="cls-42" d="M993.09,29.2c.08,2.12-.65,3.83-3,3.83-2.12,0-2.84-1.75-2.89-3.6s.55-3.92,2.85-4S993.12,27.11,993.09,29.2Z"/><path class="cls-43" d="M842.53,29.7c0,1.36-.42,2.38-1.84,2.29s-1.35-1.21-1.3-2.18.07-2.15,1.34-2.21S842.44,28.67,842.53,29.7Z"/></g><g id="LqpeiW" class="cls-3"><path class="cls-44" d="M1056.93,13.31c2.24-3.57,5.4-4.73,9.65-4.68,19,.2,38,.08,57,.09,6.76,0,9.1,2.36,9.13,9.2,0,6.69.07,13.39,0,20.09-.06,6.29-2.6,8.8-8.81,8.83-5.58,0-11.18.22-16.75-.07-3.57-.18-3.61,1.13-2.34,3.69.48,1,.82,2,1.53,3.77a82.74,82.74,0,0,1-7.51-4.15,18.89,18.89,0,0,0-12.22-3.31c-6.82.27-13.66-.13-20.47.14-4.4.17-7.44-1.3-9.19-5.33Z"/><path class="cls-45" d="M1280.32,38.61c-3.67,0-8.43,1.53-10.72-.58s-.57-7-.73-10.6c-.12-2.46.12-4.94,0-7.39s.84-3,3-2.88c2.83.1,5.66-.08,8.49-.13v4.46a4,4,0,0,1-2,1c-.9.23-2.25.08-2.24,1.42,0,1.09,1.22,1.09,2,1.25,1.82.38,1.83,1.66,1.85,3.11s-.18,2.71-2,3.05c-.69.13-1.5.15-2,1.17,1.13,1.2,3.19.37,4.25,1.7Z"/><path class="cls-46" d="M1280.32,34.14c-1.35,0-2.71-.06-4.07,0s-1.9-.54-1.89-2,.44-1.94,1.9-2c1.27,0,3.18.86,3.27-1.69.06-1.64,0-3-2.23-2.73-1.45.15-3,.35-3-2.06s1.66-1.9,3.05-2c1-.07,1.95-.18,2.92-.27Z"/><path class="cls-47" d="M1184,28.42c.84-3.61,1.56-6.34,2.11-9.11.71-3.59,3.49-1.67,5.37-2.09s2.59.58,2.8,2.39c.64,5.53,1.41,11,2.13,16.56.15,1.14.92,2.76-1.28,2.42-1.48-.23-3.94,1.5-4.19-1.87A34.12,34.12,0,0,0,1189,27c-.79,3.17-1.67,6.32-2.34,9.52-.29,1.42-.72,2.09-2.33,2.17-1.82.09-2.26-.72-2.61-2.26a62,62,0,0,0-3.28-10.6c-.32,3.47-.79,6.94-.91,10.43-.11,3.09-2.23,2.26-3.94,2.37-2.54.15-1.53-1.52-1.39-2.72.61-5.28,1.27-10.57,1.84-15.85.21-2,.86-3.32,3.21-2.89,1.92.35,4.65-1.17,5,2.63C1182.39,22.39,1183.22,24.9,1184,28.42Z"/><path class="cls-48" d="M1210,27.89c.5-2.32.91-4.37,1.39-6.4,1-4.19,2.76-5.23,7-4.29a1.75,1.75,0,0,1,1.59,1.69c.74,5.76,1.54,11.52,2.26,17.28.15,1.15.56,2.76-1.53,2.45-1.44-.21-3.66,1.2-3.94-1.8a80.09,80.09,0,0,0-1.73-11.1c-.83,3.49-1.68,7-2.5,10.49-.32,1.37-.57,2.52-2.51,2.52s-2.27-1-2.61-2.42c-.82-3.47-1.69-6.93-2.65-10.88-1.54,3.92-1.12,7.63-1.6,11.19-.39,3-2.3,1.88-3.78,2-2.46.23-1.67-1.56-1.53-2.76.65-5.4,1.42-10.78,2-16.19.18-1.56.51-2.83,2.35-2.45s4.63-1.53,5.58,1.86C1208.6,21.92,1208.61,25,1210,27.89Z"/><path class="cls-45" d="M1153,27.87c-.13-6.73,2.64-10.59,7.83-11,5.67-.51,9.19,2.25,10.15,7.9a18.08,18.08,0,0,1,0,6.27c-1,5.48-4.23,8.45-9.21,8.29s-8.21-3.44-8.8-8.82A24.85,24.85,0,0,1,1153,27.87Z"/><path class="cls-48" d="M1253.52,38.26c-7.92,2.49-7.09-4.83-10.44-8.38,0,2.11,0,3.74,0,5.38,0,1.85.45,3.61-2.65,3.52-2.68-.08-3.31-.92-3.22-3.43.18-5.19.1-10.4,0-15.59,0-1.91.61-2.69,2.57-2.59,2.47.12,5-.11,7.39.5,5.38,1.35,7.07,6.33,3.33,10.41-1.14,1.25-.86,2-.29,3.15C1251.36,33.53,1252.41,35.88,1253.52,38.26Z"/><path class="cls-47" d="M1224.23,27.79V25.57c0-8.94.87-9.64,9.76-8.36,1.61.23,1.71,1,1.67,2.22s.26,2.62-1.72,2.52c-.87-.05-1.73,0-2.6,0-1.4,0-1.54.88-1.54,2s.21,1.83,1.58,2,3.56-1.11,3.6,2.07c0,3-1.83,2.35-3.43,2.33s-1.79.8-1.79,2.1.41,1.84,1.7,1.76c.87,0,1.74.06,2.6,0,1.75-.13,1.67,1,1.62,2.18s.44,2.44-1.41,2.37c-3.2-.12-6.91,1.11-9.42-.54-1.82-1.21-.4-4.85-.61-7.39C1224.16,29.78,1224.23,28.78,1224.23,27.79Z"/><path class="cls-49" d="M1148.52,16.81c2-.22,3.43.34,3.11,3.18-.17,1.48-.23,2.05-2.09,1.89-3.8-.32-6,1.92-6.17,5.7s1.91,6.47,5.5,6.46c2,0,2.83.18,2.79,2.45s-1.1,2.69-3,2.8c-6.24.34-11.21-4.47-11.36-11.06C1137.19,21.48,1141.63,16.8,1148.52,16.81Z"/><path class="cls-50" d="M1252.84,27.75a10.77,10.77,0,0,1,12.11-11c2.54.25,2.09,1.79,2.17,3.36.09,1.81-.71,1.78-2.27,1.69-3.69-.21-5.89,2.23-5.93,6,0,3.65,2,6.12,5.45,6.16,1.94,0,2.88.18,2.82,2.49s-1.14,2.69-3,2.77C1257.79,39.57,1252.9,34.63,1252.84,27.75Z"/><path class="cls-51" d="M1068.86,32.28c1.75-3.37,3.44-6.77,5.27-10.1.91-1.65,1.37-4.21,3.91-3.85s2,3.09,2.57,4.84A54.28,54.28,0,0,0,1082.9,30c.75-3.5,1.41-7,2.29-10.49a26.13,26.13,0,0,1,2-5.17,2.33,2.33,0,0,1,3.12-1.23,2.41,2.41,0,0,1,1.54,3.32c-3,7.74-3.89,15.81-3.93,24a2.48,2.48,0,0,1-1.59,2.68c-1.39.43-2.36-.35-3.23-1.31-3.15-3.48-4.71-7.79-6.41-12.31-2.16,2.66-3,5.8-4.63,8.53a29,29,0,0,1-2.17,3.45c-2.06,2.59-3.54,2.38-4.69-.78-1.87-5.13-2.71-10.52-3.73-15.85-.4-2.07-.54-4.18-1-6.23s-.46-3.92,2-4.37c2.75-.49,2.77,1.88,3.1,3.63.9,4.74,1.69,9.49,2.53,14.24Z"/><path class="cls-52" d="M1109.24,26.5a15.61,15.61,0,0,1-3.52,10.34,7.64,7.64,0,0,1-13.51-2.59,16.19,16.19,0,0,1,2.11-13.86c2.32-3.5,5.46-4.83,8.87-3.84,3.83,1.12,5.48,4,5.9,7.73C1109.18,25,1109.19,25.76,1109.24,26.5Z"/><path class="cls-52" d="M1128.62,26.54a15.12,15.12,0,0,1-3.8,10.59c-4,4.59-10.75,3.45-12.9-2.27-2-5.39-1-10.51,2.27-15.14a7.39,7.39,0,0,1,8.1-3.27c3.56.81,5.36,3.37,6.09,6.75A23,23,0,0,1,1128.62,26.54Z"/><path class="cls-53" d="M1158.86,27.92c.26-2.59-.34-6.12,3.14-6.16s3.15,3.58,3.06,6,.92,6.3-3.06,6.31S1159.33,30.25,1158.86,27.92Z"/><path class="cls-54" d="M1243,24.09c.38-.88-.7-2.49,1.16-2.54a2.37,2.37,0,0,1,2.63,2.5c0,1.58-1.15,2.15-2.41,2.32C1242.34,26.64,1243.33,24.94,1243,24.09Z"/><path class="cls-55" d="M1104,26.55c0,3.11-.77,5.76-3.4,7.48a1.84,1.84,0,0,1-2.64-.44c-1.82-2.56-1.54-5.3-.51-8.05a8.23,8.23,0,0,1,1-1.94c.79-1.09,1.62-2.35,3.23-1.92,1.32.36,1.77,1.61,2,2.83A14.81,14.81,0,0,1,1104,26.55Z"/><path class="cls-56" d="M1123.44,26.69c-.12,3-.7,5.7-3.43,7.36a1.87,1.87,0,0,1-2.66-.44,8.28,8.28,0,0,1-.29-8.42c.81-1.74,1.75-4.09,4.12-3.46S1123.26,24.78,1123.44,26.69Z"/></g><g id="dYVOXp" class="cls-3"><path class="cls-57" d="M0,163.19c1.08-.36.85-1.44,1.11-2.18,6.2-18.22,23.44-25.92,41.07-18.29.54.23,1.12.39,1.71.59.73-1-.63-2.82,1.25-3.07s1.65,1.54,2.13,2.52c.91,1.88,1.61,3.87,2.55,6.18-2.24.26-4.27.62-6.32.69-1.08,0-2.69,1-3.2-.69-.66-2.2,1.7-1.52,2.86-2.54-7.83-4.78-15.92-5.52-24.12-2C8.8,148.91,3.12,157,2.73,168.16c-.39,11,4.38,19.53,14.17,24.66s19.35,4.18,28.37-2.21c.4-.29.79-.6,1.18-.9.66-.5,1.25-1.3,2.18-.35,1.13,1.15.14,1.76-.59,2.38a27.42,27.42,0,0,1-14,6.45C19.22,200.41,6.19,192.3,1.31,178c-.33-1-.08-2.3-1.31-2.89Z"/><path class="cls-57" d="M222.88,175.85c-3.23,4.71-7.19,6.22-11.61,4.42-4-1.62-6.07-5.94-5.15-10.72.81-4.2,3.76-7,7.74-7.21,4.62-.3,7.32,1.51,9,6a4,4,0,0,0,.6.83v3.73c-3.33,0-6.66-.11-10,0-1.09,0-2.9-.84-3.18.68-.32,1.68,1.16,2.94,2.74,3.49a4.71,4.71,0,0,0,5.15-1C219.69,174.54,221.24,174.26,222.88,175.85ZM214.24,170c1.5-1,4.21,1.22,4.56-1.4.26-2-2.06-2.95-4-3-2.13,0-4.41,1-4.35,3.14C210.52,171.19,213.05,169,214.24,170Z"/><path class="cls-58" d="M222.88,175.85c-1.64-1.59-3.19-1.31-4.72.19a4.71,4.71,0,0,1-5.15,1c-1.58-.55-3.06-1.81-2.74-3.49.28-1.52,2.09-.65,3.18-.68,3.32-.11,6.65,0,10,0v3l-.28,0Z"/><path class="cls-57" d="M13.31,167.93c-2.14-6.43,1.93-9.79,8.31-13.09,5.71-3,9.8-2.64,15.5,0,6.77,3.18,8.56,7.15,8.6,14.35s-2.1,10.86-8.3,14.34c-6,3.37-10.37,3.8-16.19-.15C13.63,178.24,13.31,178.71,13.31,167.93Zm17.2,16.5c4.2-2.39,7.92-4.49,11.62-6.62a2,2,0,0,0,1-1.85c0-4.39,0-8.78,0-13.74-4.2,2.42-7.8,4.53-11.45,6.57a2.12,2.12,0,0,0-1.16,2.1C30.52,175.19,30.51,179.49,30.51,184.43Zm-2.29,0c0-4-.27-7.29.06-10.47.42-3.9-1.1-6-5-6.82l-.41,4.34c-2.14-.89-4-1.59-3.48-4.24.54-2.88-1.21-3.86-3.79-4.45,0,4.39,0,8.59,0,12.8a2.36,2.36,0,0,0,1.18,2.48C20.43,180,24.05,182.08,28.22,184.41ZM41.1,160.68l0-1c-2.15-.06-3.36-3-5.95-1.59-3.48,2-6.86,4.09-10.35,6.19,2.77,3.13,5.33,3.14,8.33,1C35.61,163.56,38.42,162.21,41.1,160.68Zm-23.69-.42c1.43.82,2.34,2.76,4.28,1.56,3.42-2.12,6.9-4.15,10.36-6.22C25.74,153.21,22.3,158.63,17.41,160.26Z"/><path class="cls-57" d="M89.44,180.08c-3.29,1-5.3.25-6.36-2.87a37.79,37.79,0,0,0-2.52-5c-1.17-2.26-3.28-1.42-5-1.28-1.85.15-1,1.91-1.13,3a25.39,25.39,0,0,0,0,4.09c.12,1.69-.39,2.49-2.27,2.42-1.63-.05-2.12-.68-2.1-2.24q.08-10,0-20.07c0-1.58.55-2.24,2.17-2.18,3.46.13,6.94,0,10.39.27a6.06,6.06,0,0,1,5.89,4.85c.69,3,.63,6.15-2.27,8-1.92,1.25-1.66,2.23-.7,3.82C86.94,175.26,88.13,177.67,89.44,180.08ZM78.61,167c4.68,0,6.51-1.15,6.06-3.88-.23-1.38-.84-2.75-2.49-2.84-2.53-.12-5.12-.72-7.58.43-.13.06-.09.45-.16.69C73.36,165.47,74.47,167,78.61,167Z"/><path class="cls-57" d="M198.65,178.63c-3.44,2.05-6.87,2.52-10.11,0-2.92-2.32-3.51-5.57-3.09-9.06A8,8,0,0,1,197,163.14c1.3.61,1.9.74,3.21-.3s3.12-.68,3.07,1.93c-.1,5.2.1,10.41-.12,15.6-.14,3.48-1.86,6.29-5.4,7.2s-7,.8-9.57-2.23c-.79-.91-2-2.35-1.07-3.18a2.73,2.73,0,0,1,3.93.54c1.63,2.13,3.81,2.27,6,1.18S199.27,180.88,198.65,178.63ZM194.42,166a5,5,0,0,0-5.06,5.17,5.14,5.14,0,0,0,4.88,5.42c2.86,0,4.92-2.11,5-5.23S197.32,166,194.42,166Z"/><path class="cls-57" d="M110.06,168.45c0-5.82,2.65-10.09,7.55-12,4.54-1.79,10.34-.7,13.39,2.7.83.93,2.75,2,1,3.6-1.43,1.36-2.62,1.34-4.13-.54-2.67-3.36-8-3.41-11-.56s-3.3,9.7-.5,13c2.63,3.12,7.73,3.38,11,.62.72-.59.94-2,2.15-1.73a4.84,4.84,0,0,1,2.57,1.34c.87,1-.3,1.79-.87,2.49-2.81,3.43-8.67,4.8-13.29,3.18C112.92,178.74,110.1,174.47,110.06,168.45Z"/><path class="cls-57" d="M139.86,163.62c7.74-3,11.54-.53,11.71,7.31.05,2.48-.06,4.95,0,7.42,0,1.63-.62,2.1-2.19,2.14-1.79,0-2-.83-2-2.27.06-2.72,0-5.44,0-8.16,0-2.41-.84-4.21-3.57-4.18s-4,1.61-4,4.29-.07,5.45,0,8.16c0,1.62-.6,2.15-2.19,2.15s-2.11-.64-2.1-2.2c0-7.17.06-14.34,0-21.52,0-1.69.7-2.06,2.22-2.08,1.7,0,2.13.76,2.08,2.26C139.82,159,139.86,161.13,139.86,163.62Z"/><path class="cls-57" d="M170.48,173.66a38.89,38.89,0,0,0,0,4.83c.28,2.29-1.74,2.53-2.44,1.83-1.85-1.86-3.16-.25-4.63.18-3.09.89-6,.83-8.13-1.86s-.83-6.58,2.63-7.88a56.55,56.55,0,0,1,6.15-1.38c.73-.18,1.92.21,2-1.09a2.18,2.18,0,0,0-1.61-2.24c-1.9-.76-3.79-.75-5,1s-3.16,1.93-4.11.92c-1.13-1.19.39-2.79,1.44-3.72,2.93-2.6,6.43-2.36,9.82-1.25,3.07,1,3.73,3.71,3.79,6.6,0,1.36,0,2.73,0,4.09Zm-8.89,4.05c2.46-.3,4.38-1.09,4.61-3.89.11-1.41-.63-1.8-1.79-1.38-2.09.78-5.4-.41-5.86,3.07C158.29,177.55,160.24,177.5,161.59,177.71Z"/><path class="cls-57" d="M107.16,175.08c-2.11,4.56-5.65,6.58-9.8,5.77a9,9,0,0,1-7.24-8.72c-.22-4.43,2.42-8.51,6.18-9.55,4.2-1.17,8.24.39,10.19,4a18.24,18.24,0,0,1,1,3.14c.68,2.19.12,3.25-2.41,3.1-2.84-.17-5.7-.06-8.55,0-.67,0-1.58-.36-1.9.61a2.12,2.12,0,0,0,.63,2c1.93,2.21,4.34,2.69,6.56.89A5.6,5.6,0,0,1,107.16,175.08ZM98.91,170c1.38-.9,4,1.12,4.28-1.17s-2.14-3.2-4.24-3.17-4.42,1-4.15,3.25C95,170.89,97.52,169.21,98.91,170Z"/><path class="cls-57" d="M174.23,171.29c0-2.22.11-4.45,0-6.67-.15-2.42,2-2.69,2.77-1.91,1.55,1.49,2.52.86,3.94.2,1-.46,2.48-1.33,2.9.71.3,1.41.18,2.6-1.84,2.78-2.53.22-3.5,2.06-3.58,4.4s-.1,4.94-.06,7.41c0,1.45-.27,2.3-2,2.3s-2.16-.59-2.09-2.17c.1-2.35,0-4.7,0-7.05Z"/><path class="cls-58" d="M214.24,170c-1.19-1-3.72,1.19-3.79-1.26-.06-2.16,2.22-3.19,4.35-3.14,1.94.05,4.26,1,4,3C218.45,171.22,215.74,169,214.24,170Z"/><path class="cls-58" d="M30.51,184.43c0-4.94,0-9.24,0-13.54a2.12,2.12,0,0,1,1.16-2.1c3.65-2,7.25-4.15,11.45-6.57,0,5,0,9.35,0,13.74a2,2,0,0,1-1,1.85C38.43,179.94,34.71,182,30.51,184.43Z"/><path class="cls-58" d="M28.22,184.41c-4.17-2.33-7.79-4.38-11.44-6.36a2.36,2.36,0,0,1-1.18-2.48c0-4.21,0-8.41,0-12.8,2.58.59,4.33,1.57,3.79,4.45-.5,2.65,1.34,3.35,3.48,4.24l.41-4.34c3.9.78,5.42,2.92,5,6.82C28,177.12,28.22,180.37,28.22,184.41Z"/><path class="cls-58" d="M41.1,160.68c-2.68,1.53-5.49,2.88-8,4.65-3,2.14-5.56,2.13-8.33-1,3.49-2.1,6.87-4.23,10.35-6.19,2.59-1.45,3.8,1.53,5.95,1.59Z"/><path class="cls-58" d="M17.41,160.26c4.89-1.63,8.33-7,14.64-4.66-3.46,2.07-6.94,4.1-10.36,6.22C19.75,163,18.84,161.08,17.41,160.26Z"/><path class="cls-58" d="M78.61,167c-4.14,0-5.25-1.48-4.17-5.6.07-.24,0-.63.16-.69,2.46-1.15,5.05-.55,7.58-.43,1.65.09,2.26,1.46,2.49,2.84C85.12,165.8,83.29,166.94,78.61,167Z"/><path class="cls-58" d="M194.42,166c2.9,0,4.89,2.24,4.82,5.36s-2.14,5.28-5,5.23a5.14,5.14,0,0,1-4.88-5.42A5,5,0,0,1,194.42,166Z"/><path class="cls-58" d="M161.59,177.71c-1.35-.21-3.3-.16-3-2.2.46-3.48,3.77-2.29,5.86-3.07,1.16-.42,1.9,0,1.79,1.38C166,176.62,164.05,177.41,161.59,177.71Z"/><path class="cls-58" d="M98.91,170c-1.39-.75-3.87.93-4.11-1.09-.27-2.23,2.06-3.23,4.15-3.25s4.49,1,4.24,3.17S100.29,169.06,98.91,170Z"/></g><g id="_1JDVct" data-name="1JDVct" class="cls-3"><path class="cls-50" d="M367.75,215.26c-.54-1.28-1.85-1.09-2.84-1.34-21-5.34-35.59-23.81-35.49-45.11.09-21.86,14.66-40.1,36.15-45.37,1-.24,2.31.12,2.93-1.15h14.15c2.07,1.46,4.63,1.29,6.92,2,20.38,6.42,34.1,25.79,32.83,46.51-1.36,22.27-16.6,39.68-38.25,43.7-.58.11-1.26,0-1.5.75Zm9.12-25.88c5.69.18,10.18-3.89,10.3-9.37a9.74,9.74,0,0,0-9.63-10.12,9.76,9.76,0,1,0-.67,19.49ZM387.27,159a9.6,9.6,0,0,0-9.7-10,9.76,9.76,0,1,0-.44,19.51A9.59,9.59,0,0,0,387.27,159Zm-35.89,20.15c0,2.35,0,4.69,0,7,0,1.43-.42,3.07,2,3,1.71-.07,3.31.09,3-2.41-.21-1.84,1.06-1.77,2.38-1.9,5.3-.51,7.8-3.26,7.49-8.06-.34-5.15-3.77-7.17-12.18-6.83-5.38.21-1.74,4.43-2.69,6.63A6.88,6.88,0,0,0,351.38,179.19Zm-1-29.7c-.14,1.17.79,2,1.26,2.93,2.25,4.56,6,8.5,5.23,14.25-.3,2.17,1.72,1.47,2.94,1.63,1.67.2,2.32-.63,2.07-2.15-.64-3.73,1.27-6.62,2.91-9.66,1.26-2.32,3-4.41,3.55-7-6.44-2.32-5.89,4.4-8.88,6.74C356.81,153.32,356.72,147.09,350.39,149.49Zm44.32-.35c-1.74,0-3.48.08-5.21,0s-2.46.3-2.47,2.21.84,2.4,2.46,2.15c2.3-.35,2.67.89,2.61,2.82-.1,3.21.07,6.44-.06,9.66-.09,2.16,1,2.34,2.77,2.38,1.89,0,2.31-.81,2.26-2.47-.09-3,.08-6-.05-8.92-.11-2.3.12-4,3.07-3.47,1.79.3,2-.81,2-2.23.05-1.62-.55-2.22-2.15-2.13S396.45,149.14,394.71,149.14Zm-2.22,37.5c-.1-1.52-.74-2.6-2.41-2.67a2.68,2.68,0,1,0,0,5.35C391.79,189.25,392.41,188.17,392.49,186.64Z"/><path class="cls-59" d="M376.87,189.38a9.76,9.76,0,1,1,.67-19.49A9.74,9.74,0,0,1,387.17,180C387.05,185.49,382.56,189.56,376.87,189.38Zm.47-4.54c3-.06,4.84-2.19,4.68-5.45-.15-3-1.6-4.91-4.78-5-2.91-.1-5,2.16-5,5.28S374.35,184.89,377.34,184.84Z"/><path class="cls-59" d="M387.27,159a9.59,9.59,0,0,1-10.14,9.53,9.76,9.76,0,1,1,.44-19.51A9.6,9.6,0,0,1,387.27,159Zm-5.25-.31c0-3.26-2-5.36-5-5.22-3.22.15-4.56,2.22-4.76,5.13a4.83,4.83,0,0,0,4.86,5.36C380.22,164,382,162.06,382,158.73Z"/><path class="cls-59" d="M351.38,179.19a6.88,6.88,0,0,1,.05-2.57c.95-2.2-2.69-6.42,2.69-6.63,8.41-.34,11.84,1.68,12.18,6.83.31,4.8-2.19,7.55-7.49,8.06-1.32.13-2.59.06-2.38,1.9.3,2.5-1.3,2.34-3,2.41-2.46.1-2-1.54-2-3C351.37,183.88,351.38,181.54,351.38,179.19Zm5-1.85c.34,1.18-.84,3.21,1.82,3.13,2-.06,3-1,2.93-3s-.76-3-2.8-3.17C355.72,174.11,356.6,176,356.4,177.34Z"/><path class="cls-59" d="M350.39,149.49c6.33-2.4,6.42,3.83,9.08,6.72,3-2.34,2.44-9.06,8.88-6.74-.53,2.61-2.29,4.7-3.55,7-1.64,3-3.55,5.93-2.91,9.66.25,1.52-.4,2.35-2.07,2.15-1.22-.16-3.24.54-2.94-1.63.79-5.75-3-9.69-5.23-14.25C351.18,151.45,350.25,150.66,350.39,149.49Z"/><path class="cls-59" d="M394.71,149.14c1.74,0,3.48.08,5.21,0s2.2.51,2.15,2.13c0,1.42-.19,2.53-2,2.23-2.95-.5-3.18,1.17-3.07,3.47.13,3,0,5.94.05,8.92.05,1.66-.37,2.51-2.26,2.47-1.73,0-2.86-.22-2.77-2.38.13-3.22,0-6.45.06-9.66.06-1.93-.31-3.17-2.61-2.82-1.62.25-2.47-.21-2.46-2.15s.82-2.3,2.47-2.21S393,149.14,394.71,149.14Z"/><path class="cls-59" d="M392.49,186.64c-.08,1.53-.7,2.61-2.38,2.68a2.68,2.68,0,1,1,0-5.35C391.75,184,392.39,185.12,392.49,186.64Z"/><path class="cls-50" d="M377.34,184.84c-3,0-5-2.05-5.06-5.19s2.05-5.38,5-5.28c3.18.11,4.63,2,4.78,5C382.18,182.65,380.31,184.78,377.34,184.84Z"/><path class="cls-50" d="M382,158.73c0,3.33-1.8,5.3-4.86,5.27a4.83,4.83,0,0,1-4.86-5.36c.2-2.91,1.54-5,4.76-5.13C380.05,153.37,382,155.47,382,158.73Z"/><path class="cls-50" d="M356.4,177.34c.2-1.32-.68-3.23,2-3,2,.17,2.78,1.29,2.8,3.17s-1,2.92-2.93,3C355.56,180.55,356.74,178.52,356.4,177.34Z"/></g><g id="tw14y2" class="cls-3"><path class="cls-11" d="M528.46,161c1-.32,1-1.37,1.29-2.1,3.58-8.48,11.9-13.59,20.32-12.43,9.5,1.31,16.2,7.93,17.38,17.15A19,19,0,0,1,555,183.8c-3.41,1.31-4.28,4.67-7.23,6.88-2.18-4.86-7-6.68-11.23-9.25s-6.15-7.16-8.09-11.54Z"/><path class="cls-60" d="M751.89,173.61c-2.49,6.07-6.37,10.18-13.56,9.84-2.43-.12-4.44-1.15-6.86-3.07,0,3.34-.09,6,0,8.65.09,2.2-1.15,2.28-2.82,2.32s-2.32-.68-2.31-2.41c.06-9.15,0-18.29,0-27.44,0-.79-.39-2,.8-2.16,1.38-.19,3.15-.87,4.08.65.68,1.13,1,.86,1.94.44,8.45-4,14.12-1.78,18.08,6.89.07.16.38.23.58.34Z"/><path class="cls-48" d="M599.06,171.38v9.27c0,1,.14,2.19-1.25,2.23s-3.3.92-3.65-.58c-.62-2.61-1.5-.93-2.32-.47a12.11,12.11,0,0,1-15.44-2.51,12.65,12.65,0,0,1,.08-16.33,11.94,11.94,0,0,1,15.36-2.79c1,.6,1.68,1.66,2.44-.51.42-1.17,2.49-.57,3.76-.39s1,1.5,1,2.44c0,3.21,0,6.42,0,9.64Z"/><path class="cls-49" d="M636.16,172.79c1.29,5.66,7.11,8.2,11.4,4.77,2.67-2.14,4.41-1.84,6.63.34-3.57,4.75-8.4,6.35-14,5.28a11.66,11.66,0,0,1-9.52-8.86c-1.31-4.9-.15-9.38,3.83-12.76a12.56,12.56,0,0,1,13.23-2.19c4.72,1.76,7.17,5.44,8.06,10.29.44,2.35-.29,3.28-2.88,3.18C647.33,172.65,641.77,172.79,636.16,172.79Z"/><path class="cls-48" d="M697.57,161.74c3.85-3.4,7.57-4.12,11.52-2.19s5.26,5.67,5.32,9.86c.05,3.47,0,6.93,0,10.4,0,1.78.27,3.37-2.51,3.39s-2.7-1.29-2.65-3.22c.09-3.34.1-6.69,0-10-.13-4.33-1.92-6.22-5.67-6.23s-5.92,2.07-6,6.34c-.07,3.59-.09,7.18,0,10.77,0,1.79-.6,2.42-2.36,2.31-1.52-.1-2.93.16-2.91-2.19.1-8.91.12-17.82,0-26.73,0-2.3,1.18-2.16,2.77-2.26,1.95-.12,2.65.51,2.51,2.49C697.45,156.65,697.57,158.87,697.57,161.74Z"/><path class="cls-50" d="M680.29,183.57a14.33,14.33,0,0,1-8.09-2.4c-.9-.61-3.16-.88-1.51-2.75,1-1.17,1.88-3.29,4.32-1.23a8.06,8.06,0,0,0,8,1.69c1.37-.47,2.59-1.22,2.49-2.83-.09-1.39-1.19-2.08-2.49-2.4a64.83,64.83,0,0,1-7.88-2c-4.94-1.9-5.79-7-2-10.71,3.48-3.45,12-3.43,15.54-.1,1.17,1.1.38,1.77-.22,2.47s-1.2,2.21-2.89,1.08c-2.07-1.4-4.38-2.3-7-1.44-1.37.45-2.58,1.13-2.57,2.75s1.31,2,2.54,2.25c1.8.42,3.61.79,5.43,1.15,4.47.9,6.65,2.88,6.74,6.17s-2.57,6.68-6.38,7.71A31.77,31.77,0,0,1,680.29,183.57Z"/><path class="cls-47" d="M617.44,147.16c-.81,2.32-1.07,4.41-4.33,4.25-3-.14-3,2.56-3.21,4.87-.25,2.66,1.23,2.83,3.18,2.66,2.14-.18,1.92,1.33,2,2.72s-.22,2.51-2,2.22c-2.78-.46-3.27.94-3.17,3.38.17,4.33,0,8.67.08,13,0,1.95-.63,2.55-2.57,2.55s-2.61-.58-2.56-2.54c.11-4.58,0-9.17,0-13.75,0-1.43.12-2.84-2-2.61-1.55.16-1.54-1-1.4-1.95s-.74-2.64,1-2.69c2.54-.08,2.2-1.64,2.29-3.28C605.18,148.21,609.54,145.13,617.44,147.16Z"/><path class="cls-49" d="M623.57,152.07c2.17-.48,2.47.62,2.5,2.45,0,2-1.32,4.9,2.83,4.87,1.43,0,.63,1.82.79,2.82s-.08,1.84-1.31,1.67c-2.48-.34-2.42,1.18-2.39,2.92.07,4.32,0,8.65,0,13,0,1.81.18,3.25-2.53,3.34-3,.11-2.72-1.6-2.7-3.49,0-4.45,0-8.89,0-13.34,0-1.25.17-2.31-1.76-2.47-1.34-.11-1.81-4.22-.66-4.33,3.6-.34,2.4-2.9,2.34-4.66C620.66,152.55,621.27,151.52,623.57,152.07Z"/><path class="cls-61" d="M657.86,171.25c0-3.22.11-6.44,0-9.65-.09-2.06.84-2.85,2.61-2.37a7.35,7.35,0,0,0,6-.42c.94-.52,3.42-1.06,3.44,1.12,0,1.4.09,4.11-2.76,3.92-3.27-.21-4.05,1.67-4,4.39,0,4.08-.11,8.17,0,12.25.07,2.16-.76,2.72-2.81,2.74s-2.45-.94-2.41-2.7C657.93,177.44,657.87,174.34,657.86,171.25Z"/><path class="cls-62" d="M722.71,171.32c0,3.09-.11,6.19,0,9.28.1,2.12-1,2.39-2.71,2.46-2,.07-2.56-.63-2.53-2.56.1-6.31.12-12.63,0-18.94,0-2.08.82-2.43,2.62-2.43s2.7.54,2.62,2.54C722.62,164.88,722.71,168.1,722.71,171.32Z"/><path class="cls-63" d="M722.94,154.35c-.12,1.78-.93,2.85-2.7,2.93a2.53,2.53,0,0,1-2.83-2.68,2.41,2.41,0,0,1,2.64-2.79A2.58,2.58,0,0,1,722.94,154.35Z"/><path class="cls-64" d="M557.73,161.83c1.65-.43,3-.46,2.76,1.89a14.42,14.42,0,0,0,0,1.47c0,6.81-3.21,10.73-9.84,12-.82.15-1.39.1-1.78-.77-.94-2.09.27-9.28,1.91-11.08C552.5,163,555,162.17,557.73,161.83Z"/><path class="cls-52" d="M549.88,164.58c-4.38.28-7.52-2.65-11.11-4.37-1.34-.64-.36-1.38.44-1.79,2.62-1.34,5.14-3.13,7.93-3.84,3.78-1,6.53,2.26,9.77,3.54,2.43,1,1.37,2-.12,2.93A13.37,13.37,0,0,1,549.88,164.58Z"/><path class="cls-8" d="M547.13,171.72c0,6.42,0,6.42-5.3,3.77-6.3-3.15-7.26-5.2-6.13-12.32.26-1.62,1-1.88,2.24-1.3,2.57,1.21,5.15,2.43,7.61,3.86C548.2,167.26,546.67,170,547.13,171.72Z"/><path class="cls-65" d="M549.88,164.58a31.72,31.72,0,0,1,6.91-3.53l.94.78a29.13,29.13,0,0,1-7,3.5Z"/><path class="cls-66" d="M746.46,171.08a7.64,7.64,0,1,1-7.39-7.81A7.9,7.9,0,0,1,746.46,171.08Z"/><path class="cls-8" d="M579,170.83a7.63,7.63,0,0,1,7.49-7.57,7.75,7.75,0,0,1,0,15.5A7.55,7.55,0,0,1,579,170.83Z"/><path class="cls-67" d="M635.86,168.49c1.08-3.24,2.76-5.05,5.82-5.36a6.88,6.88,0,0,1,7,3.16c.84,1.28,1,2.25-1.1,2.21C643.8,168.43,640,168.49,635.86,168.49Z"/></g><path class="cls-48" d="M1280.34,180.29c-3.89.74-6.44-1.29-8.79-4-1.51-1.77-3.4-3.23-5.07-4.88a2.34,2.34,0,0,0-2.34-.76c-1.17.33-.77,1.4-.8,2.19-.06,1.85-.07,3.71,0,5.56,0,1.45-.58,1.91-2,1.93s-1.95-.53-1.94-1.93q.06-9.47,0-18.93c0-1.53.4-2.23,2.1-2.18,1.54,0,1.88.76,1.84,2.07,0,1.74,0,3.47,0,5.2,0,.7-.23,1.55.57,2s1.69,0,2.32-.62a74.27,74.27,0,0,0,6-6.07c1.76-2.17,3.66-3.17,6.85-2.15a56.47,56.47,0,0,1-8.43,8.81c-1.86,1.56-1.65,2.39.09,3.9,3.35,2.9,6.44,6.1,9.64,9.17Z"/><path class="cls-68" d="M1056.94,157.23c5.07,0,10.14.05,15.2,0,1.43,0,2.69-.11,2.65,2s-1.4,1.63-2.55,1.65c-2.72,0-5.44.14-8.15,0-2.28-.14-3.26.37-3.28,3s1,3.45,3.44,3.2a20.69,20.69,0,0,1,4.45,0c1.37.15,3.53-1,3.66,1.73.15,2.88-2.11,1.68-3.44,1.84a16.92,16.92,0,0,1-4.44,0c-3.1-.46-4,1-3.58,3.74.08.61-.09,1.25,0,1.85.55,3.22-.7,4.62-4,4Z"/><path class="cls-69" d="M1182.53,168.1c3.33,1.56,5.37,3.62,4.54,7.12s-3.61,4.63-6.72,4.84c-3.94.27-7.91.09-11.86.2-1.66.05-2.12-.68-2.1-2.22,0-6.18,0-12.36,0-18.54,0-1.19,0-2.27,1.69-2.22,4.07.14,8.16-.37,12.21.34,2.6.45,4.73,1.63,5.36,4.41S1185.13,166.59,1182.53,168.1Z"/><path class="cls-50" d="M1206.67,157c7.56,0,12.5,4.57,12.53,11.67s-4.89,11.81-12.4,11.84-12.41-4.53-12.48-11.72S1199.09,157,1206.67,157Z"/><path class="cls-49" d="M1238.18,180.52c-7.52-.12-12.34-4.87-12.17-12s5.17-11.65,12.69-11.52,12.19,4.75,12.1,12S1245.79,180.65,1238.18,180.52Z"/><path class="cls-61" d="M1138.15,168.72c0-3.1,0-6.2,0-9.3,0-1.6.56-2.19,2.17-2.17,4.59.07,9.18.06,13.77,0,1.55,0,2.23.49,2.21,2.13S1155.14,161,1154,161c-3,0-6,.16-8.93,0-2.4-.17-2.92.8-2.89,3s.19,3.33,2.76,3a55.48,55.48,0,0,1,6.32,0c1.22,0,2.46-.26,2.51,1.73,0,2.19-1.28,2-2.67,2-1.74,0-3.47,0-5.21,0-2,0-3.75-.37-3.77,2.83s1.6,3.23,3.9,3.15c2.85-.11,5.71,0,8.56,0,1.26,0,2.12.15,2.1,1.77,0,1.46-.6,2-2,1.94-4.84,0-9.68-.06-14.52,0-1.7,0-2.09-.77-2.06-2.27C1138.19,174.92,1138.15,171.82,1138.15,168.72Z"/><path class="cls-70" d="M1100.18,180.19c-2.3.45-2.79-1.11-3-2.58-.34-3-2-3.87-4.81-3.52a12.88,12.88,0,0,1-3.34,0c-3.16-.43-5.23.38-5.51,4-.16,2.11-1.82,2.59-3.53,2.07-2-.6-.65-2-.35-3a145.88,145.88,0,0,1,6.9-17.55c.78-1.71,1.71-2.48,3.62-2.36,1.75.11,3.25,0,4.19,2.09a193.18,193.18,0,0,1,7.26,18.58C1102.16,179.51,1102.26,180.67,1100.18,180.19Z"/><path class="cls-48" d="M1120.93,180.53c-6.66.06-10.87-2.69-12.36-7.52-1.61-5.18.2-11.19,4.22-14,3.86-2.74,10.75-2.68,14.3.27,1,.83,3.06,1.7,1.83,3.38s-2.66,1.3-4.28-.25c-2.56-2.46-7.32-2.2-9.88.09-2.84,2.55-3.38,7.91-1.14,11.29,2,3,6.68,4.05,10.32,2.21a15.17,15.17,0,0,0,1.53-1c1.55-1,2.76.08,3.49,1s-.56,1.68-1.25,2.24A10.54,10.54,0,0,1,1120.93,180.53Z"/><path class="cls-71" d="M1175.32,176.55c-1.28-.87-4.12,1.74-4.84-1.57-.83-3.75-.12-4.46,3.84-4.45,1.86,0,3.73,0,5.58.11s3.06,1,3,3-1.45,2.73-3.18,2.88C1178.41,176.64,1177,176.55,1175.32,176.55Z"/><path class="cls-72" d="M1175.73,160.94c2.19.26,6-.9,5.88,3.17-.08,3.76-3.74,3-6.09,2.74-1.68-.21-4.72,2.17-5-1.94S1170.07,160.93,1175.73,160.94Z"/><path class="cls-8" d="M1206.42,176.8c-4.94-.11-8-3.29-7.9-8.25s3.38-8,8.69-7.8c5,.17,7.78,3.19,7.62,8.4C1214.69,174.08,1211.58,176.92,1206.42,176.8Z"/><path class="cls-8" d="M1238.54,160.72c5,0,8.15,3.15,8.13,8.14s-3.29,8-8.29,8-8-3-8-8.16S1233.37,160.71,1238.54,160.72Z"/><path class="cls-5" d="M1090.42,160.41c.71,1.37,1.17,2.07,1.46,2.84.85,2.29,3.37,5.25,2.21,6.67-1.48,1.8-5,.52-7.75.56C1087.1,167,1088.58,164.05,1090.42,160.41Z"/></g></g></g></svg>