<svg xmlns="http://www.w3.org/2000/svg" viewBox="0 0 110.24 107.99"><defs><style>.cls-1{fill:#e5e5e5;}.cls-2,.cls-6{fill:#9db795;}.cls-3{fill:#bfdece;}.cls-4{fill:#fff;}.cls-5{fill:#fa7846;}.cls-6{font-size:1.83px;font-family:TimesNewRomanPSMT, Times New Roman;}</style></defs><title>Asset 49</title><g id="Layer_2" data-name="Layer 2"><g id="Layer_4" data-name="Layer 4"><path class="cls-1" d="M100.62,45.24c-12.18-11-12.85-25.2-16-32.46S72.82-2.08,62.12.52,41.14,23,24.84,30.08,9.33,35.17,3.46,42.4s-4.71,25.14,6.89,30.43,22.74,7.9,27.54,14.24S44.63,106.22,61,107.86s19.69-12.7,31.27-25.64C94.61,79.55,125.48,67.56,100.62,45.24Z"/><rect class="cls-2" x="17.06" y="12.36" width="72.36" height="85.28" rx="2.16"/><rect class="cls-3" x="17.06" y="8.61" width="72.36" height="85.28" rx="2.16"/><rect class="cls-2" x="28.46" y="19.36" width="10.94" height="2.95" rx="1.47"/><rect class="cls-2" x="41.84" y="19.36" width="10.94" height="2.95" rx="1.47"/><rect class="cls-2" x="55.22" y="19.36" width="10.94" height="2.95" rx="1.47"/><rect class="cls-2" x="68.6" y="19.36" width="10.94" height="2.95" rx="1.47"/><rect class="cls-2" x="30.51" y="56.03" width="46.79" height="2.95" rx="1.47"/><rect class="cls-2" x="36.71" y="61.84" width="34.39" height="2.95" rx="1.47"/><rect class="cls-2" x="32.11" y="67.64" width="43.59" height="2.95" rx="1.47"/><rect class="cls-4" x="22.13" y="25.42" width="62.47" height="28.11"/><rect class="cls-2" x="22.18" y="10.9" width="62.12" height="6.48"/><rect class="cls-5" x="37.32" y="79.43" width="33.73" height="8.43" rx="4.22"/><line class="cls-2" x1="34.97" y1="50" x2="74.09" y2="50"/><line class="cls-2" x1="34.97" y1="50" x2="34.97" y2="49.5"/><line class="cls-2" x1="42.79" y1="50" x2="42.79" y2="49.5"/><line class="cls-2" x1="50.62" y1="50" x2="50.62" y2="49.5"/><line class="cls-2" x1="58.44" y1="50" x2="58.44" y2="49.5"/><line class="cls-2" x1="66.27" y1="50" x2="66.27" y2="49.5"/><line class="cls-2" x1="74.09" y1="50" x2="74.09" y2="49.5"/><text class="cls-6" transform="translate(33.44 50.69)">0</text><text class="cls-6" transform="translate(33.44 46.64)">2</text><text class="cls-6" transform="translate(33.44 42.6)">4</text><text class="cls-6" transform="translate(33.44 38.55)">6</text><text class="cls-6" transform="translate(33.44 34.51)">8</text><text class="cls-6" transform="translate(32.52 30.46)">10</text><line class="cls-2" x1="34.97" y1="50" x2="34.97" y2="29.77"/><line class="cls-2" x1="34.97" y1="50" x2="35.95" y2="50"/><line class="cls-2" x1="34.97" y1="45.96" x2="35.95" y2="45.96"/><line class="cls-2" x1="34.97" y1="41.91" x2="35.95" y2="41.91"/><line class="cls-2" x1="34.97" y1="37.86" x2="35.95" y2="37.86"/><line class="cls-2" x1="34.97" y1="33.82" x2="35.95" y2="33.82"/><line class="cls-2" x1="34.97" y1="29.77" x2="35.95" y2="29.77"/><rect class="cls-2" x="36.07" y="47.98" width="5.63" height="2.02"/><rect class="cls-2" x="43.89" y="39.89" width="5.63" height="10.11"/><rect class="cls-2" x="51.71" y="43.93" width="5.63" height="6.07"/><rect class="cls-2" x="59.54" y="39.89" width="5.63" height="10.11"/><rect class="cls-2" x="67.36" y="29.77" width="5.63" height="20.23"/><path class="cls-5" d="M88.46,88.5a10.55,10.55,0,1,1,3.81-14.42A10.55,10.55,0,0,1,88.46,88.5ZM79.82,73.65a6.63,6.63,0,1,0,9.07,2.4A6.64,6.64,0,0,0,79.82,73.65Z"/><rect class="cls-5" x="87.59" y="85.34" width="3.92" height="10.07" transform="translate(-33.3 57.3) rotate(-30.19)"/></g></g></svg>