<svg xmlns="http://www.w3.org/2000/svg" viewBox="0 0 137.7 113.61"><defs><style>.cls-1{fill:#e5e5e5;}.cls-2{fill:#9db795;}.cls-3{fill:#bfdece;}.cls-4,.cls-8{fill:#fff;}.cls-5{opacity:0.18;}.cls-6{fill:#fa7846;}.cls-7{fill:#f96132;}.cls-8{font-size:11.36px;font-family:MyriadPro-Regular, Myriad Pro;}</style></defs><title>Asset 58</title><g id="Layer_2" data-name="Layer 2"><g id="Layer_4" data-name="Layer 4"><path class="cls-1" d="M47.75,13.7c-10.33,14.72-28,18.58-36.26,23.4S-3.88,52.29,2.38,62.47,36.5,78.55,49.9,93.38s10.71,14.47,21.43,18.75,32.87-.89,36.27-13.75,3.57-24.65,10.18-30.91S139.93,56.4,137.43,39.6,116,22.63,96.52,13.88C92.5,12.07,68.83-16.31,47.75,13.7Z"/><rect class="cls-2" x="12.91" y="20.31" width="105.78" height="77.53" rx="2.16"/><rect class="cls-3" x="12.91" y="15.31" width="105.78" height="77.53" rx="2.16"/><rect class="cls-2" x="27.84" y="28.72" width="75.92" height="4.31" rx="1.67"/><rect class="cls-2" x="31.6" y="36.75" width="68.4" height="4.31" rx="1.67"/><rect class="cls-4" x="23.76" y="50.1" width="84.07" height="12.91"/><rect class="cls-5" x="28.65" y="54.4" width="54.16" height="4.31" rx="1.67"/><rect class="cls-6" x="85.49" y="71.45" width="49.31" height="12.33" rx="4.79"/><rect class="cls-7" x="94.27" y="75.46" width="31.76" height="4.31" rx="1.67"/><text class="cls-8" transform="translate(108.2 21.71) rotate(45)">+</text><path class="cls-4" d="M109.12,93.56h-1.28v-4.1c0-.09,0-.18,0-.28h0V87.05a1.57,1.57,0,0,0-.46-1.12,1.58,1.58,0,0,0-2.7.93v6.41H103.4V91.62h0V87.05a1.69,1.69,0,0,1,0-.23V85.59a1.53,1.53,0,0,0-.47-1.12,1.54,1.54,0,0,0-1.12-.47,1.58,1.58,0,0,0-1.57,1.38V92.8H99V78.61A1.63,1.63,0,0,0,97.57,77a1.53,1.53,0,0,0-1.26.38,1.6,1.6,0,0,0-.54,1.19v18.3l-.1.15a8.06,8.06,0,0,0-.6,1.17l-.41,1L91,94.74a1.63,1.63,0,0,0-2.12-.39,1.6,1.6,0,0,0-.37,2.37l3.39,4.06a34.56,34.56,0,0,1,3.6,5.32,9,9,0,0,0,16.8-4.42V89.38a1.59,1.59,0,0,0-.54-1.2,1.58,1.58,0,0,0-2.62,1.08,1.5,1.5,0,0,0,0,.2Z"/></g></g></svg>