<svg xmlns="http://www.w3.org/2000/svg" viewBox="0 0 127.49 88"><defs><style>.cls-1{fill:#35af70;}</style></defs><title>Asset 57</title><g id="Layer_2" data-name="Layer 2"><g id="Layer_4" data-name="Layer 4"><path class="cls-1" d="M126.75,42.18a14.77,14.77,0,0,0-2.93-2.71Q96.24,20.59,68.61,1.77c-3.47-2.36-6.85-2.36-10.37,0L53.4,5.07,36.73,16.43,7.9,36.14a9.85,9.85,0,0,0-2.48,1.77A18.15,18.15,0,0,0,1.76,40.3C0,41.69-.88,45.07,1.29,47l0,0,.41.46c2.54,1.92,5.1,3.82,7.6,5.78.72.57,1,.5,1.53-.27a68.82,68.82,0,0,1,5.93-8.12A63.26,63.26,0,0,1,50,25.07l8.81-1.34h8.52L76.49,25A64.42,64.42,0,0,1,107.4,41.6a67.2,67.2,0,0,1,4.93,5.06,67.37,67.37,0,0,1,4.31,6c.59.89.92,1.1,1.88.35,2.29-1.79,4.35-3.85,6.79-5.48C127.6,46,128.1,43.8,126.75,42.18Z"/><path class="cls-1" d="M97.61,54.38c-8.46-9-19-13.69-31.34-14.27a27,27,0,0,0-6.09,0,42.2,42.2,0,0,0-20.84,6.3,40.45,40.45,0,0,0-11.19,9.65c-1.52,1.93-3.08,3.84-4.49,5.87-.46.66-.38,1,.32,1.44q5.67,3.72,11.27,7.53c.75.52,1,.24,1.4-.4a26.17,26.17,0,0,1,3.15-4.2C51.17,54,71.21,52.72,84.41,63.55l.46.37h0l.36.33.36.36,0,0c.12.12.25.24.37.37l0,0,.34.34h0c.13.12.25.25.37.37h0l.36.43c1.08,1.52,2.2,3,3.21,4.56.41.62.7.71,1.32.3,3.81-2.53,7.62-5,11.47-7.51.79-.5.73-.87.33-1.6A35.52,35.52,0,0,0,97.61,54.38Z"/><path class="cls-1" d="M63.84,72.1c-6.17,0-10,3.07-13.45,7-.84,1-.58,1.43.42,2,2.91,1.71,5.85,3.41,8.63,5.32s5.53,2.1,8.35.1a21.64,21.64,0,0,1,3-2.14c2.1-1,3.94-2.4,5.95-3.53.72-.4.8-.79.29-1.44C73.49,75,69.11,72.16,63.84,72.1Z"/></g></g></svg>