<svg xmlns="http://www.w3.org/2000/svg" viewBox="0 0 126.36 137.65"><defs><style>.cls-1{fill:#f1f1f1;}.cls-2,.cls-7,.cls-8{fill:#9db795;}.cls-3{fill:#bfdece;}.cls-4{fill:#fa7846;}.cls-5{fill:#f14311;}.cls-6{fill:none;stroke:#9db795;}.cls-6,.cls-8{stroke-miterlimit:10;}.cls-7{font-size:1.83px;font-family:TimesNewRomanPSMT, Times New Roman;}.cls-8{stroke:#bfdece;}</style></defs><title>Asset 52</title><g id="Layer_2" data-name="Layer 2"><g id="Layer_4" data-name="Layer 4"><path class="cls-1" d="M124.36,80.93c0,15.34,2,31.34-8,45.34s-30,12-46.38,9.87a73.85,73.85,0,0,1-11.74-3.37c-15.13-5.75-27.88-16.5-33.88-31.5C11.62,70.52,38.25,48.77,66.24,36.41c4.67-2.06,9.37-3.86,13.94-5.39,13.19-5.75,32.19-7.75,41.19,5.25,7,11,5,23,3.66,34.67C124.81,74.12,124.59,77.47,124.36,80.93Z"/><path class="cls-2" d="M0,58.8H95.79a0,0,0,0,1,0,0V93.5a27.9,27.9,0,0,1-27.9,27.9H10.18A10.18,10.18,0,0,1,0,111.23V58.8A0,0,0,0,1,0,58.8Z"/><path class="cls-3" d="M0,13.28H95.79a0,0,0,0,1,0,0V94.2a23.41,23.41,0,0,1-23.41,23.41H0a0,0,0,0,1,0,0V13.28A0,0,0,0,1,0,13.28Z"/><path class="cls-4" d="M95.79,92h0a10.27,10.27,0,0,1-10.65,10L70,101.49l1.78,7.56A7,7,0,0,1,65,117.61h9A21.83,21.83,0,0,0,95.79,95.78Z"/><path class="cls-4" d="M30.86,8.54H62.58A10.23,10.23,0,0,1,72.8,18.76v3.05a0,0,0,0,1,0,0H20.64a0,0,0,0,1,0,0V18.76A10.23,10.23,0,0,1,30.86,8.54Z"/><circle class="cls-4" cx="47.19" cy="8.54" r="8.54"/><path class="cls-5" d="M25.55,17.07H68.84a2.06,2.06,0,0,1,2.06,2.06v.78a0,0,0,0,1,0,0H23.48a0,0,0,0,1,0,0v-.78A2.06,2.06,0,0,1,25.55,17.07Z"/><rect class="cls-6" x="14.09" y="35.09" width="13.91" height="13.28"/><rect class="cls-6" x="14.09" y="54.06" width="13.91" height="13.28"/><rect class="cls-2" x="41.5" y="34.14" width="46.47" height="4.74" rx="2.37"/><rect class="cls-2" x="41.5" y="41.73" width="34.15" height="4.74" rx="2.37"/><rect class="cls-2" x="41.5" y="53.11" width="46.47" height="4.74" rx="2.37"/><rect class="cls-2" x="41.5" y="60.7" width="23.65" height="4.74" rx="2.37"/><line class="cls-2" x1="16.77" y1="101.3" x2="55.89" y2="101.3"/><line class="cls-2" x1="16.77" y1="101.3" x2="16.77" y2="100.79"/><line class="cls-2" x1="24.59" y1="101.3" x2="24.59" y2="100.79"/><line class="cls-2" x1="32.42" y1="101.3" x2="32.42" y2="100.79"/><line class="cls-2" x1="40.24" y1="101.3" x2="40.24" y2="100.79"/><line class="cls-2" x1="48.06" y1="101.3" x2="48.06" y2="100.79"/><line class="cls-2" x1="55.89" y1="101.3" x2="55.89" y2="100.79"/><text class="cls-7" transform="translate(15.24 101.98)">0</text><text class="cls-7" transform="translate(15.24 97.94)">2</text><text class="cls-7" transform="translate(15.24 93.89)">4</text><text class="cls-7" transform="translate(15.24 89.85)">6</text><text class="cls-7" transform="translate(15.24 85.8)">8</text><text class="cls-7" transform="translate(14.32 81.76)">10</text><line class="cls-2" x1="16.77" y1="101.3" x2="16.77" y2="81.07"/><line class="cls-2" x1="16.77" y1="101.3" x2="17.75" y2="101.3"/><line class="cls-2" x1="16.77" y1="97.25" x2="17.75" y2="97.25"/><line class="cls-2" x1="16.77" y1="93.21" x2="17.75" y2="93.21"/><line class="cls-2" x1="16.77" y1="89.16" x2="17.75" y2="89.16"/><line class="cls-2" x1="16.77" y1="85.11" x2="17.75" y2="85.11"/><line class="cls-2" x1="16.77" y1="81.07" x2="17.75" y2="81.07"/><rect class="cls-2" x="17.86" y="99.27" width="5.63" height="2.02"/><rect class="cls-2" x="25.69" y="91.18" width="5.63" height="10.11"/><rect class="cls-2" x="33.51" y="81.07" width="5.63" height="20.23"/><rect class="cls-2" x="41.34" y="93.21" width="5.63" height="8.09"/><rect class="cls-2" x="49.16" y="99.27" width="5.63" height="2.02"/><path class="cls-8" d="M75.17,80.38l9.58-5.53a11.06,11.06,0,1,1-15.11-4,10.55,10.55,0,0,1,5.53-1.48Z"/><path class="cls-8" d="M75.17,80.38V69.32a10.77,10.77,0,0,1,9.58,5.53Z"/><rect class="cls-2" x="16.74" y="40.35" width="8.15" height="3.23" rx="1.61" transform="translate(36.89 -2.04) rotate(46.45)"/><rect class="cls-2" x="19.22" y="37.93" width="15.43" height="3.23" rx="1.61" transform="translate(-19.83 29.44) rotate(-43.55)"/><rect class="cls-2" x="16.74" y="59.32" width="8.15" height="3.23" rx="1.61" transform="translate(50.64 3.86) rotate(46.45)"/><rect class="cls-2" x="19.22" y="56.9" width="15.43" height="3.23" rx="1.61" transform="translate(-32.9 34.66) rotate(-43.55)"/></g></g></svg>